<svg viewBox="0 0 141 31" fill="none" xmlns="http://www.w3.org/2000/svg">
<path fill='white' fill-rule="evenodd" clip-rule="evenodd" d="M28.3415 8.26944C30.1344 11.7446 30.5644 15.9165 29.2016 19.9095C26.5449 27.6935 18.081 31.8499 10.297 29.1932C6.93478 28.0457 4.24934 25.8147 2.49743 23.023C2.49753 23.0229 2.49763 23.0229 2.49772 23.0229C4.81519 21.917 12.7035 18.0452 14.2579 17.1341C15.535 16.3898 17.4363 15.2928 17.4363 15.2928L18.2428 16.9367L19.4744 25.0372L20.4149 24.4942L21.0407 13.1796C22.9412 11.9913 24.616 10.8352 26.3688 9.62519L26.3695 9.62471C27.0114 9.18159 27.6637 8.73124 28.3415 8.26944ZM27.6424 7.05696C27.6422 7.0569 27.642 7.05683 27.6418 7.05677C26.9025 7.41306 26.1858 7.75306 25.4807 8.08759C23.5562 9.00065 21.7177 9.87293 19.7387 10.9245L9.6271 5.80914L8.68655 6.35216L15.0861 11.469L16.1048 12.9867L16.1064 12.9893C16.1064 12.9893 14.2057 14.0875 12.9225 14.8213C11.3564 15.712 4.05922 20.6075 1.94266 22.0615C0.0917552 18.5602 -0.366937 14.3327 1.01328 10.2887C3.66999 2.50477 12.1338 -1.6517 19.9178 1.005C23.2324 2.13629 25.8893 4.32057 27.6424 7.05696Z"/>
<path fill='white' fill-rule="evenodd" clip-rule="evenodd" d="M133.848 11.7847V10.1498H136.729V25.0428L133.765 25.0428V23.3515C132.707 24.583 131.22 25.3971 129.07 25.3971C124.836 25.3971 122.115 22.0226 122.115 17.6052C122.115 13.2184 124.836 9.81326 129.07 9.81326C130.951 9.81326 132.696 10.5232 133.848 11.7847ZM133.649 14.7075C132.771 13.4089 131.288 12.6097 129.543 12.6097C126.922 12.6097 125.116 14.8289 125.116 17.6052C125.116 20.3814 126.855 22.6669 129.543 22.6669C131.338 22.6669 132.791 21.6439 133.649 20.3177V14.7075Z"/>
<path fill='white' d="M116.148 6.31585C116.148 5.17135 117.086 4.246 118.243 4.246C119.363 4.246 120.313 5.1957 120.313 6.31585C120.313 7.47254 119.387 8.41006 118.243 8.41006C117.086 8.41006 116.148 7.47254 116.148 6.31585Z"/>
<path fill='white' d="M116.69 10.1498H119.771V25.0429H116.69V10.1498Z"/>
<path fill='white' fill-rule="evenodd" clip-rule="evenodd" d="M110.67 4.62772H113.684V25.0429L110.72 25.0429V23.3514C109.662 24.583 108.175 25.3971 106.025 25.3971C101.791 25.3971 99.0703 22.0226 99.0703 17.6052C99.0703 13.2184 101.791 9.81327 106.025 9.81327C107.836 9.81327 109.519 10.4707 110.67 11.6445V4.62772ZM110.604 14.7075C109.726 13.4089 108.243 12.6097 106.498 12.6097C103.877 12.6097 102.071 14.8289 102.071 17.6052C102.071 20.3814 103.811 22.6669 106.498 22.6669C108.293 22.6669 109.746 21.6439 110.604 20.3177V14.7075Z"/>
<path fill='white' fill-rule="evenodd" clip-rule="evenodd" d="M90.3923 25.4216C91.7372 25.4184 92.9579 25.1667 94.0544 24.6665C95.158 24.1632 96.126 23.4372 96.9584 22.4885L95.1188 20.5282L95.1145 20.5327C94.5037 21.1817 93.8163 21.6792 93.0508 22.0812C92.2922 22.4603 91.4272 22.6511 90.4535 22.6511C88.1537 22.6511 86.152 20.9183 85.8626 18.637L97.4436 18.637C97.4461 18.6038 97.4485 18.5707 97.4508 18.5375C97.4774 18.1819 97.491 17.8274 97.491 17.4694C97.491 13.2159 94.4395 9.76376 90.2169 9.76376C85.9633 9.76376 82.7578 13.1234 82.7578 17.5927C82.7578 22.1511 85.9588 25.4169 90.3923 25.4216ZM85.9362 16.0923H94.3427C94.046 14.0209 92.3424 12.4759 90.1531 12.4759C89.0569 12.4759 88.0544 12.9508 87.2966 13.6574C86.5693 14.3356 86.0733 15.2217 85.9362 16.0923Z"/>
<path fill='white' fill-rule="evenodd" clip-rule="evenodd" d="M69.684 23.5499L69.684 30.5668H66.6699L66.6699 10.1516L69.6346 10.1516L69.6346 11.8431C70.6919 10.6115 72.1792 9.79738 74.3296 9.79738C78.563 9.79738 81.2841 13.1718 81.2841 17.5893C81.2841 21.9761 78.563 25.3812 74.3296 25.3812C72.5187 25.3812 70.8349 24.7238 69.684 23.5499ZM69.7505 20.4869C70.6279 21.7856 72.1116 22.5848 73.8567 22.5848C76.4775 22.5848 78.283 20.3655 78.283 17.5893C78.283 14.8131 76.5439 12.5275 73.8567 12.5275C72.0613 12.5275 70.6086 13.5505 69.7505 14.8768L69.7505 20.4869Z"/>
<path fill='white' d="M55.9826 17.3861L50.7296 10.1507H54.4481L57.9522 15.0862L61.4562 10.1507H65.1249L59.849 17.4177L65.3693 25.0431H61.6467L57.9127 19.7723L54.1787 25.0431H50.4395L55.9826 17.3861Z"/>
<path fill='white' d="M40.8056 16.3062H48.5418V13.384H40.8056V8.07485H49.2114V5.15271H37.4395V25.043H49.2723V22.1208H40.8056V16.3062Z"/>
<path fill='white' d="M140.021 23.97C140.021 23.3739 139.545 22.8911 138.966 22.8911C138.385 22.8911 137.908 23.3739 137.908 23.97C137.908 24.5632 138.385 25.046 138.966 25.046C139.545 25.046 140.021 24.5632 140.021 23.97ZM139.786 23.97C139.786 24.438 139.422 24.8254 138.966 24.8254C138.507 24.8254 138.144 24.438 138.144 23.97C138.144 23.4991 138.507 23.1116 138.966 23.1116C139.422 23.1116 139.786 23.4991 139.786 23.97ZM139.372 23.7703C139.372 23.5587 139.211 23.4335 138.987 23.4335H138.615V24.5065H138.841V24.1191H138.928L139.172 24.5065H139.44L139.157 24.0803C139.288 24.0237 139.372 23.9104 139.372 23.7703ZM139.139 23.7763C139.139 23.8657 139.068 23.9164 138.978 23.9164H138.841V23.6392H138.978C139.068 23.6392 139.139 23.6869 139.139 23.7763Z"/>
</svg>
