<svg width="139" height="58" viewBox="0 0 139 58" fill="none" xmlns="http://www.w3.org/2000/svg">
<path d="M3.24263 4.18075L2.947 3.22842L11.3035 3.65421L11.5945 4.59189L4.94817 9.67495L4.65255 8.72262L10.2714 4.52075L10.2532 4.46215L3.24263 4.18075ZM6.28202 3.62276L7.47363 7.46137L6.66781 7.71152L5.47621 3.8729L6.28202 3.62276Z" fill="#DB1D1D"/>
<path d="M3.24263 4.18075L2.76511 4.32898L2.86978 4.66619L3.22258 4.68035L3.24263 4.18075ZM2.947 3.22842L2.97245 2.72907L2.25714 2.69262L2.46948 3.37666L2.947 3.22842ZM11.3035 3.65421L11.781 3.50598L11.6775 3.17262L11.3289 3.15486L11.3035 3.65421ZM11.5945 4.59189L11.8983 4.98905L12.1755 4.77701L12.0721 4.44365L11.5945 4.59189ZM4.94817 9.67495L4.47065 9.82319L4.68299 10.5072L5.25192 10.0721L4.94817 9.67495ZM4.65255 8.72262L4.3531 8.3222L4.07035 8.53365L4.17502 8.87086L4.65255 8.72262ZM10.2714 4.52075L10.5708 4.92117L10.8535 4.70972L10.7489 4.37252L10.2714 4.52075ZM10.2532 4.46215L10.7307 4.31391L10.626 3.97671L10.2732 3.96255L10.2532 4.46215ZM6.28202 3.62276L6.75955 3.47452L6.61131 2.997L6.13379 3.14523L6.28202 3.62276ZM7.47363 7.46137L7.62187 7.93889L8.09939 7.79066L7.95115 7.31314L7.47363 7.46137ZM6.66781 7.71152L6.19029 7.85975L6.33853 8.33727L6.81605 8.18904L6.66781 7.71152ZM5.47621 3.8729L5.32797 3.39538L4.85045 3.54362L4.99869 4.02114L5.47621 3.8729ZM3.72015 4.03251L3.42452 3.08019L2.46948 3.37666L2.76511 4.32898L3.72015 4.03251ZM2.92156 3.72777L11.278 4.15356L11.3289 3.15486L2.97245 2.72907L2.92156 3.72777ZM10.8259 3.80245L11.117 4.74012L12.0721 4.44365L11.781 3.50598L10.8259 3.80245ZM11.2908 4.19473L4.64443 9.27779L5.25192 10.0721L11.8983 4.98905L11.2908 4.19473ZM5.42569 9.52672L5.13007 8.57439L4.17502 8.87086L4.47065 9.82319L5.42569 9.52672ZM4.95199 9.12304L10.5708 4.92117L9.97191 4.12033L4.3531 8.3222L4.95199 9.12304ZM10.7489 4.37252L10.7307 4.31391L9.77564 4.61038L9.79383 4.66899L10.7489 4.37252ZM10.2732 3.96255L3.26268 3.68115L3.22258 4.68035L10.2331 4.96174L10.2732 3.96255ZM5.8045 3.77099L6.99611 7.60961L7.95115 7.31314L6.75955 3.47452L5.8045 3.77099ZM7.3254 6.98385L6.51958 7.234L6.81605 8.18904L7.62187 7.93889L7.3254 6.98385ZM7.14534 7.56328L5.95373 3.72467L4.99869 4.02114L6.19029 7.85975L7.14534 7.56328ZM5.62444 4.35042L6.43026 4.10028L6.13379 3.14523L5.32797 3.39538L5.62444 4.35042Z" fill="#DB1D1D"/>
<path d="M7.71261 16.2125L14.6553 12.5393L15.1001 13.38L8.90321 16.6587L10.6107 19.8859L9.86489 20.2805L7.71261 16.2125Z" fill="#DB1D1D"/>
<path d="M7.71261 16.2125L7.47878 15.7706L7.03682 16.0044L7.27065 16.4464L7.71261 16.2125ZM14.6553 12.5393L15.0973 12.3055L14.8634 11.8635L14.4215 12.0974L14.6553 12.5393ZM15.1001 13.38L15.3339 13.822L15.7759 13.5882L15.5421 13.1462L15.1001 13.38ZM8.90321 16.6587L8.66938 16.2167L8.22743 16.4505L8.46125 16.8925L8.90321 16.6587ZM10.6107 19.8859L10.8445 20.3279L11.2865 20.0941L11.0526 19.6521L10.6107 19.8859ZM9.86489 20.2805L9.42293 20.5144L9.65676 20.9563L10.0987 20.7225L9.86489 20.2805ZM7.94643 16.6545L14.8891 12.9813L14.4215 12.0974L7.47878 15.7706L7.94643 16.6545ZM14.2134 12.7731L14.6582 13.6139L15.5421 13.1462L15.0973 12.3055L14.2134 12.7731ZM14.8663 12.9381L8.66938 16.2167L9.13704 17.1006L15.3339 13.822L14.8663 12.9381ZM8.46125 16.8925L10.1687 20.1198L11.0526 19.6521L9.34516 16.4248L8.46125 16.8925ZM10.3769 19.444L9.63106 19.8386L10.0987 20.7225L10.8445 20.3279L10.3769 19.444ZM10.3068 20.0467L8.15456 15.9787L7.27065 16.4464L9.42293 20.5144L10.3068 20.0467Z" fill="#DB1D1D"/>
<path d="M13.9442 26.646L20.1258 21.8002L20.7126 22.5487L15.195 26.874L17.4476 29.7475L16.7835 30.268L13.9442 26.646Z" fill="#DB1D1D"/>
<path d="M13.9442 26.646L13.6357 26.2525L13.2422 26.561L13.5507 26.9545L13.9442 26.646ZM20.1258 21.8002L20.5193 21.4917L20.2108 21.0982L19.8173 21.4067L20.1258 21.8002ZM20.7126 22.5487L21.021 22.9422L21.4145 22.6338L21.1061 22.2403L20.7126 22.5487ZM15.195 26.874L14.8866 26.4805L14.493 26.789L14.8015 27.1825L15.195 26.874ZM17.4476 29.7475L17.756 30.141L18.1495 29.8325L17.8411 29.439L17.4476 29.7475ZM16.7835 30.268L16.39 30.5765L16.6985 30.97L17.092 30.6615L16.7835 30.268ZM14.2527 27.0395L20.4342 22.1937L19.8173 21.4067L13.6357 26.2525L14.2527 27.0395ZM19.7323 22.1087L20.3191 22.8572L21.1061 22.2403L20.5193 21.4917L19.7323 22.1087ZM20.4041 22.1552L14.8866 26.4805L15.5035 27.2675L21.021 22.9422L20.4041 22.1552ZM14.8015 27.1825L17.0541 30.0559L17.8411 29.439L15.5885 26.5655L14.8015 27.1825ZM17.1391 29.354L16.4751 29.8745L17.092 30.6615L17.756 30.141L17.1391 29.354ZM17.177 29.9595L14.3377 26.3375L13.5507 26.9545L16.39 30.5765L17.177 29.9595Z" fill="#DB1D1D"/>
<path d="M28.9124 41.6723L33.3088 35.1635L35.5081 36.649C36.0166 36.9925 36.3753 37.3613 36.5842 37.7554C36.7946 38.1474 36.8766 38.5468 36.8301 38.9536C36.7837 39.3603 36.631 39.7555 36.3719 40.139C36.1129 40.5225 35.8048 40.8096 35.4477 41.0003C35.0905 41.191 34.6926 41.2617 34.2539 41.2122C33.8167 41.1606 33.346 40.9645 32.8417 40.6239L31.0619 39.4218L31.5428 38.7099L33.2971 39.8948C33.6446 40.1295 33.9586 40.2676 34.2392 40.309C34.5219 40.3518 34.7739 40.3122 34.9952 40.1902C35.22 40.0675 35.4204 39.8758 35.5965 39.6152C35.7725 39.3546 35.8776 39.0939 35.9118 38.8331C35.946 38.5724 35.8919 38.3167 35.7494 38.0663C35.6084 37.8137 35.3621 37.5686 35.0104 37.331L33.6247 36.3951L29.7005 42.2047L28.9124 41.6723ZM33.951 40.8178L33.5779 44.8237L32.6626 44.2054L33.0612 40.2168L33.951 40.8178Z" fill="#DB1D1D"/>
<path d="M28.9124 41.6723L28.498 41.3925L28.2182 41.8068L28.6325 42.0867L28.9124 41.6723ZM33.3088 35.1635L33.5886 34.7491L33.1743 34.4693L32.8944 34.8836L33.3088 35.1635ZM36.5842 37.7554L36.1424 37.9896L36.1436 37.9918L36.5842 37.7554ZM36.8301 38.9536L36.3334 38.8969L36.3334 38.8969L36.8301 38.9536ZM35.4477 41.0003L35.2121 40.5592L35.2121 40.5592L35.4477 41.0003ZM34.2539 41.2122L34.1954 41.7088L34.1979 41.709L34.2539 41.2122ZM31.0619 39.4218L30.6476 39.1419L30.3677 39.5562L30.7821 39.8361L31.0619 39.4218ZM31.5428 38.7099L31.8227 38.2955L31.4083 38.0157L31.1285 38.43L31.5428 38.7099ZM34.2392 40.309L34.3141 39.8146L34.3122 39.8144L34.2392 40.309ZM34.9952 40.1902L34.7556 39.7513L34.7537 39.7524L34.9952 40.1902ZM35.7494 38.0663L35.3128 38.31L35.3148 38.3134L35.7494 38.0663ZM33.6247 36.3951L33.9045 35.9807L33.4902 35.7009L33.2103 36.1152L33.6247 36.3951ZM29.7005 42.2047L29.4207 42.6191L29.835 42.8989L30.1149 42.4846L29.7005 42.2047ZM33.951 40.8178L34.4489 40.8642L34.4764 40.5693L34.2309 40.4035L33.951 40.8178ZM33.5779 44.8237L33.298 45.238L33.9974 45.7104L34.0757 44.8701L33.5779 44.8237ZM32.6626 44.2054L32.1651 44.1557L32.1354 44.4527L32.3827 44.6198L32.6626 44.2054ZM33.0612 40.2168L33.341 39.8024L32.6469 39.3336L32.5636 40.1671L33.0612 40.2168ZM29.3267 41.9522L33.7231 35.4433L32.8944 34.8836L28.498 41.3925L29.3267 41.9522ZM33.0289 35.5778L35.2282 37.0633L35.7879 36.2347L33.5886 34.7491L33.0289 35.5778ZM35.2282 37.0633C35.693 37.3773 35.9836 37.6899 36.1425 37.9896L37.026 37.5212C36.767 37.0326 36.3401 36.6076 35.7879 36.2347L35.2282 37.0633ZM36.1436 37.9918C36.3103 38.3023 36.3672 38.6001 36.3334 38.8969L37.3269 39.0103C37.3859 38.4935 37.2789 37.9925 37.0248 37.519L36.1436 37.9918ZM36.3334 38.8969C36.2972 39.2138 36.1775 39.5335 35.9576 39.8591L36.7863 40.4188C37.0844 39.9774 37.2702 39.5069 37.3269 39.0103L36.3334 38.8969ZM35.9576 39.8591C35.7376 40.1848 35.4877 40.4121 35.2121 40.5592L35.6832 41.4413C36.1219 41.2071 36.4882 40.8601 36.7863 40.4188L35.9576 39.8591ZM35.2121 40.5592C34.9524 40.698 34.6576 40.7545 34.31 40.7153L34.1979 41.709C34.7277 41.7688 35.2287 41.6841 35.6832 41.4413L35.2121 40.5592ZM34.3125 40.7156C33.979 40.6763 33.5836 40.5217 33.1216 40.2096L32.5618 41.0383C33.1083 41.4074 33.6545 41.6449 34.1954 41.7088L34.3125 40.7156ZM33.1216 40.2096L31.3418 39.0074L30.7821 39.8361L32.5618 41.0383L33.1216 40.2096ZM31.4763 39.7016L31.9571 38.9897L31.1285 38.43L30.6476 39.1419L31.4763 39.7016ZM31.2629 39.1242L33.0173 40.3092L33.577 39.4805L31.8227 38.2955L31.2629 39.1242ZM33.0173 40.3092C33.3995 40.5674 33.7847 40.7473 34.1662 40.8036L34.3122 39.8144C34.1326 39.7878 33.8897 39.6917 33.577 39.4805L33.0173 40.3092ZM34.1643 40.8034C34.5408 40.8604 34.9065 40.8101 35.2366 40.628L34.7537 39.7524C34.6413 39.8144 34.503 39.8433 34.3141 39.8147L34.1643 40.8034ZM35.2347 40.6291C35.5439 40.4603 35.8001 40.207 36.0108 39.895L35.1821 39.3353C35.0408 39.5446 34.8961 39.6746 34.7556 39.7513L35.2347 40.6291ZM36.0108 39.895C36.2218 39.5826 36.3615 39.2495 36.4076 38.8981L35.416 38.7681C35.3937 38.9382 35.3231 39.1265 35.1821 39.3353L36.0108 39.895ZM36.4076 38.8981C36.4573 38.519 36.3749 38.1546 36.1841 37.8191L35.3148 38.3134C35.4089 38.4788 35.4347 38.6257 35.416 38.7681L36.4076 38.8981ZM36.186 37.8225C35.9932 37.4772 35.6788 37.1791 35.2902 36.9167L34.7305 37.7453C35.0453 37.958 35.2236 38.1501 35.3129 38.31L36.186 37.8225ZM35.2902 36.9167L33.9045 35.9807L33.3448 36.8094L34.7305 37.7453L35.2902 36.9167ZM33.2103 36.1152L29.2862 41.9249L30.1149 42.4846L34.039 36.6749L33.2103 36.1152ZM29.9804 41.7904L29.1922 41.258L28.6325 42.0867L29.4207 42.6191L29.9804 41.7904ZM33.4532 40.7715L33.08 44.7773L34.0757 44.8701L34.4489 40.8642L33.4532 40.7715ZM33.8577 44.4093L32.9424 43.7911L32.3827 44.6198L33.298 45.238L33.8577 44.4093ZM33.1601 44.2552L33.5587 40.2665L32.5636 40.1671L32.1651 44.1557L33.1601 44.2552ZM32.7813 40.6311L33.6712 41.2322L34.2309 40.4035L33.341 39.8024L32.7813 40.6311Z" fill="#DB1D1D"/>
<path d="M39.3216 47.9443L42.4945 40.7592L46.8308 42.6741L46.49 43.4459L43.0237 41.9153L41.9516 44.343L45.1934 45.7746L44.8525 46.5464L41.6108 45.1149L40.5325 47.5567L44.0549 49.1122L43.714 49.884L39.3216 47.9443Z" fill="#DB1D1D"/>
<path d="M39.3216 47.9443L38.8642 47.7424L38.6622 48.1997L39.1196 48.4017L39.3216 47.9443ZM42.4945 40.7592L42.6965 40.3018L42.2391 40.0998L42.0371 40.5572L42.4945 40.7592ZM46.8308 42.6741L47.2882 42.8761L47.4902 42.4187L47.0328 42.2167L46.8308 42.6741ZM46.49 43.4459L46.288 43.9033L46.7454 44.1053L46.9474 43.6479L46.49 43.4459ZM43.0237 41.9153L43.2257 41.4579L42.7683 41.2559L42.5663 41.7133L43.0237 41.9153ZM41.9516 44.343L41.4942 44.1411L41.2923 44.5985L41.7496 44.8004L41.9516 44.343ZM45.1934 45.7746L45.6507 45.9766L45.8527 45.5192L45.3953 45.3172L45.1934 45.7746ZM44.8525 46.5464L44.6505 47.0038L45.1079 47.2058L45.3099 46.7484L44.8525 46.5464ZM41.6108 45.1149L41.8128 44.6575L41.3554 44.4555L41.1534 44.9129L41.6108 45.1149ZM40.5325 47.5567L40.0751 47.3547L39.8731 47.8121L40.3305 48.0141L40.5325 47.5567ZM44.0549 49.1122L44.5123 49.3142L44.7143 48.8568L44.2569 48.6548L44.0549 49.1122ZM43.714 49.884L43.5121 50.3414L43.9695 50.5434L44.1714 50.086L43.714 49.884ZM39.779 48.1463L42.9519 40.9612L42.0371 40.5572L38.8642 47.7424L39.779 48.1463ZM42.2925 41.2166L46.6289 43.1315L47.0328 42.2167L42.6965 40.3018L42.2925 41.2166ZM46.3734 42.4721L46.0326 43.244L46.9474 43.6479L47.2882 42.8761L46.3734 42.4721ZM46.692 42.9886L43.2257 41.4579L42.8217 42.3726L46.288 43.9033L46.692 42.9886ZM42.5663 41.7133L41.4942 44.1411L42.409 44.545L43.4811 42.1172L42.5663 41.7133ZM41.7496 44.8004L44.9914 46.232L45.3953 45.3172L42.1536 43.8857L41.7496 44.8004ZM44.736 45.5726L44.3951 46.3444L45.3099 46.7484L45.6507 45.9766L44.736 45.5726ZM45.0545 46.089L41.8128 44.6575L41.4088 45.5723L44.6505 47.0038L45.0545 46.089ZM41.1534 44.9129L40.0751 47.3547L40.9899 47.7587L42.0682 45.3169L41.1534 44.9129ZM40.3305 48.0141L43.8529 49.5696L44.2569 48.6548L40.7345 47.0993L40.3305 48.0141ZM43.5975 48.9102L43.2567 49.6821L44.1714 50.086L44.5123 49.3142L43.5975 48.9102ZM43.916 49.4266L39.5235 47.487L39.1196 48.4017L43.5121 50.3414L43.916 49.4266Z" fill="#DB1D1D"/>
<path d="M56.2392 47.5575C56.286 47.1689 56.1756 46.8318 55.9081 46.546C55.6406 46.2602 55.2757 46.0613 54.8135 45.9494C54.4755 45.8676 54.1666 45.8506 53.8866 45.8985C53.6092 45.9471 53.3764 46.0499 53.1885 46.2069C53.003 46.3646 52.8807 46.5652 52.8217 46.8087C52.7724 47.0124 52.7784 47.1994 52.8398 47.3695C52.9043 47.5377 53.0018 47.6889 53.1324 47.8231C53.2636 47.9548 53.4062 48.0722 53.5601 48.1753C53.7147 48.2759 53.8582 48.3619 53.9909 48.4335L54.7156 48.83C54.9018 48.9304 55.1055 49.056 55.3267 49.2069C55.5505 49.3585 55.7549 49.5408 55.94 49.754C56.1283 49.9653 56.2659 50.2118 56.3529 50.4933C56.4399 50.7748 56.4401 51.0945 56.3535 51.4523C56.2535 51.8648 56.0552 52.2114 55.7583 52.492C55.464 52.7732 55.0868 52.9621 54.6267 53.0585C54.1692 53.1555 53.6471 53.133 53.0607 52.9909C52.514 52.8585 52.062 52.6556 51.7046 52.3823C51.3498 52.1096 51.0962 51.7877 50.9441 51.4168C50.7944 51.0464 50.7552 50.6489 50.8265 50.2242L51.7807 50.4553C51.7357 50.7496 51.7749 51.0116 51.8981 51.2414C52.0244 51.4693 52.2069 51.6608 52.4456 51.8159C52.6873 51.9692 52.9597 52.0825 53.2629 52.156C53.6158 52.2414 53.9465 52.261 54.2549 52.2147C54.564 52.1659 54.8256 52.0583 55.0395 51.8917C55.2541 51.7227 55.3951 51.4991 55.4625 51.2207C55.5239 50.9673 55.503 50.7439 55.3999 50.5505C55.2968 50.3572 55.1417 50.1828 54.9346 50.0275C54.7276 49.8721 54.4989 49.7246 54.2486 49.5851L53.3743 49.0892C52.8194 48.7733 52.4066 48.4142 52.1357 48.0118C51.8649 47.6095 51.7917 47.1511 51.9163 46.6367C52.0198 46.2093 52.2257 45.8646 52.5338 45.6025C52.845 45.3385 53.2183 45.1658 53.6537 45.0845C54.0921 45.0013 54.5549 45.0186 55.0419 45.1366C55.534 45.2558 55.9499 45.4499 56.2899 45.719C56.6304 45.9857 56.8758 46.2976 57.0261 46.655C57.1788 47.0129 57.2147 47.386 57.1338 47.7741L56.2392 47.5575Z" fill="#DB1D1D"/>
<path d="M56.2392 47.5575L55.7428 47.4977L55.6897 47.9388L56.1215 48.0434L56.2392 47.5575ZM55.9081 46.546L55.5431 46.8877L55.5431 46.8877L55.9081 46.546ZM53.8866 45.8985L53.8022 45.4057L53.8005 45.406L53.8866 45.8985ZM53.1885 46.2069L52.8679 45.8232L52.8647 45.8259L53.1885 46.2069ZM52.8398 47.3695L52.3694 47.5393L52.373 47.5485L52.8398 47.3695ZM53.1324 47.8231L52.7741 48.1718L52.7782 48.1759L53.1324 47.8231ZM53.5601 48.1753L53.282 48.5908L53.2874 48.5944L53.5601 48.1753ZM53.9909 48.4335L54.2308 47.9949L54.2284 47.9935L53.9909 48.4335ZM54.7156 48.83L54.4756 49.2687L54.4784 49.2702L54.7156 48.83ZM55.3267 49.2069L55.045 49.62L55.0464 49.6209L55.3267 49.2069ZM55.94 49.754L55.5625 50.0819L55.5667 50.0866L55.94 49.754ZM56.3529 50.4933L56.8306 50.3456L56.8306 50.3456L56.3529 50.4933ZM55.7583 52.492L55.4148 52.1287L55.4129 52.1305L55.7583 52.492ZM54.6267 53.0585L54.5242 52.5691L54.523 52.5693L54.6267 53.0585ZM51.7046 52.3823L51.3999 52.7787L51.4009 52.7794L51.7046 52.3823ZM50.9441 51.4168L50.4805 51.6041L50.4815 51.6065L50.9441 51.4168ZM50.8265 50.2242L50.9442 49.7382L50.4223 49.6118L50.3334 50.1414L50.8265 50.2242ZM51.7807 50.4553L52.2749 50.5308L52.3442 50.0773L51.8984 49.9693L51.7807 50.4553ZM51.8981 51.2414L51.4574 51.4777L51.4608 51.4838L51.8981 51.2414ZM52.4456 51.8159L52.173 52.2352L52.1778 52.2382L52.4456 51.8159ZM54.2549 52.2147L54.3292 52.7092L54.3329 52.7086L54.2549 52.2147ZM55.0395 51.8917L55.3466 52.2863L55.3489 52.2845L55.0395 51.8917ZM55.3999 50.5505L55.841 50.3152L55.841 50.3152L55.3999 50.5505ZM54.9346 50.0275L54.6345 50.4274L54.6345 50.4274L54.9346 50.0275ZM54.2486 49.5851L54.002 50.02L54.0052 50.0218L54.2486 49.5851ZM53.3743 49.0892L53.1269 49.5237L53.1276 49.5241L53.3743 49.0892ZM52.1357 48.0118L51.721 48.2911L51.721 48.2911L52.1357 48.0118ZM52.5338 45.6025L52.2104 45.2212L52.2098 45.2216L52.5338 45.6025ZM53.6537 45.0845L53.7455 45.576L53.7469 45.5757L53.6537 45.0845ZM56.2899 45.719L55.9795 46.1111L55.9817 46.1127L56.2899 45.719ZM57.0261 46.655L56.5651 46.8487L56.5662 46.8512L57.0261 46.655ZM57.1338 47.7741L57.0161 48.2601L57.518 48.3816L57.6233 47.8761L57.1338 47.7741ZM56.7357 47.6172C56.8001 47.082 56.6415 46.5979 56.2731 46.2043L55.5431 46.8877C55.7097 47.0657 55.7719 47.2559 55.7428 47.4977L56.7357 47.6172ZM56.2731 46.2043C55.9259 45.8333 55.4676 45.5934 54.9312 45.4635L54.6958 46.4354C55.0838 46.5293 55.3553 46.6871 55.5431 46.8877L56.2731 46.2043ZM54.9312 45.4635C54.5415 45.3691 54.1626 45.344 53.8022 45.4057L53.971 46.3914C54.1706 46.3572 54.4096 46.366 54.6958 46.4354L54.9312 45.4635ZM53.8005 45.406C53.4498 45.4674 53.1327 45.602 52.8679 45.8232L53.509 46.5907C53.6202 46.4978 53.7685 46.4268 53.9728 46.3911L53.8005 45.406ZM52.8647 45.8259C52.5962 46.0541 52.4189 46.348 52.3358 46.691L53.3077 46.9264C53.3426 46.7823 53.4098 46.675 53.5122 46.5879L52.8647 45.8259ZM52.3358 46.691C52.2671 46.9745 52.2698 47.2629 52.3695 47.5392L53.3101 47.1997C53.287 47.1358 53.2776 47.0504 53.3077 46.9264L52.3358 46.691ZM52.373 47.5485C52.4627 47.7825 52.5981 47.9909 52.7741 48.1718L53.4908 47.4744C53.4056 47.3869 53.3459 47.2928 53.3067 47.1905L52.373 47.5485ZM52.7782 48.1759C52.9325 48.3309 53.1006 48.4693 53.282 48.5908L53.8383 47.7598C53.7118 47.6752 53.5948 47.5788 53.4867 47.4703L52.7782 48.1759ZM53.2874 48.5944C53.451 48.7008 53.6064 48.7942 53.7534 48.8735L54.2284 47.9935C54.1101 47.9297 53.9784 47.8509 53.8329 47.7562L53.2874 48.5944ZM53.7509 48.8722L54.4756 49.2687L54.9556 48.3914L54.2308 47.9949L53.7509 48.8722ZM54.4784 49.2702C54.6459 49.3604 54.8345 49.4764 55.045 49.62L55.6085 48.7939C55.3765 48.6356 55.1577 48.5003 54.9528 48.3899L54.4784 49.2702ZM55.0464 49.6209C55.2325 49.747 55.4046 49.9 55.5625 50.0818L56.3176 49.4262C56.1052 49.1816 55.8684 48.9699 55.6071 48.7929L55.0464 49.6209ZM55.5667 50.0866C55.7053 50.2422 55.8084 50.4249 55.8752 50.641L56.8306 50.3456C56.7233 49.9986 56.5512 49.6885 56.3134 49.4215L55.5667 50.0866ZM55.8752 50.641C55.9297 50.8173 55.9382 51.0427 55.8675 51.3346L56.8394 51.57C56.942 51.1463 56.9501 50.7323 56.8306 50.3456L55.8752 50.641ZM55.8675 51.3346C55.7894 51.6571 55.6386 51.9171 55.4148 52.1287L56.1018 52.8554C56.4717 52.5057 56.7177 52.0726 56.8394 51.57L55.8675 51.3346ZM55.4129 52.1305C55.1959 52.3378 54.9073 52.4888 54.5242 52.5691L54.7293 53.5478C55.2662 53.4353 55.732 53.2087 56.1037 52.8535L55.4129 52.1305ZM54.523 52.5693C54.1566 52.647 53.7125 52.6343 53.1784 52.505L52.943 53.4769C53.5818 53.6316 54.1817 53.6639 54.7304 53.5476L54.523 52.5693ZM53.1784 52.505C52.6828 52.3849 52.2986 52.2071 52.0084 51.9852L51.4009 52.7794C51.8254 53.1041 52.3452 53.3321 52.943 53.4769L53.1784 52.505ZM52.0093 51.9859C51.7161 51.7605 51.5216 51.5072 51.4067 51.227L50.4815 51.6065C50.6709 52.0683 50.9835 52.4587 51.3999 52.7787L52.0093 51.9859ZM51.4076 51.2294C51.2952 50.9513 51.2623 50.648 51.3196 50.307L50.3334 50.1414C50.248 50.6498 50.2935 51.1415 50.4805 51.6041L51.4076 51.2294ZM50.7088 50.7101L51.663 50.9412L51.8984 49.9693L50.9442 49.7382L50.7088 50.7101ZM51.2864 50.3798C51.2275 50.7652 51.276 51.1393 51.4575 51.4777L52.3387 51.0051C52.2737 50.8839 52.2439 50.7339 52.2749 50.5308L51.2864 50.3798ZM51.4608 51.4838C51.6303 51.7897 51.8723 52.0396 52.173 52.2352L52.7181 51.3967C52.5415 51.282 52.4185 51.1489 52.3354 50.999L51.4608 51.4838ZM52.1778 52.2382C52.4697 52.4233 52.7937 52.5568 53.1452 52.6419L53.3806 51.67C53.1258 51.6083 52.9049 51.5151 52.7133 51.3937L52.1778 52.2382ZM53.1452 52.6419C53.5507 52.7401 53.9472 52.7665 54.3292 52.7092L54.1807 51.7203C53.9457 51.7555 53.6808 51.7427 53.3806 51.67L53.1452 52.6419ZM54.3329 52.7086C54.7125 52.6487 55.0562 52.5123 55.3466 52.2863L54.7324 51.4972C54.5949 51.6042 54.4155 51.6832 54.177 51.7208L54.3329 52.7086ZM55.3489 52.2845C55.656 52.0427 55.856 51.72 55.9484 51.3384L54.9765 51.103C54.9341 51.2782 54.8522 51.4028 54.7301 51.499L55.3489 52.2845ZM55.9484 51.3384C56.0329 50.9897 56.0125 50.6367 55.841 50.3152L54.9587 50.7858C54.9935 50.8511 55.0148 50.9449 54.9765 51.103L55.9484 51.3384ZM55.841 50.3152C55.6978 50.0467 55.4898 49.8189 55.2348 49.6275L54.6345 50.4274C54.7936 50.5467 54.8957 50.6677 54.9587 50.7858L55.841 50.3152ZM55.2348 49.6275C55.0079 49.4573 54.76 49.2977 54.4921 49.1484L54.0052 50.0218C54.2378 50.1515 54.4473 50.2869 54.6345 50.4274L55.2348 49.6275ZM54.4953 49.1502L53.621 48.6543L53.1276 49.5241L54.002 50.02L54.4953 49.1502ZM53.6217 48.6547C53.1135 48.3653 52.7669 48.054 52.5505 47.7326L51.721 48.2911C52.0463 48.7743 52.5254 49.1812 53.1269 49.5237L53.6217 48.6547ZM52.5505 47.7326C52.3657 47.4581 52.3074 47.1463 52.4023 46.7544L51.4304 46.519C51.2761 47.156 51.3641 47.7609 51.721 48.2911L52.5505 47.7326ZM52.4023 46.7544C52.4832 46.4202 52.6371 46.171 52.8578 45.9833L52.2098 45.2216C51.8142 45.5582 51.5565 45.9984 51.4304 46.519L52.4023 46.7544ZM52.8572 45.9838C53.0966 45.7808 53.3881 45.6427 53.7455 45.576L53.5619 44.593C53.0485 44.6889 52.5935 44.8962 52.2104 45.2212L52.8572 45.9838ZM53.7469 45.5757C54.1073 45.5073 54.4978 45.5193 54.9242 45.6225L55.1596 44.6506C54.612 44.518 54.0769 44.4952 53.5604 44.5932L53.7469 45.5757ZM54.9242 45.6225C55.3577 45.7275 55.705 45.8937 55.9796 46.111L56.6002 45.327C56.1949 45.0061 55.7102 44.784 55.1596 44.6506L54.9242 45.6225ZM55.9817 46.1127C56.263 46.333 56.4516 46.5788 56.5651 46.8487L57.487 46.4612C57.3 46.0165 56.9979 45.6383 56.5981 45.3253L55.9817 46.1127ZM56.5662 46.8512C56.6779 47.1132 56.7048 47.382 56.6443 47.6722L57.6233 47.8761C57.7246 47.3899 57.6796 46.9126 57.486 46.4588L56.5662 46.8512ZM57.2515 47.2882L56.3569 47.0715L56.1215 48.0434L57.0161 48.2601L57.2515 47.2882Z" fill="#DB1D1D"/>
<path d="M62.6087 47.4935L62.6588 46.6512L68.5393 47.0009L68.4892 47.8432L66.0237 47.6966L65.6075 54.695L64.658 54.6385L65.0743 47.6401L62.6087 47.4935Z" fill="#DB1D1D"/>
<path d="M62.6087 47.4935L62.1096 47.4638L62.0799 47.9629L62.579 47.9926L62.6087 47.4935ZM62.6588 46.6512L62.6885 46.1521L62.1894 46.1224L62.1597 46.6215L62.6588 46.6512ZM68.5393 47.0009L69.0385 47.0306L69.0681 46.5315L68.569 46.5018L68.5393 47.0009ZM68.4892 47.8432L68.4596 48.3423L68.9587 48.372L68.9884 47.8729L68.4892 47.8432ZM66.0237 47.6966L66.0534 47.1974L65.5543 47.1678L65.5246 47.6669L66.0237 47.6966ZM65.6075 54.695L65.5778 55.1941L66.0769 55.2238L66.1066 54.7247L65.6075 54.695ZM64.658 54.6385L64.1589 54.6088L64.1292 55.1079L64.6283 55.1376L64.658 54.6385ZM65.0743 47.6401L65.5734 47.6698L65.6031 47.1707L65.1039 47.141L65.0743 47.6401ZM63.1078 47.5231L63.1579 46.6809L62.1597 46.6215L62.1096 47.4638L63.1078 47.5231ZM62.6291 47.1503L68.5097 47.5001L68.569 46.5018L62.6885 46.1521L62.6291 47.1503ZM68.0402 46.9713L67.9901 47.8135L68.9884 47.8729L69.0385 47.0306L68.0402 46.9713ZM68.5189 47.3441L66.0534 47.1974L65.994 48.1957L68.4596 48.3423L68.5189 47.3441ZM65.5246 47.6669L65.1084 54.6653L66.1066 54.7247L66.5228 47.7262L65.5246 47.6669ZM65.6372 54.1959L64.6877 54.1394L64.6283 55.1376L65.5778 55.1941L65.6372 54.1959ZM65.1571 54.6682L65.5734 47.6698L64.5751 47.6104L64.1589 54.6088L65.1571 54.6682ZM65.1039 47.141L62.6384 46.9943L62.579 47.9926L65.0446 48.1392L65.1039 47.141Z" fill="#DB1D1D"/>
<path d="M75.1025 54.5894L74.1133 54.7149L75.9855 46.5598L76.9595 46.4362L80.8095 53.8651L79.8203 53.9906L76.6594 47.7268L76.5985 47.7346L75.1025 54.5894ZM75.0814 51.4993L79.0688 50.9932L79.175 51.8303L75.1877 52.3363L75.0814 51.4993Z" fill="#DB1D1D"/>
<path d="M75.1025 54.5894L75.1654 55.0854L75.5157 55.041L75.591 54.696L75.1025 54.5894ZM74.1133 54.7149L73.6259 54.6031L73.4657 55.3011L74.1762 55.211L74.1133 54.7149ZM75.9855 46.5598L75.9225 46.0638L75.5763 46.1077L75.4982 46.4479L75.9855 46.5598ZM76.9595 46.4362L77.4034 46.2061L77.2428 45.8962L76.8965 45.9402L76.9595 46.4362ZM80.8095 53.8651L80.8725 54.3611L81.583 54.2709L81.2535 53.635L80.8095 53.8651ZM79.8203 53.9906L79.3739 54.2159L79.533 54.5311L79.8833 54.4867L79.8203 53.9906ZM76.6594 47.7268L77.1058 47.5016L76.9467 47.1864L76.5964 47.2308L76.6594 47.7268ZM76.5985 47.7346L76.5355 47.2386L76.1853 47.283L76.11 47.628L76.5985 47.7346ZM75.0814 51.4993L75.0185 51.0033L74.5225 51.0662L74.5854 51.5622L75.0814 51.4993ZM79.0688 50.9932L79.5648 50.9303L79.5018 50.4343L79.0058 50.4972L79.0688 50.9932ZM79.175 51.8303L79.238 52.3263L79.734 52.2633L79.671 51.7673L79.175 51.8303ZM75.1877 52.3363L74.6916 52.3993L74.7546 52.8953L75.2506 52.8323L75.1877 52.3363ZM75.0395 54.0934L74.0503 54.2189L74.1762 55.211L75.1654 55.0854L75.0395 54.0934ZM74.6006 54.8268L76.4728 46.6717L75.4982 46.4479L73.6259 54.6031L74.6006 54.8268ZM76.0484 47.0558L77.0224 46.9322L76.8965 45.9402L75.9225 46.0638L76.0484 47.0558ZM76.5156 46.6662L80.3656 54.0952L81.2535 53.635L77.4034 46.2061L76.5156 46.6662ZM80.7466 53.3691L79.7574 53.4946L79.8833 54.4867L80.8725 54.3611L80.7466 53.3691ZM80.2667 53.7654L77.1058 47.5016L76.213 47.9521L79.3739 54.2159L80.2667 53.7654ZM76.5964 47.2308L76.5355 47.2386L76.6615 48.2306L76.7223 48.2229L76.5964 47.2308ZM76.11 47.628L74.614 54.4828L75.591 54.696L77.087 47.8412L76.11 47.628ZM75.1444 51.9953L79.1317 51.4893L79.0058 50.4972L75.0185 51.0033L75.1444 51.9953ZM78.5728 51.0562L78.679 51.8932L79.671 51.7673L79.5648 50.9303L78.5728 51.0562ZM79.1121 51.3343L75.1247 51.8403L75.2506 52.8323L79.238 52.3263L79.1121 51.3343ZM75.6837 52.2734L75.5775 51.4363L74.5854 51.5622L74.6916 52.3993L75.6837 52.2734Z" fill="#DB1D1D"/>
<path d="M90.1161 43.2249L91.0169 42.9196L92.686 47.8451C92.8583 48.3536 92.8923 48.8482 92.788 49.329C92.6853 49.8066 92.4561 50.2338 92.1006 50.6108C91.7443 50.9853 91.2744 51.2714 90.6908 51.4692C90.1072 51.667 89.5601 51.7255 89.0495 51.6448C88.5381 51.5616 88.0952 51.3621 87.7209 51.0462C87.3482 50.727 87.0757 50.3132 86.9033 49.8047L85.2342 44.8792L86.135 44.574L87.7795 49.4268C87.9026 49.79 88.0921 50.0862 88.3479 50.3154C88.6029 50.5421 88.9056 50.6865 89.2561 50.7487C89.6081 50.8075 89.9911 50.7668 90.4052 50.6265C90.8193 50.4862 91.1482 50.2856 91.3919 50.0249C91.6347 49.7617 91.7873 49.463 91.8495 49.1288C91.9133 48.7913 91.8836 48.4409 91.7606 48.0777L90.1161 43.2249Z" fill="#DB1D1D"/>
<path d="M90.1161 43.2249L89.9556 42.7513L89.482 42.9118L89.6425 43.3854L90.1161 43.2249ZM91.0169 42.9196L91.4904 42.7592L91.3299 42.2856L90.8564 42.4461L91.0169 42.9196ZM92.788 49.329L92.2994 49.223L92.2992 49.2239L92.788 49.329ZM92.1006 50.6108L92.4629 50.9554L92.4644 50.9538L92.1006 50.6108ZM89.0495 51.6448L88.9692 52.1383L88.9714 52.1386L89.0495 51.6448ZM87.7209 51.0462L87.3957 51.426L87.3984 51.4283L87.7209 51.0462ZM85.2342 44.8792L85.0737 44.4057L84.6002 44.5662L84.7607 45.0397L85.2342 44.8792ZM86.135 44.574L86.6086 44.4135L86.4481 43.94L85.9746 44.1004L86.135 44.574ZM88.3479 50.3154L88.0143 50.6878L88.0157 50.689L88.3479 50.3154ZM89.2561 50.7487L89.1688 51.241L89.1736 51.2418L89.2561 50.7487ZM91.3919 50.0249L91.7572 50.3663L91.7593 50.364L91.3919 50.0249ZM91.8495 49.1288L91.3582 49.0359L91.3579 49.0373L91.8495 49.1288ZM90.2765 43.6984L91.1773 43.3932L90.8564 42.4461L89.9556 42.7513L90.2765 43.6984ZM90.5433 43.0801L92.2124 48.0055L93.1595 47.6846L91.4904 42.7592L90.5433 43.0801ZM92.2124 48.0055C92.3584 48.4363 92.3827 48.8388 92.2994 49.223L93.2766 49.4351C93.4019 48.8577 93.3582 48.2708 93.1595 47.6846L92.2124 48.0055ZM92.2992 49.2239C92.2168 49.6067 92.0337 49.953 91.7369 50.2677L92.4644 50.9538C92.8785 50.5147 93.1537 50.0065 93.2768 49.4342L92.2992 49.2239ZM91.7384 50.2661C91.4477 50.5717 91.0518 50.8189 90.5303 50.9957L90.8512 51.9428C91.4969 51.724 92.041 51.3989 92.4629 50.9554L91.7384 50.2661ZM90.5303 50.9957C90.0087 51.1724 89.5442 51.2168 89.1276 51.1509L88.9714 52.1386C89.576 52.2342 90.2056 52.1615 90.8512 51.9428L90.5303 50.9957ZM89.1297 51.1512C88.7023 51.0817 88.3445 50.9182 88.0434 50.6641L87.3984 51.4283C87.846 51.806 88.3739 52.0415 88.9692 52.1383L89.1297 51.1512ZM88.0461 50.6664C87.748 50.4111 87.5232 50.0759 87.3769 49.6442L86.4298 49.9652C86.6281 50.5505 86.9484 51.043 87.3957 51.426L88.0461 50.6664ZM87.3769 49.6442L85.7078 44.7188L84.7607 45.0397L86.4298 49.9652L87.3769 49.6442ZM85.3947 45.3528L86.2955 45.0475L85.9746 44.1004L85.0737 44.4057L85.3947 45.3528ZM85.6615 44.7345L87.306 49.5872L88.2531 49.2663L86.6086 44.4135L85.6615 44.7345ZM87.306 49.5872C87.4534 50.0223 87.6871 50.3947 88.0143 50.6878L88.6815 49.9429C88.497 49.7777 88.3518 49.5577 88.2531 49.2663L87.306 49.5872ZM88.0157 50.689C88.3428 50.9799 88.7314 51.1634 89.1688 51.241L89.3433 50.2563C89.0799 50.2096 88.863 50.1043 88.6801 49.9417L88.0157 50.689ZM89.1736 51.2418C89.6233 51.317 90.0908 51.261 90.5657 51.1001L90.2447 50.153C89.8914 50.2727 89.5928 50.2981 89.3386 50.2555L89.1736 51.2418ZM90.5657 51.1001C91.0405 50.9391 91.4458 50.6994 91.7572 50.3663L91.0266 49.6835C90.8505 49.8719 90.5981 50.0332 90.2447 50.153L90.5657 51.1001ZM91.7593 50.364C92.0625 50.0355 92.2607 49.6521 92.341 49.2202L91.3579 49.0373C91.3139 49.2739 91.207 49.4879 91.0244 49.6858L91.7593 50.364ZM92.3408 49.2216C92.4224 48.7901 92.3815 48.3523 92.2341 47.9172L91.287 48.2382C91.3858 48.5296 91.4042 48.7925 91.3582 49.0359L92.3408 49.2216ZM92.2341 47.9172L90.5896 43.0644L89.6425 43.3854L91.287 48.2382L92.2341 47.9172Z" fill="#DB1D1D"/>
<path d="M100.897 47.0427L96.9952 40.2256L99.2986 38.9073C99.8312 38.6025 100.32 38.4433 100.766 38.4297C101.211 38.4139 101.606 38.5165 101.95 38.7377C102.295 38.9588 102.582 39.2702 102.812 39.6719C103.042 40.0735 103.163 40.4767 103.177 40.8813C103.19 41.286 103.078 41.6742 102.84 42.0461C102.601 42.4157 102.217 42.7516 101.689 43.0539L99.8253 44.1207L99.3986 43.3751L101.236 42.3235C101.6 42.1152 101.862 41.8943 102.023 41.6608C102.186 41.426 102.262 41.1824 102.25 40.93C102.239 40.6741 102.156 40.4096 101.999 40.1367C101.843 39.8637 101.656 39.6544 101.437 39.5086C101.218 39.3629 100.965 39.2987 100.677 39.316C100.388 39.3311 100.059 39.4441 99.6911 39.6549L98.2398 40.4855L101.722 46.5702L100.897 47.0427ZM102.353 42.1439L105.783 44.2462L104.824 44.7948L101.421 42.6773L102.353 42.1439Z" fill="#DB1D1D"/>
<path d="M100.897 47.0427L100.463 47.291L100.711 47.725L101.145 47.4766L100.897 47.0427ZM96.9952 40.2256L96.7468 39.7916L96.3129 40.04L96.5612 40.4739L96.9952 40.2256ZM100.766 38.4297L100.782 38.9295L100.784 38.9294L100.766 38.4297ZM101.95 38.7377L101.68 39.1585L101.68 39.1585L101.95 38.7377ZM103.177 40.8813L102.677 40.8981L102.677 40.8981L103.177 40.8813ZM102.84 42.0461L103.26 42.3177L103.262 42.3155L102.84 42.0461ZM99.8253 44.1207L99.3913 44.369L99.6397 44.803L100.074 44.5546L99.8253 44.1207ZM99.3986 43.3751L99.1502 42.9411L98.7163 43.1894L98.9646 43.6234L99.3986 43.3751ZM102.023 41.6608L101.613 41.3755L101.612 41.3771L102.023 41.6608ZM102.25 40.93L101.751 40.9514L101.751 40.9535L102.25 40.93ZM100.677 39.316L100.703 39.8153L100.707 39.8151L100.677 39.316ZM98.2398 40.4855L97.9914 40.0515L97.5575 40.2998L97.8058 40.7338L98.2398 40.4855ZM101.722 46.5702L101.97 47.0042L102.404 46.7558L102.156 46.3219L101.722 46.5702ZM102.353 42.1439L102.614 41.7176L102.362 41.5628L102.104 41.7099L102.353 42.1439ZM105.783 44.2462L106.031 44.6801L106.764 44.2609L106.044 43.8198L105.783 44.2462ZM104.824 44.7948L104.56 45.2193L104.814 45.377L105.073 45.2287L104.824 44.7948ZM101.421 42.6773L101.172 42.2433L100.445 42.6594L101.157 43.1018L101.421 42.6773ZM101.331 46.7943L97.4291 39.9772L96.5612 40.4739L100.463 47.291L101.331 46.7943ZM97.2435 40.6595L99.547 39.3413L99.0503 38.4734L96.7468 39.7916L97.2435 40.6595ZM99.547 39.3413C100.034 39.0627 100.443 38.9398 100.782 38.9295L100.751 37.93C100.198 37.9468 99.6286 38.1424 99.0503 38.4734L99.547 39.3413ZM100.784 38.9294C101.136 38.9169 101.429 38.9971 101.68 39.1585L102.22 38.3169C101.782 38.036 101.286 37.9109 100.749 37.93L100.784 38.9294ZM101.68 39.1585C101.948 39.3308 102.183 39.5792 102.378 39.9202L103.246 39.4235C102.981 38.9612 102.641 38.5869 102.22 38.3169L101.68 39.1585ZM102.378 39.9202C102.573 40.2614 102.667 40.5858 102.677 40.8981L103.677 40.8646C103.66 40.3675 103.51 39.8857 103.246 39.4235L102.378 39.9202ZM102.677 40.8981C102.687 41.1924 102.608 41.4819 102.419 41.7766L103.262 42.3155C103.549 41.8665 103.694 41.3795 103.677 40.8646L102.677 40.8981ZM102.421 41.7744C102.238 42.0564 101.925 42.343 101.441 42.6199L101.938 43.4878C102.51 43.1603 102.964 42.775 103.26 42.3177L102.421 41.7744ZM101.441 42.6199L99.5769 43.6867L100.074 44.5546L101.938 43.4878L101.441 42.6199ZM100.259 43.8723L99.8325 43.1267L98.9646 43.6234L99.3913 44.369L100.259 43.8723ZM99.6469 43.809L101.484 42.7575L100.988 41.8895L99.1502 42.9411L99.6469 43.809ZM101.484 42.7575C101.885 42.5283 102.216 42.2621 102.435 41.9446L101.612 41.3771C101.509 41.5266 101.315 41.7021 100.988 41.8895L101.484 42.7575ZM102.434 41.9462C102.651 41.6335 102.767 41.2831 102.75 40.9064L101.751 40.9535C101.757 41.0818 101.722 41.2186 101.613 41.3755L102.434 41.9462ZM102.75 40.9086C102.735 40.5567 102.62 40.2151 102.433 39.8883L101.566 40.385C101.691 40.6042 101.744 40.7914 101.751 40.9514L102.75 40.9086ZM102.433 39.8883C102.246 39.5611 102.009 39.2888 101.714 39.0924L101.16 39.9249C101.303 40.0199 101.44 40.1664 101.566 40.385L102.433 39.8883ZM101.714 39.0924C101.396 38.8805 101.032 38.7937 100.647 38.8169L100.707 39.8151C100.897 39.8037 101.04 39.8453 101.16 39.9249L101.714 39.0924ZM100.651 38.8167C100.256 38.8373 99.8497 38.988 99.4427 39.2209L99.9394 40.0888C100.269 39.9001 100.52 39.8249 100.703 39.8153L100.651 38.8167ZM99.4427 39.2209L97.9914 40.0515L98.4881 40.9194L99.9394 40.0888L99.4427 39.2209ZM97.8058 40.7338L101.288 46.8186L102.156 46.3219L98.6737 40.2371L97.8058 40.7338ZM101.474 46.1363L100.648 46.6087L101.145 47.4766L101.97 47.0042L101.474 46.1363ZM102.092 42.5702L105.522 44.6725L106.044 43.8198L102.614 41.7176L102.092 42.5702ZM105.535 43.8122L104.576 44.3608L105.073 45.2287L106.031 44.6801L105.535 43.8122ZM105.089 44.3702L101.685 42.2528L101.157 43.1018L104.56 45.2193L105.089 44.3702ZM101.669 43.1113L102.601 42.5779L102.104 41.7099L101.172 42.2433L101.669 43.1113Z" fill="#DB1D1D"/>
<path d="M111.381 40.2712L110.622 40.9178L107.725 33.068L108.473 32.4314L115.761 36.5413L115.002 37.1878L108.928 33.6758L108.881 33.7156L111.381 40.2712ZM109.672 37.6966L112.732 35.0906L113.28 35.733L110.22 38.339L109.672 37.6966Z" fill="#DB1D1D"/>
<path d="M111.381 40.2712L111.706 40.6519L111.974 40.423L111.849 40.0931L111.381 40.2712ZM110.622 40.9178L110.153 41.0909L110.401 41.7628L110.947 41.2984L110.622 40.9178ZM107.725 33.068L107.401 32.6873L107.135 32.9136L107.256 33.2411L107.725 33.068ZM108.473 32.4314L108.718 31.9959L108.414 31.8244L108.149 32.0507L108.473 32.4314ZM115.761 36.5413L116.085 36.9219L116.631 36.4575L116.007 36.1057L115.761 36.5413ZM115.002 37.1878L114.752 37.6206L115.057 37.7974L115.326 37.5684L115.002 37.1878ZM108.928 33.6758L109.178 33.243L108.873 33.0662L108.604 33.2951L108.928 33.6758ZM108.881 33.7156L108.557 33.3349L108.288 33.5639L108.414 33.8938L108.881 33.7156ZM109.672 37.6966L109.348 37.316L108.968 37.6402L109.292 38.0208L109.672 37.6966ZM112.732 35.0906L113.113 34.7664L112.789 34.3858L112.408 34.71L112.732 35.0906ZM113.28 35.733L113.604 36.1137L113.984 35.7895L113.66 35.4088L113.28 35.733ZM110.22 38.339L109.839 38.6632L110.163 39.0439L110.544 38.7197L110.22 38.339ZM111.057 39.8906L110.298 40.5371L110.947 41.2984L111.706 40.6519L111.057 39.8906ZM111.091 40.7447L108.194 32.8949L107.256 33.2411L110.153 41.0909L111.091 40.7447ZM108.05 33.4486L108.797 32.812L108.149 32.0507L107.401 32.6873L108.05 33.4486ZM108.227 32.8669L115.516 36.9768L116.007 36.1057L108.718 31.9959L108.227 32.8669ZM115.437 36.1606L114.678 36.8071L115.326 37.5684L116.085 36.9219L115.437 36.1606ZM115.252 36.7549L109.178 33.243L108.678 34.1087L114.752 37.6206L115.252 36.7549ZM108.604 33.2951L108.557 33.3349L109.206 34.0963L109.252 34.0565L108.604 33.2951ZM108.414 33.8938L110.914 40.4494L111.849 40.0931L109.349 33.5374L108.414 33.8938ZM109.997 38.0773L113.057 35.4713L112.408 34.71L109.348 37.316L109.997 38.0773ZM112.352 35.4148L112.899 36.0572L113.66 35.4088L113.113 34.7664L112.352 35.4148ZM112.955 35.3523L109.895 37.9584L110.544 38.7197L113.604 36.1137L112.955 35.3523ZM110.6 38.0148L110.053 37.3725L109.292 38.0208L109.839 38.6632L110.6 38.0148Z" fill="#DB1D1D"/>
<path d="M118.388 21.6973L124.57 26.5432L124.002 27.2676L116.508 26.8313L116.461 26.8917L121.314 30.6964L120.727 31.445L114.546 26.5991L115.114 25.8747L122.629 26.3084L122.677 26.248L117.811 22.4338L118.388 21.6973Z" fill="#DB1D1D"/>
<path d="M118.388 21.6973L118.697 21.3038L118.303 20.9954L117.995 21.3889L118.388 21.6973ZM124.57 26.5432L124.963 26.8516L125.272 26.4581L124.878 26.1497L124.57 26.5432ZM124.002 27.2676L123.973 27.7667L124.234 27.7819L124.396 27.576L124.002 27.2676ZM116.508 26.8313L116.537 26.3322L116.276 26.317L116.114 26.5228L116.508 26.8313ZM116.461 26.8917L116.067 26.5832L115.759 26.9767L116.152 27.2852L116.461 26.8917ZM121.314 30.6964L121.708 31.0049L122.016 30.6114L121.623 30.3029L121.314 30.6964ZM120.727 31.445L120.419 31.8385L120.812 32.1469L121.121 31.7534L120.727 31.445ZM114.546 26.5991L114.152 26.2907L113.844 26.6842L114.237 26.9926L114.546 26.5991ZM115.114 25.8747L115.142 25.3756L114.881 25.3605L114.72 25.5663L115.114 25.8747ZM122.629 26.3084L122.6 26.8075L122.861 26.8226L123.023 26.6169L122.629 26.3084ZM122.677 26.248L123.07 26.5565L123.379 26.163L122.985 25.8545L122.677 26.248ZM117.811 22.4338L117.417 22.1253L117.109 22.5188L117.503 22.8273L117.811 22.4338ZM118.08 22.0908L124.261 26.9367L124.878 26.1497L118.697 21.3038L118.08 22.0908ZM124.176 26.2347L123.609 26.9591L124.396 27.576L124.963 26.8516L124.176 26.2347ZM124.031 26.7684L116.537 26.3322L116.479 27.3305L123.973 27.7667L124.031 26.7684ZM116.114 26.5228L116.067 26.5832L116.854 27.2002L116.901 27.1398L116.114 26.5228ZM116.152 27.2852L121.006 31.0899L121.623 30.3029L116.769 26.4982L116.152 27.2852ZM120.921 30.3879L120.334 31.1365L121.121 31.7534L121.708 31.0049L120.921 30.3879ZM121.036 31.0515L114.854 26.2056L114.237 26.9926L120.419 31.8385L121.036 31.0515ZM114.939 26.9076L115.507 26.1832L114.72 25.5663L114.152 26.2907L114.939 26.9076ZM115.085 26.3739L122.6 26.8075L122.658 25.8092L115.142 25.3756L115.085 26.3739ZM123.023 26.6169L123.07 26.5565L122.283 25.9395L122.236 25.9999L123.023 26.6169ZM122.985 25.8545L118.119 22.0403L117.503 22.8273L122.368 26.6415L122.985 25.8545ZM118.204 22.7423L118.782 22.0058L117.995 21.3889L117.417 22.1253L118.204 22.7423Z" fill="#DB1D1D"/>
<path d="M122.398 17.0331L121.646 16.6496L124.323 11.4022L125.075 11.7857L123.952 13.9858L130.197 17.172L129.765 18.0193L123.52 14.833L122.398 17.0331Z" fill="#DB1D1D"/>
<path d="M122.398 17.0331L122.17 17.4785L122.616 17.7057L122.843 17.2603L122.398 17.0331ZM121.646 16.6496L121.201 16.4224L120.973 16.8678L121.419 17.095L121.646 16.6496ZM124.323 11.4022L124.551 10.9569L124.105 10.7296L123.878 11.175L124.323 11.4022ZM125.075 11.7857L125.52 12.013L125.747 11.5676L125.302 11.3403L125.075 11.7857ZM123.952 13.9858L123.507 13.7585L123.28 14.2039L123.725 14.4312L123.952 13.9858ZM130.197 17.172L130.643 17.3993L130.87 16.9539L130.425 16.7267L130.197 17.172ZM129.765 18.0193L129.538 18.4646L129.983 18.6919L130.21 18.2465L129.765 18.0193ZM123.52 14.833L123.747 14.3876L123.302 14.1604L123.075 14.6058L123.52 14.833ZM122.625 16.5877L121.873 16.2042L121.419 17.095L122.17 17.4785L122.625 16.5877ZM122.091 16.8769L124.769 11.6295L123.878 11.175L121.201 16.4224L122.091 16.8769ZM124.096 11.8476L124.848 12.2311L125.302 11.3403L124.551 10.9569L124.096 11.8476ZM124.629 11.5585L123.507 13.7585L124.398 14.213L125.52 12.013L124.629 11.5585ZM123.725 14.4312L129.97 17.6174L130.425 16.7267L124.18 13.5404L123.725 14.4312ZM129.752 16.9448L129.32 17.792L130.21 18.2465L130.643 17.3993L129.752 16.9448ZM129.992 17.5739L123.747 14.3876L123.293 15.2784L129.538 18.4646L129.992 17.5739ZM123.075 14.6058L121.952 16.8058L122.843 17.2603L123.965 15.0603L123.075 14.6058Z" fill="#DB1D1D"/>
<path d="M129.397 2.92388C129.012 2.85548 128.669 2.94684 128.369 3.19796C128.069 3.44908 127.85 3.80225 127.712 4.25747C127.612 4.59032 127.577 4.89785 127.61 5.18004C127.642 5.45978 127.732 5.69789 127.878 5.89436C128.025 6.08839 128.219 6.22166 128.459 6.29416C128.659 6.35483 128.846 6.35927 129.02 6.30747C129.191 6.25248 129.348 6.16355 129.489 6.04066C129.628 5.91704 129.753 5.78126 129.864 5.63333C129.974 5.48466 130.067 5.34613 130.146 5.21772L130.583 4.51627C130.693 4.33602 130.83 4.13965 130.993 3.92718C131.157 3.71226 131.351 3.51834 131.574 3.34542C131.795 3.16932 132.049 3.04569 132.335 2.97454C132.621 2.90339 132.94 2.92108 133.293 3.02762C133.699 3.15044 134.034 3.36788 134.297 3.67995C134.562 3.98957 134.729 4.37674 134.8 4.84146C134.871 5.30374 134.819 5.82367 134.645 6.40127C134.482 6.9397 134.254 7.37967 133.961 7.72118C133.669 8.06023 133.333 8.29536 132.955 8.42656C132.576 8.55532 132.177 8.57223 131.757 8.4773L132.041 7.53749C132.333 7.59884 132.596 7.57442 132.833 7.46422C133.067 7.35084 133.269 7.17934 133.437 6.94974C133.604 6.71695 133.732 6.45126 133.822 6.15267C133.927 5.80514 133.965 5.47607 133.936 5.16548C133.905 4.85415 133.812 4.58701 133.658 4.36407C133.501 4.14039 133.286 3.98712 133.012 3.90426C132.762 3.82879 132.538 3.83713 132.339 3.92928C132.14 4.02144 131.957 4.16652 131.791 4.36454C131.624 4.56255 131.464 4.78262 131.311 5.02475L130.767 5.86997C130.42 6.4063 130.038 6.79844 129.622 7.04638C129.205 7.29431 128.743 7.34171 128.236 7.18855C127.815 7.0613 127.483 6.83651 127.238 6.5142C126.992 6.1887 126.841 5.80633 126.784 5.36711C126.725 4.9247 126.768 4.46365 126.913 3.98395C127.06 3.49936 127.277 3.09488 127.565 2.7705C127.85 2.44539 128.175 2.21783 128.54 2.08783C128.906 1.95537 129.281 1.94037 129.664 2.04281L129.397 2.92388Z" fill="#DB1D1D"/>
<path d="M129.397 2.92388L129.31 3.41619L129.747 3.49384L129.876 3.06857L129.397 2.92388ZM128.369 3.19796L128.69 3.58151L128.69 3.58151L128.369 3.19796ZM127.61 5.18004L127.113 5.23676L127.113 5.23854L127.61 5.18004ZM127.878 5.89436L127.477 6.19297L127.48 6.19633L127.878 5.89436ZM129.02 6.30747L129.163 6.78661L129.172 6.78361L129.02 6.30747ZM129.489 6.04066L129.817 6.41799L129.821 6.41412L129.489 6.04066ZM129.864 5.63333L130.264 5.93431L130.268 5.92906L129.864 5.63333ZM130.146 5.21772L129.722 4.95358L129.72 4.956L130.146 5.21772ZM130.583 4.51627L131.007 4.78041L131.009 4.77773L130.583 4.51627ZM130.993 3.92718L131.39 4.23159L131.391 4.23026L130.993 3.92718ZM131.574 3.34542L131.88 3.74073L131.885 3.73681L131.574 3.34542ZM132.335 2.97454L132.214 2.48933L132.214 2.48933L132.335 2.97454ZM134.297 3.67995L133.915 4.00259L133.917 4.00459L134.297 3.67995ZM134.8 4.84146L134.305 4.91649L134.305 4.91765L134.8 4.84146ZM133.961 7.72118L134.34 8.04755L134.341 8.04668L133.961 7.72118ZM132.955 8.42656L133.116 8.89989L133.118 8.89904L132.955 8.42656ZM131.757 8.4773L131.279 8.33262L131.123 8.84663L131.647 8.965L131.757 8.4773ZM132.041 7.53749L132.144 7.04822L131.696 6.95368L131.563 7.3928L132.041 7.53749ZM132.833 7.46422L133.044 7.91742L133.05 7.9144L132.833 7.46422ZM133.437 6.94974L133.84 7.24529L133.844 7.24065L133.437 6.94974ZM133.936 5.16548L134.434 5.11903L134.434 5.11527L133.936 5.16548ZM133.658 4.36407L134.069 4.07951L134.067 4.07712L133.658 4.36407ZM132.339 3.92928L132.129 3.47565L132.129 3.47565L132.339 3.92928ZM131.791 4.36454L132.173 4.68655L132.173 4.68655L131.791 4.36454ZM131.311 5.02475L131.731 5.29536L131.733 5.29225L131.311 5.02475ZM130.767 5.86997L131.187 6.14127L131.187 6.14057L130.767 5.86997ZM129.622 7.04638L129.877 7.47611L129.877 7.47611L129.622 7.04638ZM127.238 6.5142L126.839 6.8158L126.84 6.81635L127.238 6.5142ZM126.784 5.36711L127.28 5.30291L127.279 5.30148L126.784 5.36711ZM127.565 2.7705L127.939 3.10229L127.94 3.10027L127.565 2.7705ZM128.54 2.08783L128.708 2.55887L128.71 2.55797L128.54 2.08783ZM129.664 2.04281L130.142 2.18749L130.292 1.6932L129.793 1.55979L129.664 2.04281ZM129.485 2.43158C128.954 2.33735 128.462 2.46855 128.048 2.8144L128.69 3.58151C128.877 3.42512 129.07 3.37361 129.31 3.41619L129.485 2.43158ZM128.048 2.8144C127.658 3.14037 127.393 3.5845 127.234 4.11279L128.191 4.40216C128.306 4.02001 128.479 3.75779 128.69 3.58151L128.048 2.8144ZM127.234 4.11279C127.117 4.49659 127.071 4.87353 127.113 5.23676L128.106 5.12332C128.083 4.92217 128.106 4.68406 128.191 4.40216L127.234 4.11279ZM127.113 5.23854C127.155 5.59207 127.271 5.91624 127.477 6.19296L128.279 5.59577C128.193 5.47954 128.13 5.32749 128.106 5.12153L127.113 5.23854ZM127.48 6.19633C127.693 6.47719 127.976 6.67065 128.314 6.77277L128.603 5.81555C128.461 5.77267 128.358 5.69959 128.277 5.59239L127.48 6.19633ZM128.314 6.77277C128.593 6.85718 128.881 6.87066 129.163 6.78652L128.876 5.82842C128.811 5.84787 128.726 5.85249 128.603 5.81555L128.314 6.77277ZM129.172 6.78361C129.411 6.7071 129.627 6.58356 129.817 6.41797L129.161 5.66336C129.069 5.74354 128.971 5.79787 128.867 5.83133L129.172 6.78361ZM129.821 6.41412C129.985 6.26867 130.132 6.10862 130.264 5.93428L129.465 5.33238C129.374 5.4539 129.271 5.5654 129.156 5.6672L129.821 6.41412ZM130.268 5.92906C130.383 5.7717 130.485 5.62172 130.572 5.47944L129.72 4.956C129.65 5.07054 129.564 5.19762 129.461 5.3376L130.268 5.92906ZM130.571 5.48186L131.007 4.78041L130.158 4.25214L129.722 4.95359L130.571 5.48186ZM131.009 4.77773C131.108 4.61558 131.235 4.43371 131.39 4.23159L130.597 3.62277C130.426 3.84559 130.278 4.05645 130.157 4.25481L131.009 4.77773ZM131.391 4.23026C131.527 4.05144 131.69 3.88819 131.88 3.7407L131.268 2.95014C131.012 3.14849 130.787 3.37307 130.596 3.62409L131.391 4.23026ZM131.885 3.73681C132.048 3.60709 132.236 3.51434 132.456 3.45974L132.214 2.48933C131.862 2.57704 131.542 2.73154 131.263 2.95403L131.885 3.73681ZM132.456 3.45974C132.635 3.41516 132.86 3.41932 133.148 3.50623L133.437 2.54901C133.02 2.42284 132.607 2.39161 132.214 2.48933L132.456 3.45974ZM133.148 3.50623C133.465 3.60223 133.717 3.76733 133.915 4.00258L134.679 3.35731C134.351 2.96843 133.932 2.69864 133.437 2.54901L133.148 3.50623ZM133.917 4.00459C134.112 4.23287 134.247 4.52945 134.305 4.91649L135.294 4.76644C135.212 4.22404 135.011 3.74627 134.678 3.35531L133.917 4.00459ZM134.305 4.91765C134.363 5.28787 134.325 5.73052 134.166 6.25658L135.123 6.54595C135.313 5.91683 135.379 5.31961 135.294 4.76528L134.305 4.91765ZM134.166 6.25658C134.018 6.74464 133.819 7.11835 133.582 7.39567L134.341 8.04668C134.689 7.641 134.945 7.13476 135.123 6.54595L134.166 6.25658ZM133.582 7.3948C133.341 7.67498 133.077 7.855 132.791 7.95409L133.118 8.89904C133.59 8.73572 133.997 8.44549 134.34 8.04755L133.582 7.3948ZM132.793 7.95325C132.509 8.04992 132.205 8.06583 131.867 7.9896L131.647 8.965C132.15 9.07863 132.643 9.06071 133.116 8.89988L132.793 7.95325ZM132.236 8.62199L132.52 7.68217L131.563 7.3928L131.279 8.33262L132.236 8.62199ZM131.938 8.02676C132.32 8.10711 132.696 8.07966 133.044 7.91738L132.621 7.01107C132.497 7.06918 132.345 7.09056 132.144 7.04822L131.938 8.02676ZM133.05 7.9144C133.365 7.76222 133.628 7.53461 133.84 7.24527L133.034 6.65421C132.909 6.82408 132.77 6.93946 132.615 7.01404L133.05 7.9144ZM133.844 7.24065C134.045 6.95956 134.196 6.6436 134.301 6.29736L133.344 6.00799C133.268 6.25891 133.162 6.47433 133.03 6.65883L133.844 7.24065ZM134.301 6.29736C134.422 5.89796 134.47 5.50363 134.434 5.11903L133.439 5.21193C133.461 5.44852 133.433 5.71232 133.344 6.00799L134.301 6.29736ZM134.434 5.11527C134.395 4.73286 134.278 4.38208 134.069 4.07951L133.247 4.64863C133.346 4.79194 133.415 4.97543 133.439 5.21569L134.434 5.11527ZM134.067 4.07712C133.843 3.75703 133.532 3.53924 133.156 3.42565L132.867 4.38286C133.039 4.435 133.159 4.52375 133.248 4.65102L134.067 4.07712ZM133.156 3.42565C132.813 3.32181 132.459 3.32245 132.129 3.47565L132.549 4.38292C132.616 4.35182 132.711 4.33577 132.867 4.38286L133.156 3.42565ZM132.129 3.47565C131.852 3.60363 131.613 3.7986 131.408 4.04252L132.173 4.68655C132.301 4.53444 132.428 4.43924 132.549 4.38292L132.129 3.47565ZM131.408 4.04252C131.225 4.2595 131.052 4.49806 130.888 4.75725L131.733 5.29225C131.875 5.06718 132.022 4.8656 132.173 4.68655L131.408 4.04252ZM130.89 4.75415L130.346 5.59937L131.187 6.14057L131.731 5.29535L130.89 4.75415ZM130.347 5.59868C130.029 6.0899 129.699 6.41858 129.366 6.61664L129.877 7.47611C130.378 7.1783 130.811 6.72271 131.187 6.14127L130.347 5.59868ZM129.366 6.61664C129.082 6.78582 128.767 6.82662 128.381 6.70995L128.092 7.66716C128.719 7.8568 129.328 7.80281 129.877 7.47611L129.366 6.61664ZM128.381 6.70995C128.052 6.61044 127.812 6.44281 127.637 6.21204L126.84 6.81635C127.154 7.23021 127.579 7.51216 128.092 7.66716L128.381 6.70995ZM127.637 6.2126C127.448 5.96229 127.326 5.66348 127.28 5.30291L126.288 5.43131C126.355 5.94919 126.536 6.41511 126.839 6.8158L127.637 6.2126ZM127.279 5.30148C127.231 4.9378 127.265 4.54863 127.392 4.12863L126.435 3.83926C126.272 4.37866 126.219 4.9116 126.288 5.43274L127.279 5.30148ZM127.392 4.12863C127.521 3.70172 127.706 3.36425 127.939 3.10228L127.191 2.43872C126.848 2.8255 126.599 3.297 126.435 3.83926L127.392 4.12863ZM127.94 3.10027C128.176 2.83165 128.432 2.65709 128.708 2.55887L128.373 1.61679C127.918 1.77857 127.524 2.05913 127.189 2.44074L127.94 3.10027ZM128.71 2.55797C128.978 2.46101 129.248 2.44927 129.535 2.52583L129.793 1.55979C129.313 1.43147 128.834 1.44973 128.37 1.61768L128.71 2.55797ZM129.185 1.89812L128.919 2.7792L129.876 3.06857L130.142 2.18749L129.185 1.89812Z" fill="#DB1D1D"/>
</svg>
