<svg width="16" height="16" viewBox="0 0 16 16" fill="none" xmlns="http://www.w3.org/2000/svg">
<path d="M1.20898 8.99999H12.379L7.49898 13.88C7.10898 14.27 7.10898 14.91 7.49898 15.3C7.88898 15.69 8.51898 15.69 8.90898 15.3L15.499 8.70999C15.889 8.31999 15.889 7.68999 15.499 7.29999L8.91898 0.699987C8.73215 0.512734 8.4785 0.407501 8.21398 0.407501C7.94947 0.407501 7.69582 0.512734 7.50898 0.699987C7.11898 1.08999 7.11898 1.71999 7.50898 2.10999L12.379 6.99999H1.20898C0.658984 6.99999 0.208984 7.44999 0.208984 7.99999C0.208984 8.54999 0.658984 8.99999 1.20898 8.99999Z" fill="#DB1D1D"/>
</svg>
