<svg width="117" height="37" viewBox="0 0 117 37" fill="none" xmlns="http://www.w3.org/2000/svg">
<path d="M3.33953 7.71934L9.14087 2.42422L10.9921 4.45242C11.361 4.85655 11.5953 5.25364 11.6952 5.64369C11.7969 6.03201 11.7893 6.39725 11.6723 6.7394C11.5572 7.07983 11.3581 7.37931 11.0748 7.63787C10.8255 7.86539 10.5792 8.00889 10.3358 8.06837C10.0941 8.12974 9.86051 8.13175 9.63509 8.07441C9.41139 8.01896 9.20104 7.92883 9.00403 7.80401L8.94738 7.85572C9.09807 8.04358 9.19864 8.27892 9.24908 8.56174C9.29952 8.84457 9.27415 9.14293 9.17296 9.45685C9.07176 9.77076 8.8682 10.0673 8.56227 10.3466C8.27145 10.612 7.94957 10.7846 7.59664 10.8645C7.2437 10.9443 6.86911 10.9037 6.47287 10.7426C6.07662 10.5816 5.66994 10.2725 5.25281 9.81553L3.33953 7.71934ZM4.60393 7.85304L5.876 9.24672C6.29485 9.70561 6.68094 9.95036 7.03427 9.98096C7.39121 10.0117 7.69715 9.91075 7.95209 9.67805C8.14849 9.49879 8.28411 9.28328 8.35894 9.0315C8.43566 8.77801 8.4396 8.51305 8.37077 8.23663C8.30382 7.95848 8.15487 7.69288 7.92389 7.43983L6.6208 6.01216L4.60393 7.85304ZM7.23266 5.45369L8.42199 6.75672C8.61504 6.96823 8.83068 7.12104 9.0689 7.21516C9.30885 7.31117 9.55004 7.34027 9.79247 7.30246C10.0366 7.26655 10.2607 7.15551 10.4646 6.96935C10.7196 6.73666 10.8548 6.45054 10.8703 6.111C10.8877 5.76974 10.7205 5.40648 10.3689 5.02124L9.15888 3.69554L7.23266 5.45369Z" fill="#DB1D1D"/>
<path d="M3.33953 7.71934L3.00246 7.35005L2.63316 7.68712L2.97023 8.05642L3.33953 7.71934ZM9.14087 2.42422L9.51016 2.08715L9.17309 1.71785L8.80379 2.05493L9.14087 2.42422ZM11.6952 5.64369L11.2108 5.76768L11.2115 5.7704L11.6952 5.64369ZM11.6723 6.7394L11.1992 6.57767L11.1986 6.57929L11.6723 6.7394ZM10.3358 8.06837L10.2171 7.58264L10.2127 7.58375L10.3358 8.06837ZM9.63509 8.07441L9.75835 7.58983L9.75539 7.5891L9.63509 8.07441ZM9.00403 7.80401L9.27163 7.38165L8.94903 7.17726L8.66696 7.43471L9.00403 7.80401ZM8.94738 7.85572L8.6103 7.48642L8.26383 7.80267L8.55736 8.16859L8.94738 7.85572ZM9.24908 8.56174L8.75685 8.64953L8.75685 8.64953L9.24908 8.56174ZM7.59664 10.8645L7.70693 11.3521L7.70693 11.3521L7.59664 10.8645ZM6.47287 10.7426L6.66113 10.2794L6.66113 10.2794L6.47287 10.7426ZM4.60393 7.85304L4.26685 7.48374L3.89756 7.82081L4.23463 8.19011L4.60393 7.85304ZM7.03427 9.98096L6.99113 10.4791L6.99134 10.4791L7.03427 9.98096ZM8.35894 9.0315L7.88037 8.88667L7.87966 8.88906L8.35894 9.0315ZM8.37077 8.23663L7.88463 8.35363L7.88558 8.35744L8.37077 8.23663ZM6.6208 6.01216L6.9901 5.67508L6.65302 5.30578L6.28372 5.64286L6.6208 6.01216ZM7.23266 5.45369L6.89558 5.08439L6.52629 5.42146L6.86336 5.79076L7.23266 5.45369ZM9.0689 7.21516L9.25465 6.75094L9.25263 6.75014L9.0689 7.21516ZM9.79247 7.30246L9.71969 6.80777L9.71543 6.80843L9.79247 7.30246ZM10.8703 6.111L10.3709 6.08557L10.3708 6.08821L10.8703 6.111ZM9.15888 3.69554L9.52818 3.35847L9.19111 2.98917L8.82181 3.32624L9.15888 3.69554ZM3.67661 8.08864L9.47794 2.79352L8.80379 2.05493L3.00246 7.35005L3.67661 8.08864ZM8.77157 2.7613L10.6228 4.7895L11.3614 4.11535L9.51016 2.08715L8.77157 2.7613ZM10.6228 4.7895C10.9553 5.15383 11.1372 5.48036 11.2108 5.76768L12.1795 5.5197C12.0534 5.02692 11.7666 4.55928 11.3614 4.11535L10.6228 4.7895ZM11.2115 5.7704C11.2911 6.07451 11.2809 6.33864 11.1992 6.57767L12.1454 6.90113C12.2976 6.45586 12.3026 5.98952 12.1788 5.51697L11.2115 5.7704ZM11.1986 6.57929C11.1125 6.83416 10.9628 7.0631 10.7377 7.26857L11.4119 8.00716C11.7533 7.69553 12.002 7.32549 12.146 6.89951L11.1986 6.57929ZM10.7377 7.26857C10.5298 7.45839 10.3557 7.54878 10.2171 7.58266L10.4544 8.55408C10.8026 8.46901 11.1213 8.27239 11.4119 8.00716L10.7377 7.26857ZM10.2127 7.58375C10.0458 7.62612 9.89716 7.62515 9.75835 7.58984L9.51183 8.55898C9.82386 8.63835 10.1423 8.63336 10.4588 8.55299L10.2127 7.58375ZM9.75539 7.5891C9.58448 7.54674 9.42379 7.47805 9.27163 7.38165L8.73644 8.22638C8.97829 8.37961 9.2383 8.49119 9.51479 8.55972L9.75539 7.5891ZM8.66696 7.43471L8.6103 7.48642L9.28445 8.22502L9.34111 8.17331L8.66696 7.43471ZM8.55736 8.16859C8.64645 8.27965 8.71827 8.43324 8.75685 8.64953L9.74132 8.47395C9.67901 8.1246 9.5497 7.80751 9.3374 7.54286L8.55736 8.16859ZM8.75685 8.64953C8.79093 8.84062 8.77691 9.05577 8.69707 9.30344L9.64884 9.61025C9.77139 9.2301 9.80812 8.84851 9.74132 8.47395L8.75685 8.64953ZM8.69707 9.30344C8.62859 9.51589 8.48307 9.7419 8.2252 9.97727L8.89935 10.7159C9.25334 10.3928 9.51494 10.0256 9.64884 9.61025L8.69707 9.30344ZM8.2252 9.97727C7.99262 10.1896 7.74734 10.3178 7.48634 10.3768L7.70693 11.3521C8.1518 11.2515 8.55029 11.0345 8.89935 10.7159L8.2252 9.97727ZM7.48634 10.3768C7.25019 10.4302 6.98035 10.4092 6.66113 10.2794L6.2846 11.2058C6.75786 11.3982 7.23721 11.4584 7.70693 11.3521L7.48634 10.3768ZM6.66113 10.2794C6.35761 10.1561 6.00978 9.90319 5.62211 9.47846L4.88351 10.1526C5.33009 10.6419 5.79563 11.0071 6.2846 11.2058L6.66113 10.2794ZM5.62211 9.47846L3.70883 7.38227L2.97023 8.05642L4.88351 10.1526L5.62211 9.47846ZM4.23463 8.19011L5.5067 9.58379L6.2453 8.90964L4.97323 7.51596L4.23463 8.19011ZM5.5067 9.58379C5.95203 10.0717 6.44737 10.432 6.99113 10.4791L7.07741 9.48282C6.91451 9.46871 6.63767 9.33953 6.2453 8.90964L5.5067 9.58379ZM6.99134 10.4791C7.48142 10.5213 7.92676 10.3781 8.28917 10.0474L7.61502 9.30876C7.46754 9.44336 7.30101 9.50209 7.0772 9.4828L6.99134 10.4791ZM8.28917 10.0474C8.55183 9.80761 8.73715 9.51399 8.83822 9.17395L7.87966 8.88906C7.83106 9.05256 7.74515 9.18998 7.61502 9.30876L8.28917 10.0474ZM8.8375 9.17634C8.94232 8.82999 8.94487 8.4729 8.85595 8.11581L7.88558 8.35744C7.93433 8.5532 7.92899 8.72603 7.88037 8.88667L8.8375 9.17634ZM8.85689 8.11963C8.76664 7.74466 8.56984 7.40585 8.29319 7.10275L7.5546 7.7769C7.73989 7.97991 7.84101 8.1723 7.88465 8.35362L8.85689 8.11963ZM8.29319 7.10275L6.9901 5.67508L6.2515 6.34923L7.5546 7.7769L8.29319 7.10275ZM6.28372 5.64286L4.26685 7.48374L4.941 8.22234L6.95787 6.38145L6.28372 5.64286ZM6.86336 5.79076L8.05269 7.09379L8.79129 6.41965L7.60196 5.11661L6.86336 5.79076ZM8.05269 7.09379C8.29095 7.35482 8.56819 7.55494 8.88518 7.68018L9.25263 6.75014C9.09317 6.68714 8.93914 6.58163 8.79129 6.41965L8.05269 7.09379ZM8.88316 7.67938C9.20181 7.80688 9.53359 7.84888 9.86951 7.79649L9.71543 6.80843C9.56648 6.83166 9.41589 6.81546 9.25465 6.75094L8.88316 7.67938ZM9.86524 7.79714C10.2195 7.74502 10.5332 7.58372 10.8017 7.33865L10.1276 6.60005C9.98814 6.7273 9.85371 6.78807 9.7197 6.80779L9.86524 7.79714ZM10.8017 7.33865C11.1529 7.01812 11.3481 6.60809 11.3698 6.13379L10.3708 6.08821C10.3615 6.29299 10.2863 6.4552 10.1276 6.60005L10.8017 7.33865ZM11.3696 6.13643C11.3966 5.60581 11.1333 5.117 10.7382 4.68416L9.9996 5.35831C10.3078 5.69596 10.3787 5.93366 10.3709 6.08557L11.3696 6.13643ZM10.7382 4.68416L9.52818 3.35847L8.78958 4.03261L9.9996 5.35831L10.7382 4.68416ZM8.82181 3.32624L6.89558 5.08439L7.56973 5.82298L9.49596 4.06484L8.82181 3.32624Z" fill="#DB1D1D"/>
<path d="M21.496 13.7982L22.2585 14.3669L19.1492 18.5356C18.8282 18.966 18.4401 19.2746 17.985 19.4615C17.5334 19.6478 17.0516 19.7015 16.5395 19.6226C16.0289 19.5416 15.5267 19.3169 15.0328 18.9485C14.5388 18.5801 14.1803 18.1627 13.9571 17.6965C13.7355 17.2281 13.6485 16.7502 13.6963 16.2628C13.7477 15.7748 13.9339 15.3156 14.2549 14.8852L17.3642 10.7165L18.1266 11.2851L15.0632 15.3924C14.8339 15.6998 14.6975 16.0239 14.6539 16.3645C14.6118 16.7032 14.6646 17.0344 14.8122 17.3582C14.9634 17.6815 15.2143 17.9739 15.5647 18.2353C15.9152 18.4967 16.2669 18.6537 16.6199 18.7065C16.9744 18.7572 17.3069 18.7134 17.6175 18.575C17.9316 18.4361 18.2033 18.2129 18.4326 17.9055L21.496 13.7982Z" fill="#DB1D1D"/>
<path d="M21.496 13.7982L21.795 13.3974L21.3942 13.0985L21.0952 13.4993L21.496 13.7982ZM22.2585 14.3669L22.6592 14.6658L22.9582 14.265L22.5574 13.9661L22.2585 14.3669ZM17.985 19.4615L17.7951 18.9989L17.7942 18.9993L17.985 19.4615ZM16.5395 19.6226L16.4612 20.1164L16.4633 20.1167L16.5395 19.6226ZM13.9571 17.6965L13.5052 17.9103L13.5061 17.9123L13.9571 17.6965ZM13.6963 16.2628L13.1991 16.2104L13.1987 16.214L13.6963 16.2628ZM17.3642 10.7165L17.6631 10.3157L17.2623 10.0167L16.9634 10.4175L17.3642 10.7165ZM18.1266 11.2851L18.5274 11.5841L18.8264 11.1833L18.4256 10.8843L18.1266 11.2851ZM14.6539 16.3645L14.1579 16.3011L14.1577 16.3029L14.6539 16.3645ZM14.8122 17.3582L14.3573 17.5656L14.3593 17.57L14.8122 17.3582ZM16.6199 18.7065L16.546 19.201L16.5491 19.2015L16.6199 18.7065ZM17.6175 18.575L17.4153 18.1177L17.414 18.1183L17.6175 18.575ZM21.1971 14.199L21.9595 14.7677L22.5574 13.9661L21.795 13.3974L21.1971 14.199ZM21.8577 14.068L18.7484 18.2367L19.55 18.8346L22.6592 14.6658L21.8577 14.068ZM18.7484 18.2367C18.4764 18.6013 18.1588 18.8496 17.7951 18.9989L18.1748 19.924C18.7214 19.6997 19.1799 19.3307 19.55 18.8346L18.7484 18.2367ZM17.7942 18.9993C17.4323 19.1486 17.0432 19.1943 16.6157 19.1284L16.4633 20.1167C17.0599 20.2087 17.6346 20.1469 18.1757 19.9237L17.7942 18.9993ZM16.6178 19.1287C16.2013 19.0627 15.7731 18.8769 15.3317 18.5477L14.7338 19.3493C15.2803 19.7569 15.8566 20.0205 16.4612 20.1164L16.6178 19.1287ZM15.3317 18.5477C14.8903 18.2185 14.5902 17.861 14.4081 17.4806L13.5061 17.9123C13.7704 18.4644 14.1874 18.9417 14.7338 19.3493L15.3317 18.5477ZM14.409 17.4826C14.2238 17.0911 14.1555 16.7037 14.1939 16.3116L13.1987 16.214C13.1416 16.7968 13.2471 17.3651 13.5052 17.9103L14.409 17.4826ZM14.1936 16.3151C14.2347 15.9248 14.3832 15.5495 14.6557 15.1841L13.8541 14.5863C13.4846 15.0817 13.2607 15.6248 13.1991 16.2104L14.1936 16.3151ZM14.6557 15.1841L17.765 11.0154L16.9634 10.4175L13.8541 14.5863L14.6557 15.1841ZM17.0653 11.1173L17.8277 11.6859L18.4256 10.8843L17.6631 10.3157L17.0653 11.1173ZM17.7258 10.9862L14.6624 15.0934L15.464 15.6913L18.5274 11.5841L17.7258 10.9862ZM14.6624 15.0934C14.3878 15.4617 14.2137 15.8654 14.1579 16.3011L15.1498 16.428C15.1813 16.1823 15.28 15.938 15.464 15.6913L14.6624 15.0934ZM14.1577 16.3029C14.1037 16.7374 14.173 17.1615 14.3573 17.5656L15.2672 17.1508C15.1562 16.9074 15.1199 16.669 15.1501 16.4262L14.1577 16.3029ZM14.3593 17.57C14.5525 17.9831 14.8639 18.3363 15.2658 18.6361L15.8637 17.8345C15.5646 17.6114 15.3744 17.3799 15.2651 17.1464L14.3593 17.57ZM15.2658 18.6361C15.6677 18.9358 16.095 19.1336 16.546 19.201L16.6938 18.212C16.4388 18.1739 16.1627 18.0575 15.8637 17.8345L15.2658 18.6361ZM16.5491 19.2015C16.9916 19.2647 17.4198 19.2105 17.821 19.0317L17.414 18.1183C17.1941 18.2162 16.9572 18.2496 16.6907 18.2115L16.5491 19.2015ZM17.8197 19.0323C18.2214 18.8546 18.5588 18.5726 18.8334 18.2044L18.0318 17.6065C17.8479 17.8532 17.6418 18.0175 17.4153 18.1177L17.8197 19.0323ZM18.8334 18.2044L21.8968 14.0972L21.0952 13.4993L18.0318 17.6065L18.8334 18.2044Z" fill="#DB1D1D"/>
<path d="M27.2498 17.5278L28.2303 18.0022L28.594 22.2515L28.6769 22.2916L32.2349 19.9402L33.2153 20.4146L28.6492 23.3349L27.2392 26.2486L26.383 25.8342L27.7931 22.9205L27.2498 17.5278Z" fill="#DB1D1D"/>
<path d="M27.2498 17.5278L27.4676 17.0777L26.6627 16.6882L26.7523 17.5779L27.2498 17.5278ZM28.2303 18.0022L28.7284 17.9596L28.7042 17.6761L28.4481 17.5522L28.2303 18.0022ZM28.594 22.2515L28.0958 22.2941L28.1201 22.5776L28.3762 22.7016L28.594 22.2515ZM28.6769 22.2916L28.4591 22.7417L28.7152 22.8656L28.9525 22.7087L28.6769 22.2916ZM32.2349 19.9402L32.4527 19.4901L32.1965 19.3662L31.9592 19.523L32.2349 19.9402ZM33.2153 20.4146L33.4847 20.8358L34.238 20.3541L33.4331 19.9646L33.2153 20.4146ZM28.6492 23.3349L28.3798 22.9136L28.2607 22.9898L28.1991 23.1171L28.6492 23.3349ZM27.2392 26.2486L27.0214 26.6986L27.4715 26.9164L27.6893 26.4664L27.2392 26.2486ZM26.383 25.8342L25.933 25.6164L25.7152 26.0665L26.1652 26.2843L26.383 25.8342ZM27.7931 22.9205L28.2431 23.1383L28.3047 23.0111L28.2905 22.8704L27.7931 22.9205ZM27.032 17.9779L28.0125 18.4523L28.4481 17.5522L27.4676 17.0777L27.032 17.9779ZM27.7321 18.0449L28.0958 22.2941L29.0922 22.2089L28.7284 17.9596L27.7321 18.0449ZM28.3762 22.7016L28.4591 22.7417L28.8947 21.8415L28.8118 21.8014L28.3762 22.7016ZM28.9525 22.7087L32.5105 20.3573L31.9592 19.523L28.4012 21.8745L28.9525 22.7087ZM32.0171 20.3902L32.9975 20.8647L33.4331 19.9646L32.4527 19.4901L32.0171 20.3902ZM32.9459 19.9934L28.3798 22.9136L28.9186 23.7561L33.4847 20.8358L32.9459 19.9934ZM28.1991 23.1171L26.7891 26.0308L27.6893 26.4664L29.0993 23.5527L28.1991 23.1171ZM27.457 25.7985L26.6008 25.3842L26.1652 26.2843L27.0214 26.6986L27.457 25.7985ZM26.8331 26.052L28.2431 23.1383L27.343 22.7027L25.933 25.6164L26.8331 26.052ZM28.2905 22.8704L27.7473 17.4777L26.7523 17.5779L27.2956 22.9707L28.2905 22.8704Z" fill="#DB1D1D"/>
<path d="M45.9927 25.2421L46.1171 24.4075L51.9437 25.2755L51.8193 26.1101L49.3764 25.7461L48.3434 32.6804L47.4026 32.5403L48.4357 25.606L45.9927 25.2421Z" fill="#DB1D1D"/>
<path d="M45.9927 25.2421L45.4982 25.1684L45.4245 25.6629L45.9191 25.7366L45.9927 25.2421ZM46.1171 24.4075L46.1907 23.913L45.6962 23.8393L45.6225 24.3338L46.1171 24.4075ZM51.9437 25.2755L52.4382 25.3492L52.5119 24.8547L52.0173 24.781L51.9437 25.2755ZM51.8193 26.1101L51.7457 26.6046L52.2402 26.6783L52.3139 26.1837L51.8193 26.1101ZM49.3764 25.7461L49.4501 25.2516L48.9555 25.1779L48.8819 25.6725L49.3764 25.7461ZM48.3434 32.6804L48.2697 33.1749L48.7643 33.2486L48.8379 32.7541L48.3434 32.6804ZM47.4026 32.5403L46.9081 32.4666L46.8344 32.9611L47.329 33.0348L47.4026 32.5403ZM48.4357 25.606L48.9302 25.6797L49.0039 25.1851L48.5093 25.1114L48.4357 25.606ZM46.4873 25.3157L46.6116 24.4812L45.6225 24.3338L45.4982 25.1684L46.4873 25.3157ZM46.0434 24.9021L51.87 25.7701L52.0173 24.781L46.1907 23.913L46.0434 24.9021ZM51.4491 25.2019L51.3248 26.0364L52.3139 26.1837L52.4382 25.3492L51.4491 25.2019ZM51.893 25.6155L49.4501 25.2516L49.3027 26.2407L51.7457 26.6046L51.893 25.6155ZM48.8819 25.6725L47.8488 32.6067L48.8379 32.7541L49.871 25.8198L48.8819 25.6725ZM48.4171 32.1859L47.4763 32.0457L47.329 33.0348L48.2697 33.1749L48.4171 32.1859ZM47.8972 32.6139L48.9302 25.6797L47.9411 25.5323L46.9081 32.4666L47.8972 32.6139ZM48.5093 25.1114L46.0664 24.7475L45.9191 25.7366L48.362 26.1005L48.5093 25.1114Z" fill="#DB1D1D"/>
<path d="M58.4513 25.5467L58.3959 33.4011L57.4448 33.3944L57.5002 25.54L58.4513 25.5467Z" fill="#DB1D1D"/>
<path d="M58.4513 25.5467L58.9513 25.5502L58.9548 25.0502L58.4548 25.0467L58.4513 25.5467ZM58.3959 33.4011L58.3924 33.901L58.8924 33.9046L58.8959 33.4046L58.3959 33.4011ZM57.4448 33.3944L56.9449 33.3908L56.9413 33.8908L57.4413 33.8943L57.4448 33.3944ZM57.5002 25.54L57.5037 25.04L57.0037 25.0365L57.0002 25.5365L57.5002 25.54ZM57.9513 25.5432L57.896 33.3975L58.8959 33.4046L58.9513 25.5502L57.9513 25.5432ZM58.3995 32.9011L57.4484 32.8944L57.4413 33.8943L58.3924 33.901L58.3995 32.9011ZM57.9448 33.3979L58.0001 25.5435L57.0002 25.5365L56.9449 33.3908L57.9448 33.3979ZM57.4966 26.04L58.4477 26.0467L58.4548 25.0467L57.5037 25.04L57.4966 26.04Z" fill="#DB1D1D"/>
<path d="M71.0745 26.8822L70.1327 27.0158C70.0386 26.7528 69.9074 26.5286 69.7391 26.3433C69.5734 26.1577 69.3819 26.0092 69.1647 25.898C68.9496 25.7839 68.7181 25.7082 68.4701 25.6711C68.2221 25.6339 67.969 25.6337 67.7108 25.6703C67.2399 25.737 66.8302 25.9165 66.4817 26.2087C66.1357 26.5005 65.8829 26.894 65.7233 27.3892C65.5662 27.884 65.5354 28.4681 65.6309 29.1415C65.7264 29.8149 65.9183 30.3674 66.2068 30.7991C66.4978 31.2304 66.85 31.5381 67.2635 31.7223C67.6795 31.906 68.1229 31.9645 68.5937 31.8978C68.852 31.8611 69.095 31.7905 69.3229 31.6859C69.5508 31.5813 69.7524 31.4455 69.9276 31.2787C70.1049 31.1089 70.2474 30.9118 70.355 30.6874C70.4648 30.4601 70.5286 30.2083 70.5462 29.932L71.4879 29.7985C71.4734 30.206 71.3947 30.58 71.2519 30.9205C71.1091 31.2609 70.914 31.561 70.6668 31.8208C70.4192 32.0779 70.1301 32.2881 69.7994 32.4512C69.4713 32.6139 69.111 32.7231 68.7186 32.7787C68.0554 32.8728 67.4426 32.7944 66.8802 32.5436C66.3178 32.2928 65.8462 31.8896 65.4653 31.3342C65.0844 30.7787 64.8358 30.0909 64.7196 29.2707C64.6033 28.4505 64.6509 27.7207 64.8623 27.0813C65.0738 26.4418 65.4148 25.9235 65.8853 25.5263C66.3558 25.129 66.9226 24.8834 67.5859 24.7893C67.9783 24.7337 68.3547 24.7384 68.7151 24.8035C69.0781 24.8683 69.4144 24.991 69.7241 25.1718C70.0334 25.35 70.304 25.5828 70.5358 25.8701C70.7673 26.1549 70.9469 26.4923 71.0745 26.8822Z" fill="#DB1D1D"/>
<path d="M71.0745 26.8822L71.1446 27.3773L71.7351 27.2936L71.5497 26.7267L71.0745 26.8822ZM70.1327 27.0158L69.662 27.1842L69.7993 27.568L70.2029 27.5108L70.1327 27.0158ZM69.7391 26.3433L69.3661 26.6764L69.369 26.6795L69.7391 26.3433ZM69.1647 25.898L68.9302 26.3397L68.9368 26.343L69.1647 25.898ZM68.4701 25.6711L68.3961 26.1656L68.3961 26.1656L68.4701 25.6711ZM66.4817 26.2087L66.1605 25.8255L66.1594 25.8264L66.4817 26.2087ZM65.7233 27.3892L65.2474 27.2358L65.2467 27.2379L65.7233 27.3892ZM66.2068 30.7991L65.7911 31.0769L65.7923 31.0787L66.2068 30.7991ZM67.2635 31.7223L67.0601 32.179L67.0614 32.1796L67.2635 31.7223ZM69.3229 31.6859L69.1143 31.2315L69.1143 31.2315L69.3229 31.6859ZM69.9276 31.2787L70.2724 31.6407L70.2733 31.6399L69.9276 31.2787ZM70.355 30.6874L69.9048 30.4699L69.9042 30.4712L70.355 30.6874ZM70.5462 29.932L70.476 29.437L70.0732 29.4941L70.0472 29.9002L70.5462 29.932ZM71.4879 29.7985L71.9876 29.8163L72.0089 29.2197L71.4177 29.3035L71.4879 29.7985ZM71.2519 30.9205L70.7908 30.7271L70.7908 30.7271L71.2519 30.9205ZM70.6668 31.8208L71.027 32.1675L71.029 32.1655L70.6668 31.8208ZM69.7994 32.4512L69.5782 32.0027L69.5773 32.0032L69.7994 32.4512ZM66.8802 32.5436L66.6766 33.0002L66.6766 33.0002L66.8802 32.5436ZM65.4653 31.3342L65.8777 31.0514L65.8777 31.0514L65.4653 31.3342ZM68.7151 24.8035L68.6262 25.2956L68.6273 25.2957L68.7151 24.8035ZM69.7241 25.1718L69.472 25.6036L69.4745 25.605L69.7241 25.1718ZM70.5358 25.8701L70.1467 26.1841L70.1478 26.1855L70.5358 25.8701ZM71.0043 26.3872L70.0625 26.5207L70.2029 27.5108L71.1446 27.3773L71.0043 26.3872ZM70.6035 26.8473C70.4898 26.5295 70.3267 26.2466 70.1093 26.0072L69.369 26.6795C69.4882 26.8107 69.5875 26.9761 69.662 27.1842L70.6035 26.8473ZM70.1121 26.0103C69.9061 25.7796 69.6657 25.5928 69.3926 25.4529L68.9368 26.343C69.098 26.4256 69.2406 26.5357 69.3662 26.6763L70.1121 26.0103ZM69.3991 25.4563C69.1325 25.3148 68.8465 25.2219 68.5442 25.1766L68.3961 26.1656C68.5897 26.1946 68.7668 26.2529 68.9303 26.3396L69.3991 25.4563ZM68.5442 25.1766C68.2465 25.132 67.9447 25.1321 67.6406 25.1752L67.781 26.1653C67.9933 26.1352 68.1977 26.1359 68.3961 26.1656L68.5442 25.1766ZM67.6406 25.1752C67.0817 25.2545 66.584 25.4705 66.1605 25.8255L66.8029 26.5918C67.0765 26.3625 67.3982 26.2196 67.781 26.1653L67.6406 25.1752ZM66.1594 25.8264C65.7316 26.1872 65.4314 26.665 65.2474 27.2358L66.1992 27.5426C66.3345 27.1229 66.5399 26.8137 66.8041 26.5909L66.1594 25.8264ZM65.2467 27.2379C65.0611 27.8228 65.033 28.4861 65.1358 29.2117L66.1259 29.0713C66.0379 28.4501 66.0714 27.9452 66.1999 27.5404L65.2467 27.2379ZM65.1358 29.2117C65.2387 29.9373 65.4501 30.5666 65.7911 31.0769L66.6225 30.5213C66.3866 30.1682 66.214 29.6925 66.1259 29.0713L65.1358 29.2117ZM65.7923 31.0787C66.1277 31.5758 66.5488 31.9514 67.0601 32.179L67.4669 31.2655C67.1512 31.1249 66.8679 30.885 66.6213 30.5195L65.7923 31.0787ZM67.0614 32.1796C67.5669 32.4029 68.105 32.4721 68.6639 32.3928L68.5236 31.4027C68.1407 31.457 67.792 31.4091 67.4655 31.2649L67.0614 32.1796ZM68.6639 32.3928C68.9681 32.3497 69.258 32.2659 69.5315 32.1403L69.1143 31.2315C68.9321 31.3152 68.7358 31.3726 68.5236 31.4027L68.6639 32.3928ZM69.5315 32.1403C69.8078 32.0135 70.0558 31.8471 70.2724 31.6407L69.5827 30.9166C69.449 31.044 69.2939 31.1491 69.1143 31.2315L69.5315 32.1403ZM70.2733 31.6399C70.4947 31.4279 70.6726 31.1815 70.8059 30.9036L69.9042 30.4712C69.8222 30.6421 69.7151 30.7899 69.5818 30.9175L70.2733 31.6399ZM70.8053 30.9049C70.9458 30.614 71.0238 30.2984 71.0452 29.9639L70.0472 29.9002C70.0333 30.1182 69.9839 30.3061 69.9048 30.4699L70.8053 30.9049ZM70.6164 30.4271L71.5581 30.2936L71.4177 29.3035L70.476 29.437L70.6164 30.4271ZM70.9883 29.7807C70.9757 30.1341 70.908 30.4478 70.7908 30.7271L71.713 31.1139C71.8815 30.7122 71.9712 30.2779 71.9876 29.8163L70.9883 29.7807ZM70.7908 30.7271C70.6708 31.0132 70.5088 31.2616 70.3047 31.476L71.029 32.1655C71.3193 31.8605 71.5474 31.5087 71.713 31.1139L70.7908 30.7271ZM70.3066 31.474C70.1004 31.6881 69.8588 31.8644 69.5782 32.0028L70.0206 32.8996C70.4014 32.7118 70.738 32.4677 71.027 32.1675L70.3066 31.474ZM69.5773 32.0032C69.3007 32.1404 68.9923 32.2349 68.6485 32.2837L68.7888 33.2738C69.2297 33.2113 69.6419 33.0874 70.0216 32.8991L69.5773 32.0032ZM68.6485 32.2837C68.0698 32.3657 67.5529 32.2961 67.0839 32.0869L66.6766 33.0002C67.3323 33.2927 68.041 33.3798 68.7888 33.2738L68.6485 32.2837ZM67.0839 32.0869C66.6136 31.8772 66.2115 31.5381 65.8777 31.0514L65.053 31.617C65.481 32.2411 66.0221 32.7083 66.6766 33.0002L67.0839 32.0869ZM65.8777 31.0514C65.5492 30.5725 65.3225 29.9617 65.2146 29.2005L64.2245 29.3409C64.3492 30.2202 64.6196 30.985 65.053 31.617L65.8777 31.0514ZM65.2146 29.2005C65.1067 28.4394 65.1547 27.7897 65.337 27.2383L64.3876 26.9243C64.147 27.6517 64.0998 28.4616 64.2245 29.3409L65.2146 29.2005ZM65.337 27.2383C65.5224 26.678 65.8144 26.2405 66.2078 25.9083L65.5627 25.1442C65.0152 25.6065 64.6253 26.2057 64.3876 26.9243L65.337 27.2383ZM66.2078 25.9083C66.6002 25.577 67.0774 25.3664 67.6561 25.2844L67.5157 24.2943C66.7679 24.4003 66.1113 24.681 65.5627 25.1442L66.2078 25.9083ZM67.6561 25.2844C67.9999 25.2356 68.3225 25.2407 68.6262 25.2956L68.804 24.3115C68.3869 24.2361 67.9566 24.2318 67.5157 24.2943L67.6561 25.2844ZM68.6273 25.2957C68.9341 25.3505 69.2146 25.4533 69.472 25.6036L69.9761 24.7399C69.6142 24.5287 69.2221 24.3861 68.8029 24.3113L68.6273 25.2957ZM69.4745 25.605C69.7285 25.7514 69.9523 25.9431 70.1467 26.1841L70.925 25.5562C70.6557 25.2225 70.3383 24.9486 69.9737 24.7385L69.4745 25.605ZM70.1478 26.1855C70.3364 26.4175 70.4885 26.6992 70.5992 27.0377L71.5497 26.7267C71.4053 26.2855 71.1982 25.8924 70.9239 25.5548L70.1478 26.1855Z" fill="#DB1D1D"/>
<path d="M78.4961 30.6308L75.9959 23.1848L76.8976 22.882L78.1379 26.5759L78.2251 26.5466L80.3297 21.7296L81.5077 21.3341L79.5089 25.7434L84.0078 28.7801L82.9171 29.1463L79.1663 26.5543L78.5871 27.9139L79.3977 30.328L78.4961 30.6308Z" fill="#DB1D1D"/>
<path d="M78.4961 30.6308L78.0221 30.7899L78.1812 31.2639L78.6552 31.1048L78.4961 30.6308ZM75.9959 23.1848L75.8367 22.7108L75.3627 22.8699L75.5219 23.3439L75.9959 23.1848ZM76.8976 22.882L77.3716 22.7229L77.2124 22.2489L76.7384 22.408L76.8976 22.882ZM78.1379 26.5759L77.6639 26.7351L77.823 27.2091L78.297 27.0499L78.1379 26.5759ZM78.2251 26.5466L78.3843 27.0206L78.5945 26.95L78.6833 26.7468L78.2251 26.5466ZM80.3297 21.7296L80.1706 21.2556L79.9603 21.3262L79.8715 21.5294L80.3297 21.7296ZM81.5077 21.3341L81.9631 21.5405L82.4372 20.4945L81.3485 20.8601L81.5077 21.3341ZM79.5089 25.7434L79.0536 25.5369L78.8792 25.9215L79.2292 26.1578L79.5089 25.7434ZM84.0078 28.7801L84.167 29.2541L85.1265 28.9319L84.2876 28.3656L84.0078 28.7801ZM82.9171 29.1463L82.6329 29.5576L82.8389 29.7L83.0763 29.6203L82.9171 29.1463ZM79.1663 26.5543L79.4505 26.1429L78.9464 25.7946L78.7063 26.3583L79.1663 26.5543ZM78.5871 27.9139L78.1271 27.7179L78.0526 27.8928L78.1131 28.073L78.5871 27.9139ZM79.3977 30.328L79.5569 30.802L80.0309 30.6429L79.8717 30.1689L79.3977 30.328ZM78.9701 30.4716L76.4699 23.0256L75.5219 23.3439L78.0221 30.7899L78.9701 30.4716ZM76.1551 23.6588L77.0567 23.356L76.7384 22.408L75.8367 22.7108L76.1551 23.6588ZM76.4236 23.0412L77.6639 26.7351L78.6119 26.4168L77.3716 22.7229L76.4236 23.0412ZM78.297 27.0499L78.3843 27.0206L78.066 26.0726L77.9787 26.1019L78.297 27.0499ZM78.6833 26.7468L80.7879 21.9298L79.8715 21.5294L77.767 26.3464L78.6833 26.7468ZM80.4889 22.2036L81.6668 21.8081L81.3485 20.8601L80.1706 21.2556L80.4889 22.2036ZM81.0523 21.1276L79.0536 25.5369L79.9643 25.9498L81.9631 21.5405L81.0523 21.1276ZM79.2292 26.1578L83.7281 29.1945L84.2876 28.3656L79.7887 25.3289L79.2292 26.1578ZM83.8487 28.3061L82.758 28.6723L83.0763 29.6203L84.167 29.2541L83.8487 28.3061ZM83.2014 28.735L79.4505 26.1429L78.882 26.9656L82.6329 29.5576L83.2014 28.735ZM78.7063 26.3583L78.1271 27.7179L79.0471 28.1098L79.6263 26.7502L78.7063 26.3583ZM78.1131 28.073L78.9237 30.4872L79.8717 30.1689L79.0611 27.7547L78.1131 28.073ZM79.2386 29.854L78.3369 30.1568L78.6552 31.1048L79.5569 30.802L79.2386 29.854Z" fill="#DB1D1D"/>
<path d="M90.7339 25.8202L86.9682 18.9272L91.1282 16.6545L91.5328 17.395L88.2074 19.2116L89.4798 21.5407L92.5897 19.8417L92.9943 20.5822L89.8843 22.2812L91.1641 24.6237L94.5432 22.7776L94.9478 23.5181L90.7339 25.8202Z" fill="#DB1D1D"/>
<path d="M90.7339 25.8202L90.2951 26.0599L90.5348 26.4987L90.9736 26.259L90.7339 25.8202ZM86.9682 18.9272L86.7285 18.4884L86.2897 18.7281L86.5294 19.1669L86.9682 18.9272ZM91.1282 16.6545L91.567 16.4148L91.3273 15.976L90.8885 16.2157L91.1282 16.6545ZM91.5328 17.395L91.7725 17.8338L92.2113 17.5941L91.9716 17.1553L91.5328 17.395ZM88.2074 19.2116L87.9677 18.7728L87.5289 19.0125L87.7686 19.4513L88.2074 19.2116ZM89.4798 21.5407L89.041 21.7804L89.2807 22.2192L89.7195 21.9795L89.4798 21.5407ZM92.5897 19.8417L93.0285 19.602L92.7888 19.1632L92.35 19.4029L92.5897 19.8417ZM92.9943 20.5822L93.234 21.021L93.6728 20.7813L93.433 20.3425L92.9943 20.5822ZM89.8843 22.2812L89.6446 21.8424L89.2058 22.0821L89.4455 22.5209L89.8843 22.2812ZM91.1641 24.6237L90.7253 24.8634L90.965 25.3022L91.4038 25.0625L91.1641 24.6237ZM94.5432 22.7776L94.982 22.5379L94.7423 22.0991L94.3035 22.3389L94.5432 22.7776ZM94.9478 23.5181L95.1875 23.9569L95.6263 23.7172L95.3866 23.2784L94.9478 23.5181ZM91.1727 25.5804L87.407 18.6874L86.5294 19.1669L90.2951 26.0599L91.1727 25.5804ZM87.2079 19.3659L91.368 17.0933L90.8885 16.2157L86.7285 18.4884L87.2079 19.3659ZM90.6895 16.8942L91.094 17.6347L91.9716 17.1553L91.567 16.4148L90.6895 16.8942ZM91.293 16.9562L87.9677 18.7728L88.4471 19.6504L91.7725 17.8338L91.293 16.9562ZM87.7686 19.4513L89.041 21.7804L89.9186 21.301L88.6462 18.9719L87.7686 19.4513ZM89.7195 21.9795L92.8294 20.2805L92.35 19.4029L89.2401 21.1019L89.7195 21.9795ZM92.1509 20.0814L92.5555 20.8219L93.433 20.3425L93.0285 19.602L92.1509 20.0814ZM92.7545 20.1434L89.6446 21.8424L90.124 22.72L93.234 21.021L92.7545 20.1434ZM89.4455 22.5209L90.7253 24.8634L91.6029 24.384L90.3231 22.0414L89.4455 22.5209ZM91.4038 25.0625L94.783 23.2164L94.3035 22.3389L90.9243 24.1849L91.4038 25.0625ZM94.1045 23.0174L94.509 23.7578L95.3866 23.2784L94.982 22.5379L94.1045 23.0174ZM94.7081 23.0793L90.4942 25.3814L90.9736 26.259L95.1875 23.9569L94.7081 23.0793Z" fill="#DB1D1D"/>
<path d="M96.4087 14.2485L95.8854 13.5866L100.506 9.93303L101.03 10.5949L99.0923 12.1268L103.44 17.6263L102.694 18.2162L98.3462 12.7167L96.4087 14.2485Z" fill="#DB1D1D"/>
<path d="M96.4087 14.2485L96.0165 14.5586L96.3266 14.9508L96.7188 14.6407L96.4087 14.2485ZM95.8854 13.5866L95.5753 13.1944L95.1831 13.5045L95.4932 13.8968L95.8854 13.5866ZM100.506 9.93303L100.899 9.62293L100.589 9.23071L100.196 9.54082L100.506 9.93303ZM101.03 10.5949L101.34 10.9871L101.732 10.677L101.422 10.2848L101.03 10.5949ZM99.0923 12.1268L98.7822 11.7345L98.39 12.0446L98.7001 12.4369L99.0923 12.1268ZM103.44 17.6263L103.751 18.0185L104.143 17.7084L103.833 17.3161L103.44 17.6263ZM102.694 18.2162L102.302 18.5263L102.612 18.9185L103.004 18.6084L102.694 18.2162ZM98.3462 12.7167L98.7384 12.4066L98.4283 12.0143L98.0361 12.3244L98.3462 12.7167ZM96.8009 13.9384L96.2776 13.2765L95.4932 13.8968L96.0165 14.5586L96.8009 13.9384ZM96.1955 13.9789L100.817 10.3253L100.196 9.54082L95.5753 13.1944L96.1955 13.9789ZM100.114 10.2431L100.638 10.905L101.422 10.2848L100.899 9.62293L100.114 10.2431ZM100.72 10.2027L98.7822 11.7345L99.4024 12.519L101.34 10.9871L100.72 10.2027ZM98.7001 12.4369L103.048 17.9364L103.833 17.3161L99.4845 11.8166L98.7001 12.4369ZM103.13 17.234L102.384 17.8239L103.004 18.6084L103.751 18.0185L103.13 17.234ZM103.087 17.9061L98.7384 12.4066L97.954 13.0268L102.302 18.5263L103.087 17.9061ZM98.0361 12.3244L96.0986 13.8563L96.7188 14.6407L98.6563 13.1089L98.0361 12.3244Z" fill="#DB1D1D"/>
<path d="M108.735 4.35717C108.415 4.13141 108.066 4.06833 107.687 4.16793C107.309 4.26753 106.96 4.49408 106.642 4.84759C106.41 5.10606 106.248 5.36985 106.157 5.63896C106.068 5.90617 106.048 6.15979 106.097 6.39982C106.147 6.63794 106.266 6.84081 106.452 7.00843C106.608 7.14867 106.775 7.23219 106.954 7.25898C107.133 7.28216 107.312 7.26818 107.492 7.21705C107.67 7.16421 107.841 7.09455 108.005 7.00807C108.167 6.91988 108.311 6.83445 108.437 6.75177L109.13 6.30247C109.307 6.18634 109.514 6.06679 109.752 5.94382C109.992 5.81895 110.25 5.72572 110.525 5.66413C110.801 5.59893 111.083 5.59493 111.372 5.65212C111.661 5.70931 111.942 5.86105 112.216 6.10733C112.531 6.39125 112.742 6.73047 112.848 7.125C112.956 7.51764 112.942 7.93925 112.809 8.38986C112.677 8.83857 112.409 9.28719 112.005 9.73571C111.629 10.1538 111.236 10.4552 110.825 10.6397C110.417 10.8224 110.013 10.8925 109.614 10.8502C109.217 10.8059 108.849 10.6515 108.509 10.387L109.166 9.65717C109.403 9.83656 109.653 9.92663 109.913 9.92738C110.174 9.92452 110.429 9.85495 110.679 9.71867C110.929 9.57879 111.158 9.39291 111.367 9.16104C111.609 8.89117 111.784 8.60951 111.89 8.31607C111.994 8.02092 112.023 7.73965 111.978 7.47226C111.931 7.20316 111.802 6.97283 111.589 6.78127C111.395 6.60682 111.188 6.51902 110.969 6.51789C110.75 6.51676 110.523 6.57037 110.288 6.6787C110.053 6.78704 109.815 6.91819 109.573 7.07213L108.721 7.60583C108.179 7.94394 107.667 8.13658 107.185 8.18373C106.702 8.23089 106.264 8.07745 105.87 7.72341C105.543 7.42923 105.338 7.08431 105.254 6.68863C105.169 6.28935 105.195 5.87885 105.33 5.45713C105.465 5.0318 105.7 4.63288 106.036 4.26037C106.374 3.88406 106.743 3.61028 107.141 3.43903C107.537 3.26607 107.929 3.1984 108.314 3.23601C108.702 3.27172 109.047 3.41737 109.35 3.67297L108.735 4.35717Z" fill="#DB1D1D"/>
<path d="M108.735 4.35717L108.446 4.76558L108.809 5.02188L109.106 4.69163L108.735 4.35717ZM107.687 4.16793L107.814 4.65147L107.814 4.65147L107.687 4.16793ZM106.157 5.63896L105.683 5.47907L105.683 5.48077L106.157 5.63896ZM106.097 6.39982L105.607 6.49954L105.608 6.50367L106.097 6.39982ZM106.954 7.25898L106.88 7.75356L106.89 7.75482L106.954 7.25898ZM107.492 7.21705L107.629 7.69808L107.634 7.69643L107.492 7.21705ZM108.005 7.00807L108.239 7.45027L108.244 7.44716L108.005 7.00807ZM108.437 6.75177L108.165 6.33218L108.163 6.33373L108.437 6.75177ZM109.13 6.30247L109.402 6.72206L109.405 6.72034L109.13 6.30247ZM109.752 5.94382L109.982 6.38801L109.983 6.38723L109.752 5.94382ZM110.525 5.66413L110.634 6.15213L110.64 6.15068L110.525 5.66413ZM111.372 5.65212L111.469 5.16162L111.469 5.16162L111.372 5.65212ZM112.848 7.125L112.365 7.2546L112.366 7.25714L112.848 7.125ZM112.809 8.38986L112.329 8.24756L112.329 8.24869L112.809 8.38986ZM110.825 10.6397L111.029 11.0962L111.03 11.0957L110.825 10.6397ZM109.614 10.8502L109.559 11.3471L109.562 11.3474L109.614 10.8502ZM108.509 10.387L108.137 10.0525L107.778 10.4517L108.202 10.7815L108.509 10.387ZM109.166 9.65717L109.467 9.25815L109.101 8.9817L108.794 9.3227L109.166 9.65717ZM109.913 9.92738L109.912 10.4274L109.919 10.4273L109.913 9.92738ZM110.679 9.71867L110.918 10.1577L110.923 10.1549L110.679 9.71867ZM111.89 8.31607L112.36 8.48573L112.361 8.48216L111.89 8.31607ZM111.978 7.47226L112.471 7.38952L112.471 7.38665L111.978 7.47226ZM110.969 6.51789L110.972 6.0179L110.972 6.0179L110.969 6.51789ZM110.288 6.6787L110.497 7.1328L110.497 7.1328L110.288 6.6787ZM109.573 7.07213L109.838 7.49585L109.841 7.49387L109.573 7.07213ZM108.721 7.60583L108.986 8.02996L108.987 8.02953L108.721 7.60583ZM107.185 8.18373L107.233 8.68137L107.233 8.68137L107.185 8.18373ZM105.254 6.68863L104.765 6.79204L104.765 6.79271L105.254 6.68863ZM105.33 5.45713L105.806 5.60987L105.807 5.6085L105.33 5.45713ZM107.141 3.43903L107.338 3.89839L107.341 3.89731L107.141 3.43903ZM108.314 3.23601L108.266 3.73366L108.268 3.7339L108.314 3.23601ZM109.35 3.67297L109.722 4.00744L110.067 3.62359L109.673 3.29072L109.35 3.67297ZM109.023 3.94875C108.583 3.63776 108.081 3.54721 107.56 3.68439L107.814 4.65147C108.05 4.58944 108.247 4.62506 108.446 4.76558L109.023 3.94875ZM107.56 3.68439C107.069 3.81367 106.64 4.10288 106.271 4.51312L107.014 5.18205C107.281 4.88529 107.549 4.72139 107.814 4.65147L107.56 3.68439ZM106.271 4.51312C106.002 4.81116 105.8 5.13267 105.683 5.47907L106.631 5.79886C106.696 5.60703 106.817 5.40096 107.014 5.18205L106.271 4.51312ZM105.683 5.48077C105.57 5.81846 105.538 6.16148 105.607 6.49954L106.587 6.3001C106.558 6.1581 106.566 5.99389 106.631 5.79716L105.683 5.48077ZM105.608 6.50367C105.681 6.84836 105.855 7.14401 106.117 7.38009L106.786 6.63676C106.676 6.53762 106.614 6.42753 106.586 6.29596L105.608 6.50367ZM106.117 7.38009C106.334 7.57521 106.589 7.70995 106.88 7.75346L107.028 6.7645C106.961 6.75444 106.881 6.72214 106.786 6.63676L106.117 7.38009ZM106.89 7.75482C107.138 7.78707 107.386 7.76695 107.629 7.69805L107.356 6.73604C107.238 6.76941 107.127 6.77724 107.018 6.76313L106.89 7.75482ZM107.634 7.69643C107.844 7.63426 108.046 7.55216 108.239 7.45024L107.772 6.5659C107.637 6.63694 107.497 6.69415 107.35 6.73767L107.634 7.69643ZM108.244 7.44716C108.416 7.35382 108.572 7.26141 108.711 7.16981L108.163 6.33373C108.05 6.40748 107.919 6.48594 107.766 6.56897L108.244 7.44716ZM108.709 7.17136L109.402 6.72205L108.858 5.88288L108.165 6.33218L108.709 7.17136ZM109.405 6.72034C109.564 6.61587 109.756 6.50498 109.982 6.388L109.523 5.49964C109.273 5.6286 109.05 5.75681 108.856 5.8846L109.405 6.72034ZM109.983 6.38723C110.183 6.28333 110.399 6.20462 110.634 6.15209L110.416 5.17617C110.1 5.24681 109.801 5.35456 109.521 5.50041L109.983 6.38723ZM110.64 6.15068C110.843 6.10265 111.053 6.09872 111.275 6.14261L111.469 5.16162C111.113 5.09113 110.758 5.09521 110.41 5.17758L110.64 6.15068ZM111.275 6.14261C111.456 6.17844 111.658 6.27809 111.881 6.479L112.55 5.73567C112.226 5.44401 111.866 5.24018 111.469 5.16162L111.275 6.14261ZM111.881 6.479C112.128 6.70093 112.285 6.95718 112.365 7.2546L113.331 6.99541C113.199 6.50377 112.935 6.08157 112.55 5.73567L111.881 6.479ZM112.366 7.25714C112.445 7.54661 112.441 7.87228 112.329 8.24756L113.288 8.53216C113.444 8.00623 113.466 7.48866 113.33 6.99287L112.366 7.25714ZM112.329 8.24869C112.223 8.60805 112.001 8.99274 111.633 9.40125L112.377 10.0702C112.816 9.58163 113.13 9.06909 113.288 8.53103L112.329 8.24869ZM111.633 9.40125C111.292 9.78025 110.953 10.0339 110.62 10.1837L111.03 11.0957C111.518 10.8765 111.965 10.5274 112.377 10.0702L111.633 9.40125ZM110.621 10.1833C110.284 10.3342 109.968 10.385 109.667 10.353L109.562 11.3474C110.058 11.4001 110.55 11.3106 111.029 11.0962L110.621 10.1833ZM109.67 10.3532C109.372 10.32 109.089 10.2048 108.816 9.99243L108.202 10.7815C108.609 11.0982 109.063 11.2918 109.559 11.3471L109.67 10.3532ZM108.881 10.7214L109.538 9.99163L108.794 9.3227L108.137 10.0525L108.881 10.7214ZM108.865 10.0562C109.176 10.2912 109.528 10.4263 109.912 10.4274L109.915 9.42738C109.777 9.42699 109.631 9.38196 109.467 9.25815L108.865 10.0562ZM109.919 10.4273C110.269 10.4235 110.603 10.3294 110.918 10.1576L110.44 9.2797C110.255 9.38052 110.079 9.42553 109.908 9.42741L109.919 10.4273ZM110.923 10.1549C111.225 9.98598 111.496 9.76438 111.738 9.49551L110.995 8.82658C110.82 9.02144 110.633 9.17159 110.435 9.28245L110.923 10.1549ZM111.738 9.49551C112.017 9.18536 112.229 8.84907 112.36 8.48572L111.419 8.14642C111.339 8.36994 111.202 8.59698 110.995 8.82658L111.738 9.49551ZM112.361 8.48216C112.489 8.11963 112.532 7.75242 112.471 7.38953L111.485 7.55499C111.514 7.72689 111.498 7.92221 111.418 8.14999L112.361 8.48216ZM112.471 7.38665C112.404 7.00156 112.215 6.6722 111.923 6.40961L111.254 7.15293C111.388 7.27345 111.459 7.40475 111.486 7.55787L112.471 7.38665ZM111.923 6.40961C111.657 6.16958 111.336 6.01978 110.972 6.0179L110.967 7.01789C111.041 7.01827 111.133 7.04405 111.254 7.15293L111.923 6.40961ZM110.972 6.0179C110.668 6.01633 110.368 6.09116 110.079 6.22461L110.497 7.1328C110.678 7.04958 110.833 7.0172 110.967 7.01789L110.972 6.0179ZM110.079 6.22461C109.821 6.34332 109.563 6.4856 109.304 6.6504L109.841 7.49387C110.066 7.35077 110.285 7.23076 110.497 7.1328L110.079 6.22461ZM109.307 6.64844L108.456 7.18213L108.987 8.02953L109.838 7.49583L109.307 6.64844ZM108.456 7.18169C107.96 7.49137 107.522 7.64843 107.136 7.6861L107.233 8.68137C107.813 8.62473 108.399 8.39652 108.986 8.02996L108.456 7.18169ZM107.136 7.6861C106.807 7.71828 106.505 7.62145 106.205 7.35175L105.536 8.09507C106.023 8.53344 106.597 8.7435 107.233 8.68137L107.136 7.6861ZM106.205 7.35175C105.949 7.12171 105.803 6.86784 105.743 6.58455L104.765 6.79271C104.873 7.30077 105.138 7.73675 105.536 8.09507L106.205 7.35175ZM105.743 6.58523C105.678 6.27818 105.695 5.95606 105.806 5.60987L104.854 5.30439C104.694 5.80163 104.661 6.30052 104.765 6.79204L105.743 6.58523ZM105.807 5.6085C105.918 5.25885 106.114 4.92099 106.407 4.59484L105.664 3.92591C105.287 4.34477 105.013 4.80474 104.854 5.30576L105.807 5.6085ZM106.407 4.59484C106.706 4.26332 107.017 4.03669 107.338 3.89838L106.944 2.97968C106.469 3.18388 106.043 3.50481 105.664 3.92591L106.407 4.59484ZM107.341 3.89731C107.668 3.75441 107.974 3.70523 108.266 3.73365L108.363 2.73837C107.883 2.69156 107.406 2.77774 106.941 2.98075L107.341 3.89731ZM108.268 3.7339C108.552 3.76004 108.801 3.86419 109.028 4.05522L109.673 3.29072C109.293 2.97055 108.852 2.7834 108.36 2.73812L108.268 3.7339ZM108.979 3.33851L108.363 4.0227L109.106 4.69163L109.722 4.00744L108.979 3.33851Z" fill="#DB1D1D"/>
</svg>
