<svg width="125" height="39" viewBox="0 0 125 39" fill="none" xmlns="http://www.w3.org/2000/svg">
<path d="M8.66902 35.4941L2.86768 30.199L4.71891 28.1708C5.08777 27.7667 5.46187 27.4971 5.84121 27.3622C6.21866 27.2255 6.58307 27.1998 6.93445 27.2852C7.28394 27.3688 7.60032 27.5398 7.88358 27.7984C8.13286 28.0259 8.2982 28.2582 8.37959 28.4952C8.46271 28.7303 8.48598 28.9627 8.4494 29.1924C8.41455 29.4202 8.34394 29.6379 8.23758 29.8454L8.29424 29.8971C8.46759 29.73 8.6928 29.6084 8.96986 29.5324C9.24691 29.4564 9.54635 29.4545 9.86817 29.5267C10.19 29.5989 10.5039 29.7746 10.8098 30.0539C11.1006 30.3193 11.3018 30.6241 11.4135 30.9683C11.5251 31.3125 11.5187 31.6893 11.3944 32.0985C11.2701 32.5078 10.9994 32.9409 10.5823 33.3979L8.66902 35.4941ZM8.68703 34.2228L9.9591 32.8291C10.378 32.3702 10.5865 31.9635 10.5848 31.6088C10.583 31.2505 10.4546 30.9551 10.1996 30.7224C10.0032 30.5431 9.77625 30.4277 9.51871 30.3761C9.25929 30.3228 8.99507 30.343 8.72606 30.4367C8.45516 30.5287 8.20423 30.7012 7.97326 30.9542L6.67016 32.3819L8.68703 34.2228ZM6.0583 31.8234L7.24764 30.5204C7.44069 30.3089 7.57323 30.0802 7.64527 29.8344C7.71903 29.5868 7.72605 29.3439 7.66633 29.1059C7.60833 28.8661 7.47736 28.6531 7.2734 28.4669C7.01846 28.2342 6.72122 28.1256 6.38168 28.1411C6.04025 28.1549 5.69373 28.3544 5.3421 28.7396L4.13208 30.0653L6.0583 31.8234Z" fill="#DB1D1D"/>
<path d="M8.66902 35.4941L8.33194 35.8634L8.70124 36.2005L9.03831 35.8312L8.66902 35.4941ZM2.86768 30.199L2.49838 29.8619L2.16131 30.2312L2.53061 30.5683L2.86768 30.199ZM5.84121 27.3622L6.00879 27.8333L6.01144 27.8323L5.84121 27.3622ZM6.93445 27.2852L6.81647 27.771L6.81813 27.7714L6.93445 27.2852ZM8.37959 28.4952L7.90668 28.6576L7.90818 28.6618L8.37959 28.4952ZM8.4494 29.1924L7.95561 29.1138L7.95515 29.1168L8.4494 29.1924ZM8.23758 29.8454L7.79261 29.6174L7.61844 29.9573L7.90051 30.2147L8.23758 29.8454ZM8.29424 29.8971L7.95716 30.2664L8.30364 30.5827L8.64131 30.2571L8.29424 29.8971ZM8.96986 29.5324L9.1021 30.0146L9.1021 30.0146L8.96986 29.5324ZM11.4135 30.9683L11.8891 30.8141L11.8891 30.8141L11.4135 30.9683ZM11.3944 32.0985L10.916 31.9532L10.916 31.9532L11.3944 32.0985ZM8.68703 34.2228L8.34996 34.5921L8.71926 34.9292L9.05633 34.5599L8.68703 34.2228ZM10.5848 31.6088L11.0848 31.6064L11.0848 31.6062L10.5848 31.6088ZM9.51871 30.3761L9.41805 30.8659L9.42049 30.8663L9.51871 30.3761ZM8.72606 30.4367L8.88684 30.9101L8.89055 30.9088L8.72606 30.4367ZM6.67016 32.3819L6.30086 32.0448L5.96379 32.4141L6.33309 32.7512L6.67016 32.3819ZM6.0583 31.8234L5.72123 32.1927L6.09053 32.5298L6.4276 32.1605L6.0583 31.8234ZM7.64527 29.8344L7.16606 29.6917L7.16545 29.6938L7.64527 29.8344ZM7.66633 29.1059L7.18032 29.2235L7.18137 29.2276L7.66633 29.1059ZM6.38168 28.1411L6.40183 28.6407L6.40447 28.6406L6.38168 28.1411ZM4.13208 30.0653L3.76278 29.7282L3.42571 30.0975L3.795 30.4346L4.13208 30.0653ZM9.00609 35.1248L3.20476 29.8297L2.53061 30.5683L8.33194 35.8634L9.00609 35.1248ZM3.23698 30.5361L5.0882 28.5079L4.34961 27.8337L2.49838 29.8619L3.23698 30.5361ZM5.0882 28.5079C5.42075 28.1435 5.72936 27.9327 6.00879 27.8333L5.67363 26.8911C5.19438 27.0616 4.7548 27.3898 4.34961 27.8337L5.0882 28.5079ZM6.01144 27.8323C6.30702 27.7253 6.57099 27.7114 6.81647 27.771L7.05243 26.7993C6.59515 26.6882 6.13029 26.7257 5.67098 26.8921L6.01144 27.8323ZM6.81813 27.7714C7.07979 27.834 7.3214 27.9622 7.54651 28.1677L8.22066 27.4291C7.87923 27.1174 7.48808 26.9035 7.05076 26.7989L6.81813 27.7714ZM7.54651 28.1677C7.75448 28.3575 7.86034 28.5226 7.9067 28.6576L8.85248 28.3327C8.73605 27.9938 8.51124 27.6943 8.22066 27.4291L7.54651 28.1677ZM7.90818 28.6618C7.96557 28.8241 7.97815 28.9723 7.95562 29.1138L8.94318 29.271C8.99381 28.953 8.95985 28.6364 8.851 28.3285L7.90818 28.6618ZM7.95515 29.1168C7.92853 29.2908 7.87476 29.4571 7.79261 29.6174L8.68256 30.0735C8.81313 29.8187 8.90057 29.5496 8.94365 29.268L7.95515 29.1168ZM7.90051 30.2147L7.95716 30.2664L8.63131 29.5278L8.57466 29.4761L7.90051 30.2147ZM8.64131 30.2571C8.7438 30.1582 8.89022 30.0727 9.1021 30.0146L8.83761 29.0502C8.49538 29.1441 8.19139 29.3017 7.94716 29.5372L8.64131 30.2571ZM9.1021 30.0146C9.28929 29.9633 9.50482 29.9576 9.75873 30.0146L9.97761 29.0388C9.58788 28.9514 9.20454 28.9496 8.83761 29.0502L9.1021 30.0146ZM9.75873 30.0146C9.97654 30.0635 10.2149 30.1878 10.4727 30.4232L11.1469 29.6846C10.7929 29.3615 10.4035 29.1344 9.97761 29.0388L9.75873 30.0146ZM10.4727 30.4232C10.7053 30.6354 10.8553 30.868 10.9379 31.1226L11.8891 30.8141C11.7484 30.3802 11.4959 30.0032 11.1469 29.6846L10.4727 30.4232ZM10.9379 31.1226C11.0125 31.3529 11.0162 31.6235 10.916 31.9532L11.8729 32.2438C12.0213 31.755 12.0376 31.2722 11.8891 30.8141L10.9379 31.1226ZM10.916 31.9532C10.8208 32.2667 10.6007 32.6361 10.213 33.0609L10.9516 33.735C11.3982 33.2457 11.7195 32.7489 11.8729 32.2438L10.916 31.9532ZM10.213 33.0609L8.29972 35.157L9.03831 35.8312L10.9516 33.735L10.213 33.0609ZM9.05633 34.5599L10.3284 33.1662L9.5898 32.492L8.31773 33.8857L9.05633 34.5599ZM10.3284 33.1662C10.7737 32.6783 11.0874 32.1522 11.0848 31.6064L10.0848 31.6112C10.0856 31.7747 9.98218 32.0622 9.5898 32.492L10.3284 33.1662ZM11.0848 31.6062C11.0823 31.1143 10.8991 30.6839 10.5367 30.3531L9.86255 31.0917C10.01 31.2263 10.0837 31.3868 10.0848 31.6114L11.0848 31.6062ZM10.5367 30.3531C10.274 30.1133 9.96476 29.9555 9.61693 29.8858L9.42049 30.8663C9.58774 30.8998 9.73241 30.9729 9.86255 31.0917L10.5367 30.3531ZM9.61937 29.8863C9.26492 29.8135 8.90908 29.8434 8.56157 29.9645L8.89055 30.9088C9.08105 30.8425 9.25365 30.8321 9.41805 30.8658L9.61937 29.8863ZM8.56529 29.9632C8.20009 30.0872 7.88061 30.3141 7.60396 30.6172L8.34256 31.2913C8.52785 31.0883 8.71023 30.9701 8.88683 30.9101L8.56529 29.9632ZM7.60396 30.6172L6.30086 32.0448L7.03946 32.719L8.34256 31.2913L7.60396 30.6172ZM6.33309 32.7512L8.34996 34.5921L9.02411 33.8535L7.00724 32.0126L6.33309 32.7512ZM6.4276 32.1605L7.61693 30.8575L6.87834 30.1833L5.689 31.4864L6.4276 32.1605ZM7.61693 30.8575C7.85519 30.5965 8.02923 30.3021 8.12509 29.9751L7.16545 29.6938C7.11723 29.8584 7.02619 30.0214 6.87834 30.1833L7.61693 30.8575ZM8.12447 29.9772C8.22243 29.6482 8.23404 29.314 8.15129 28.9842L7.18137 29.2276C7.21806 29.3739 7.21564 29.5253 7.16607 29.6917L8.12447 29.9772ZM8.15233 28.9884C8.06816 28.6404 7.87897 28.3427 7.61048 28.0976L6.93633 28.8362C7.07574 28.9634 7.1485 29.0918 7.18034 29.2234L8.15233 28.9884ZM7.61048 28.0976C7.2593 27.7771 6.8332 27.62 6.3589 27.6416L6.40447 28.6406C6.60925 28.6312 6.77763 28.6913 6.93633 28.8362L7.61048 28.0976ZM6.36154 27.6415C5.83067 27.6629 5.36787 27.9697 4.9728 28.4025L5.71139 29.0767C6.01958 28.739 6.24984 28.6468 6.40183 28.6407L6.36154 27.6415ZM4.9728 28.4025L3.76278 29.7282L4.50138 30.4024L5.71139 29.0767L4.9728 28.4025ZM3.795 30.4346L5.72123 32.1927L6.39538 31.4541L4.46915 29.696L3.795 30.4346Z" fill="#DB1D1D"/>
<path d="M17.1802 17.0524L17.9426 16.4837L21.0519 20.6524C21.3729 21.0828 21.5581 21.5428 21.6074 22.0323C21.6572 22.5182 21.5713 22.9954 21.3497 23.4637C21.1265 23.93 20.768 24.3473 20.274 24.7157C19.7801 25.0841 19.2779 25.3088 18.7673 25.3898C18.2552 25.4687 17.7724 25.4158 17.3188 25.231C16.8657 25.0426 16.4786 24.7332 16.1576 24.3029L13.0483 20.1341L13.8108 19.5655L16.8742 23.6727C17.1035 23.9801 17.3752 24.2033 17.6893 24.3422C18.0019 24.4791 18.3344 24.5229 18.6869 24.4737C19.0399 24.421 19.3916 24.2639 19.7421 24.0025C20.0925 23.7411 20.3434 23.4487 20.4946 23.1254C20.6442 22.8001 20.697 22.4689 20.6529 22.1318C20.6093 21.7911 20.4729 21.467 20.2436 21.1596L17.1802 17.0524Z" fill="#DB1D1D"/>
<path d="M17.1802 17.0524L16.8812 16.6516L16.4804 16.9505L16.7794 17.3513L17.1802 17.0524ZM17.9426 16.4837L18.3434 16.1848L18.0445 15.784L17.6437 16.0829L17.9426 16.4837ZM21.6074 22.0323L21.1099 22.0824L21.11 22.0833L21.6074 22.0323ZM21.3497 23.4637L21.8007 23.6795L21.8016 23.6776L21.3497 23.4637ZM18.7673 25.3898L18.8435 25.884L18.8456 25.8836L18.7673 25.3898ZM17.3188 25.231L17.1268 25.6927L17.1301 25.694L17.3188 25.231ZM13.0483 20.1341L12.7494 19.7333L12.3486 20.0323L12.6475 20.4331L13.0483 20.1341ZM13.8108 19.5655L14.2116 19.2665L13.9126 18.8657L13.5118 19.1647L13.8108 19.5655ZM17.6893 24.3422L17.4871 24.7995L17.4888 24.8002L17.6893 24.3422ZM18.6869 24.4737L18.756 24.9689L18.7608 24.9682L18.6869 24.4737ZM20.4946 23.1254L20.9475 23.3373L20.9488 23.3344L20.4946 23.1254ZM20.6529 22.1318L20.157 22.1952L20.1571 22.1966L20.6529 22.1318ZM17.4791 17.4532L18.2415 16.8845L17.6437 16.0829L16.8812 16.6516L17.4791 17.4532ZM17.5418 16.7826L20.6511 20.9514L21.4527 20.3535L18.3434 16.1848L17.5418 16.7826ZM20.6511 20.9514C20.923 21.316 21.0705 21.6912 21.1099 22.0824L22.1049 21.9822C22.0456 21.3943 21.8228 20.8497 21.4527 20.3535L20.6511 20.9514ZM21.11 22.0833C21.15 22.4729 21.0828 22.8587 20.8977 23.2498L21.8016 23.6776C22.0598 23.132 22.1645 22.5636 22.1048 21.9813L21.11 22.0833ZM20.8987 23.2478C20.7166 23.6283 20.4165 23.9857 19.9751 24.3149L20.573 25.1165C21.1194 24.7089 21.5364 24.2317 21.8007 23.6795L20.8987 23.2478ZM19.9751 24.3149C19.5337 24.6442 19.1055 24.8299 18.689 24.896L18.8456 25.8836C19.4502 25.7877 20.0265 25.5241 20.573 25.1165L19.9751 24.3149ZM18.6911 24.8956C18.2631 24.9616 17.8723 24.9166 17.5074 24.7679L17.1301 25.694C17.6725 25.915 18.2473 25.9758 18.8435 25.8839L18.6911 24.8956ZM17.5107 24.7693C17.1483 24.6186 16.8309 24.3693 16.5584 24.0039L15.7568 24.6018C16.1263 25.0972 16.583 25.4666 17.1268 25.6927L17.5107 24.7693ZM16.5584 24.0039L13.4491 19.8352L12.6475 20.4331L15.7568 24.6018L16.5584 24.0039ZM13.3473 20.5349L14.1097 19.9663L13.5118 19.1647L12.7494 19.7333L13.3473 20.5349ZM13.41 19.8644L16.4734 23.9716L17.275 23.3738L14.2116 19.2665L13.41 19.8644ZM16.4734 23.9716C16.748 24.3399 17.0854 24.6219 17.4871 24.7995L17.8915 23.8849C17.665 23.7847 17.4589 23.6204 17.275 23.3738L16.4734 23.9716ZM17.4888 24.8002C17.8898 24.9758 18.3161 25.0303 18.756 24.9689L18.6178 23.9785C18.3528 24.0155 18.114 23.9823 17.8898 23.8842L17.4888 24.8002ZM18.7608 24.9682C19.2118 24.9008 19.6391 24.703 20.041 24.4033L19.4431 23.6017C19.1441 23.8247 18.868 23.9411 18.613 23.9792L18.7608 24.9682ZM20.041 24.4033C20.4429 24.1035 20.7543 23.7503 20.9475 23.3373L20.0416 22.9136C19.9324 23.1472 19.7422 23.3786 19.4431 23.6017L20.041 24.4033ZM20.9488 23.3344C21.1356 22.9283 21.2057 22.5025 21.1487 22.0669L20.1571 22.1966C20.1884 22.4353 20.1528 22.6719 20.0403 22.9165L20.9488 23.3344ZM21.1489 22.0683C21.0931 21.6326 20.919 21.2289 20.6444 20.8607L19.8428 21.4585C20.0268 21.7052 20.1255 21.9495 20.157 22.1952L21.1489 22.0683ZM20.6444 20.8607L17.581 16.7534L16.7794 17.3513L19.8428 21.4585L20.6444 20.8607Z" fill="#DB1D1D"/>
<path d="M25.191 11.9521L26.1715 11.4776L29.7295 13.829L29.8123 13.789L30.1761 9.5397L31.1565 9.06524L30.6133 14.458L32.0233 17.3717L31.1671 17.786L29.7571 14.8723L25.191 11.9521Z" fill="#DB1D1D"/>
<path d="M25.191 11.9521L24.9732 11.502L24.1683 11.8915L24.9216 12.3733L25.191 11.9521ZM26.1715 11.4776L26.4471 11.0605L26.2098 10.9036L25.9537 11.0275L26.1715 11.4776ZM29.7295 13.829L29.4538 14.2462L29.6911 14.4031L29.9473 14.2791L29.7295 13.829ZM29.8123 13.789L30.0301 14.239L30.2862 14.1151L30.3105 13.8316L29.8123 13.789ZM30.1761 9.5397L29.9583 9.08963L29.7022 9.21357L29.6779 9.49705L30.1761 9.5397ZM31.1565 9.06524L31.654 9.11535L31.7436 8.22566L30.9387 8.61517L31.1565 9.06524ZM30.6133 14.458L30.1158 14.4079L30.1016 14.5485L30.1632 14.6758L30.6133 14.458ZM32.0233 17.3717L32.2411 17.8218L32.6911 17.604L32.4733 17.1539L32.0233 17.3717ZM31.1671 17.786L30.717 18.0038L30.9348 18.4539L31.3849 18.2361L31.1671 17.786ZM29.7571 14.8723L30.2072 14.6545L30.1456 14.5273L30.0265 14.4511L29.7571 14.8723ZM25.4088 12.4021L26.3893 11.9277L25.9537 11.0275L24.9732 11.502L25.4088 12.4021ZM25.8958 11.8948L29.4538 14.2462L30.0051 13.4119L26.4471 11.0605L25.8958 11.8948ZM29.9473 14.2791L30.0301 14.239L29.5945 13.3389L29.5117 13.379L29.9473 14.2791ZM30.3105 13.8316L30.6742 9.58235L29.6779 9.49705L29.3141 13.7463L30.3105 13.8316ZM30.3939 9.98977L31.3743 9.51531L30.9387 8.61517L29.9583 9.08963L30.3939 9.98977ZM30.659 9.01513L30.1158 14.4079L31.1108 14.5081L31.654 9.11535L30.659 9.01513ZM30.1632 14.6758L31.5732 17.5895L32.4733 17.1539L31.0633 14.2402L30.1632 14.6758ZM31.8055 16.9216L30.9493 17.3359L31.3849 18.2361L32.2411 17.8218L31.8055 16.9216ZM31.6172 17.5682L30.2072 14.6545L29.307 15.0901L30.717 18.0038L31.6172 17.5682ZM30.0265 14.4511L25.4604 11.5309L24.9216 12.3733L29.4877 15.2935L30.0265 14.4511Z" fill="#DB1D1D"/>
<path d="M48.1919 4.66977L48.0676 3.83523L53.8942 2.96721L54.0185 3.80175L51.5756 4.16568L52.6086 11.0999L51.6679 11.2401L50.6348 4.30583L48.1919 4.66977Z" fill="#DB1D1D"/>
<path d="M48.1919 4.66977L47.6974 4.74344L47.7711 5.23798L48.2656 5.16431L48.1919 4.66977ZM48.0676 3.83523L47.9939 3.34068L47.4994 3.41436L47.5731 3.9089L48.0676 3.83523ZM53.8942 2.96721L54.3887 2.89353L54.3151 2.39899L53.8205 2.47267L53.8942 2.96721ZM54.0185 3.80175L54.0922 4.29629L54.5867 4.22262L54.5131 3.72807L54.0185 3.80175ZM51.5756 4.16568L51.5019 3.67114L51.0074 3.74481L51.0811 4.23936L51.5756 4.16568ZM52.6086 11.0999L52.6823 11.5945L53.1768 11.5208L53.1032 11.0263L52.6086 11.0999ZM51.6679 11.2401L51.1733 11.3138L51.247 11.8083L51.7415 11.7346L51.6679 11.2401ZM50.6348 4.30583L51.1294 4.23216L51.0557 3.73761L50.5612 3.81129L50.6348 4.30583ZM48.6865 4.59609L48.5621 3.76155L47.5731 3.9089L47.6974 4.74344L48.6865 4.59609ZM48.1413 4.32977L53.9679 3.46175L53.8205 2.47267L47.9939 3.34068L48.1413 4.32977ZM53.3997 3.04088L53.524 3.87542L54.5131 3.72807L54.3887 2.89353L53.3997 3.04088ZM53.9448 3.30721L51.5019 3.67114L51.6493 4.66022L54.0922 4.29629L53.9448 3.30721ZM51.0811 4.23936L52.1141 11.1736L53.1032 11.0263L52.0701 4.09201L51.0811 4.23936ZM52.535 10.6054L51.5942 10.7456L51.7415 11.7346L52.6823 11.5945L52.535 10.6054ZM52.1624 11.1664L51.1294 4.23216L50.1403 4.37951L51.1733 11.3138L52.1624 11.1664ZM50.5612 3.81129L48.1182 4.17522L48.2656 5.16431L50.7085 4.80037L50.5612 3.81129Z" fill="#DB1D1D"/>
<path d="M62.3533 2.54455L62.4086 10.3989L61.4575 10.4056L61.4022 2.55125L62.3533 2.54455Z" fill="#DB1D1D"/>
<path d="M62.3533 2.54455L62.8533 2.54103L62.8498 2.04104L62.3498 2.04456L62.3533 2.54455ZM62.4086 10.3989L62.4121 10.8989L62.9121 10.8954L62.9086 10.3954L62.4086 10.3989ZM61.4575 10.4056L60.9575 10.4091L60.961 10.9091L61.461 10.9056L61.4575 10.4056ZM61.4022 2.55125L61.3987 2.05126L60.8987 2.05478L60.9022 2.55477L61.4022 2.55125ZM61.8533 2.54807L61.9086 10.4024L62.9086 10.3954L62.8533 2.54103L61.8533 2.54807ZM62.4051 9.8989L61.454 9.9056L61.461 10.9056L62.4121 10.8989L62.4051 9.8989ZM61.9575 10.4021L61.9022 2.54773L60.9022 2.55477L60.9575 10.4091L61.9575 10.4021ZM61.4057 3.05123L62.3568 3.04454L62.3498 2.04456L61.3987 2.05126L61.4057 3.05123Z" fill="#DB1D1D"/>
<path d="M76.3379 6.20689L75.3962 6.07337C75.3789 5.7946 75.3152 5.54283 75.205 5.31803C75.0974 5.0936 74.9547 4.89777 74.777 4.73054C74.6022 4.56114 74.4008 4.42413 74.1729 4.31951C73.945 4.21489 73.7019 4.14427 73.4437 4.10766C72.9728 4.0409 72.5294 4.0994 72.1134 4.28316C71.7 4.46729 71.3477 4.77501 71.0567 5.20633C70.7683 5.63801 70.5763 6.19053 70.4808 6.86391C70.3854 7.53729 70.4162 8.1214 70.5733 8.61625C70.7329 9.11146 70.9857 9.50497 71.3317 9.79677C71.6802 10.0889 72.0899 10.2684 72.5607 10.3351C72.819 10.3718 73.0721 10.3715 73.3201 10.3343C73.5681 10.2972 73.7994 10.2228 74.0141 10.1112C74.2316 9.99747 74.4233 9.84775 74.5891 9.66208C74.7577 9.47424 74.889 9.2501 74.9827 8.98966L75.9244 9.12318C75.7972 9.51057 75.6176 9.84794 75.3858 10.1353C75.154 10.4226 74.8832 10.6567 74.5735 10.8374C74.2642 11.0157 73.928 11.1372 73.5651 11.2019C73.2046 11.267 72.8282 11.2717 72.4358 11.2161C71.7726 11.1221 71.2057 10.8764 70.7352 10.4792C70.2647 10.0819 69.9238 9.56358 69.7123 8.92415C69.5008 8.28472 69.4532 7.5549 69.5695 6.7347C69.6858 5.91449 69.9344 5.22667 70.3153 4.67123C70.6962 4.11579 71.1678 3.71267 71.7302 3.46186C72.2925 3.21105 72.9053 3.13266 73.5686 3.2267C73.961 3.28233 74.3212 3.39151 74.6494 3.55425C74.98 3.71734 75.269 3.92874 75.5162 4.18846C75.7638 4.44566 75.959 4.74448 76.1019 5.08495C76.245 5.42288 76.3237 5.79686 76.3379 6.20689Z" fill="#DB1D1D"/>
<path d="M76.3379 6.20689L76.2677 6.70194L76.8582 6.78566L76.8376 6.18962L76.3379 6.20689ZM75.3962 6.07337L74.8971 6.10432L74.9224 6.51119L75.326 6.56842L75.3962 6.07337ZM75.205 5.31803L74.7541 5.53424L74.756 5.53806L75.205 5.31803ZM74.777 4.73054L74.429 5.08966L74.4343 5.09467L74.777 4.73054ZM74.1729 4.31951L73.9643 4.77392L73.9643 4.77392L74.1729 4.31951ZM72.1134 4.28316L71.9114 3.8258L71.91 3.82641L72.1134 4.28316ZM71.0567 5.20633L70.6422 4.92669L70.641 4.92853L71.0567 5.20633ZM70.5733 8.61625L70.0967 8.76754L70.0974 8.76965L70.5733 8.61625ZM71.3317 9.79677L71.0093 10.179L71.0105 10.1799L71.3317 9.79677ZM73.3201 10.3343L73.246 9.83986L73.246 9.83986L73.3201 10.3343ZM74.0141 10.1112L74.2447 10.5549L74.2458 10.5543L74.0141 10.1112ZM74.5891 9.66208L74.217 9.32803L74.2161 9.32908L74.5891 9.66208ZM74.9827 8.98966L75.0529 8.49461L74.65 8.43749L74.5122 8.82033L74.9827 8.98966ZM75.9244 9.12318L76.3994 9.27919L76.5857 8.71194L75.9946 8.62813L75.9244 9.12318ZM75.3858 10.1353L74.9967 9.82132L74.9967 9.82132L75.3858 10.1353ZM74.5735 10.8374L74.8231 11.2707L74.8256 11.2693L74.5735 10.8374ZM73.5651 11.2019L73.4773 10.7097L73.4762 10.7099L73.5651 11.2019ZM70.7352 10.4792L70.4127 10.8612L70.4127 10.8612L70.7352 10.4792ZM69.7123 8.92415L70.187 8.76715L70.187 8.76715L69.7123 8.92415ZM74.6494 3.55425L74.4272 4.00219L74.4282 4.00267L74.6494 3.55425ZM75.5162 4.18846L75.1541 4.53321L75.156 4.53524L75.5162 4.18846ZM76.1019 5.08495L75.6408 5.27837L75.6415 5.28001L76.1019 5.08495ZM76.4081 5.71184L75.4664 5.57832L75.326 6.56842L76.2677 6.70194L76.4081 5.71184ZM75.8952 6.04242C75.8743 5.70555 75.7963 5.38839 75.654 5.09801L74.756 5.53806C74.834 5.69726 74.8834 5.88366 74.8971 6.10432L75.8952 6.04242ZM75.6558 5.10183C75.5221 4.82298 75.3431 4.57671 75.1196 4.36641L74.4343 5.09467C74.5663 5.21883 74.6726 5.36422 74.7542 5.53424L75.6558 5.10183ZM75.1249 4.37146C74.9082 4.16142 74.6593 3.99264 74.3815 3.8651L73.9643 4.77392C74.1423 4.85561 74.2962 4.96085 74.429 5.08962L75.1249 4.37146ZM74.3815 3.8651C74.1079 3.73952 73.818 3.65573 73.5139 3.61261L73.3735 4.60271C73.5858 4.63281 73.782 4.69026 73.9643 4.77392L74.3815 3.8651ZM73.5139 3.61261C72.955 3.53337 72.4168 3.60253 71.9114 3.8258L72.3155 4.74053C72.642 4.59628 72.9907 4.54843 73.3735 4.60271L73.5139 3.61261ZM71.91 3.82641C71.3988 4.05406 70.9776 4.42959 70.6422 4.92669L71.4712 5.48596C71.7178 5.12043 72.0011 4.88051 72.3168 4.73992L71.91 3.82641ZM70.641 4.92853C70.3 5.4388 70.0887 6.06815 69.9858 6.79372L70.9759 6.9341C71.064 6.31291 71.2365 5.83721 71.4725 5.48412L70.641 4.92853ZM69.9858 6.79372C69.8829 7.51929 69.911 8.1826 70.0967 8.76754L71.0498 8.46497C70.9213 8.06021 70.8878 7.55529 70.9759 6.9341L69.9858 6.79372ZM70.0974 8.76965C70.2813 9.34038 70.5815 9.81819 71.0093 10.179L71.654 9.41455C71.3898 9.19175 71.1844 8.88254 71.0492 8.46286L70.0974 8.76965ZM71.0105 10.1799C71.4339 10.5349 71.9316 10.7509 72.4905 10.8302L72.6309 9.8401C72.2481 9.78582 71.9265 9.64293 71.6529 9.41359L71.0105 10.1799ZM72.4905 10.8302C72.7947 10.8733 73.0964 10.8734 73.3941 10.8288L73.246 9.83986C73.0477 9.86956 72.8432 9.87019 72.6309 9.8401L72.4905 10.8302ZM73.3941 10.8288C73.6948 10.7838 73.9792 10.6929 74.2447 10.5549L73.7835 9.6676C73.6196 9.75279 73.4414 9.8106 73.246 9.83986L73.3941 10.8288ZM74.2458 10.5543C74.5174 10.4123 74.7568 10.225 74.9621 9.99509L74.2161 9.32908C74.0899 9.47049 73.9459 9.58268 73.7824 9.66816L74.2458 10.5543ZM74.9611 9.99613C75.1769 9.75581 75.3397 9.47429 75.4531 9.15898L74.5122 8.82033C74.4382 9.0259 74.3386 9.19267 74.2171 9.32803L74.9611 9.99613ZM74.9125 9.48471L75.8542 9.61823L75.9946 8.62813L75.0529 8.49461L74.9125 9.48471ZM75.4494 8.96716C75.339 9.30313 75.1868 9.58567 74.9967 9.82132L75.7749 10.4493C76.0485 10.1102 76.2553 9.71801 76.3994 9.27919L75.4494 8.96716ZM74.9967 9.82132C74.8018 10.0628 74.5771 10.2564 74.3215 10.4056L74.8256 11.2693C75.1893 11.057 75.5061 10.7825 75.7749 10.4493L74.9967 9.82132ZM74.3239 10.4042C74.0663 10.5526 73.7852 10.6547 73.4773 10.7097L73.6529 11.6941C74.0709 11.6196 74.462 11.4787 74.8231 11.2707L74.3239 10.4042ZM73.4762 10.7099C73.1724 10.7647 72.8499 10.7698 72.506 10.7211L72.3656 11.7112C72.8065 11.7737 73.2368 11.7693 73.6539 11.6939L73.4762 10.7099ZM72.506 10.7211C71.9274 10.639 71.4502 10.4284 71.0578 10.0971L70.4127 10.8612C70.9613 11.3244 71.6178 11.6051 72.3656 11.7112L72.506 10.7211ZM71.0578 10.0971C70.6644 9.76494 70.3723 9.32746 70.187 8.76715L69.2376 9.08115C69.4752 9.79969 69.8651 10.3989 70.4127 10.8612L71.0578 10.0971ZM70.187 8.76715C70.0046 8.21577 69.9566 7.56603 70.0646 6.80489L69.0745 6.66451C68.9498 7.54378 68.997 8.35368 69.2376 9.08115L70.187 8.76715ZM70.0646 6.80489C70.1725 6.04375 70.3992 5.43296 70.7276 4.95401L69.9029 4.38846C69.4696 5.02038 69.1991 5.78524 69.0745 6.66451L70.0646 6.80489ZM70.7276 4.95401C71.0614 4.46729 71.4636 4.12824 71.9338 3.9185L71.5265 3.00521C70.872 3.2971 70.3309 3.7643 69.9029 4.38846L70.7276 4.95401ZM71.9338 3.9185C72.4028 3.70933 72.9197 3.6397 73.4984 3.72175L73.6388 2.73165C72.891 2.62562 72.1822 2.71276 71.5265 3.00521L71.9338 3.9185ZM73.4984 3.72175C73.8423 3.7705 74.1507 3.86503 74.4272 4.00219L74.8715 3.10631C74.4918 2.918 74.0797 2.79416 73.6388 2.73165L73.4984 3.72175ZM74.4282 4.00267C74.7077 4.1405 74.9485 4.31727 75.1541 4.53321L75.8784 3.84372C75.5895 3.54022 75.2524 3.29417 74.8705 3.10582L74.4282 4.00267ZM75.156 4.53524C75.3594 4.74645 75.521 4.99283 75.6408 5.27837L76.5629 4.89153C76.3971 4.49614 76.1683 4.14486 75.8764 3.84169L75.156 4.53524ZM75.6415 5.28001C75.7581 5.55534 75.8259 5.86813 75.8382 6.22416L76.8376 6.18962C76.8216 5.7256 76.7319 5.29043 76.5622 4.88989L75.6415 5.28001Z" fill="#DB1D1D"/>
<path d="M81.9231 13.0756L84.4232 5.62959L85.3249 5.93235L84.0846 9.62626L84.1718 9.65556L88.757 7.08476L89.935 7.4803L85.6803 9.78985L87.4348 14.9263L86.3441 14.5601L84.9177 10.2296L83.6353 10.9642L82.8247 13.3784L81.9231 13.0756Z" fill="#DB1D1D"/>
<path d="M81.9231 13.0756L81.4491 12.9164L81.2899 13.3904L81.7639 13.5496L81.9231 13.0756ZM84.4232 5.62959L84.5824 5.1556L84.1084 4.99645L83.9492 5.47044L84.4232 5.62959ZM85.3249 5.93235L85.7989 6.0915L85.958 5.61751L85.484 5.45835L85.3249 5.93235ZM84.0846 9.62626L83.6106 9.46711L83.4514 9.9411L83.9254 10.1003L84.0846 9.62626ZM84.1718 9.65556L84.0127 10.1296L84.2229 10.2001L84.4163 10.0917L84.1718 9.65556ZM88.757 7.08476L88.9162 6.61077L88.7059 6.54018L88.5125 6.64864L88.757 7.08476ZM89.935 7.4803L90.1735 7.91973L91.1829 7.37186L90.0942 7.0063L89.935 7.4803ZM85.6803 9.78985L85.4417 9.35042L85.0706 9.55187L85.2071 9.95148L85.6803 9.78985ZM87.4348 14.9263L87.2757 15.4003L88.2352 15.7225L87.908 14.7647L87.4348 14.9263ZM86.3441 14.5601L85.8692 14.7165L85.9476 14.9543L86.185 15.0341L86.3441 14.5601ZM84.9177 10.2296L85.3926 10.0732L85.2008 9.4912L84.6691 9.79579L84.9177 10.2296ZM83.6353 10.9642L83.3868 10.5304L83.2218 10.6249L83.1613 10.8051L83.6353 10.9642ZM82.8247 13.3784L82.6656 13.8523L83.1396 14.0115L83.2987 13.5375L82.8247 13.3784ZM82.3971 13.2348L84.8972 5.78875L83.9492 5.47044L81.4491 12.9164L82.3971 13.2348ZM84.2641 6.10359L85.1657 6.40634L85.484 5.45835L84.5824 5.1556L84.2641 6.10359ZM84.8509 5.77319L83.6106 9.46711L84.5586 9.78542L85.7989 6.0915L84.8509 5.77319ZM83.9254 10.1003L84.0127 10.1296L84.331 9.18157L84.2437 9.15227L83.9254 10.1003ZM84.4163 10.0917L89.0015 7.52089L88.5125 6.64864L83.9273 9.21943L84.4163 10.0917ZM88.5979 7.55876L89.7759 7.95429L90.0942 7.0063L88.9162 6.61077L88.5979 7.55876ZM89.6965 7.04086L85.4417 9.35042L85.9188 10.2293L90.1735 7.91973L89.6965 7.04086ZM85.2071 9.95148L86.9617 15.0879L87.908 14.7647L86.1534 9.62823L85.2071 9.95148ZM87.594 14.4523L86.5033 14.0861L86.185 15.0341L87.2757 15.4003L87.594 14.4523ZM86.819 14.4036L85.3926 10.0732L84.4428 10.3861L85.8692 14.7165L86.819 14.4036ZM84.6691 9.79579L83.3868 10.5304L83.8839 11.3981L85.1662 10.6635L84.6691 9.79579ZM83.1613 10.8051L82.3507 13.2192L83.2987 13.5375L84.1093 11.1234L83.1613 10.8051ZM82.9839 12.9044L82.0822 12.6016L81.7639 13.5496L82.6656 13.8523L82.9839 12.9044Z" fill="#DB1D1D"/>
<path d="M93.8709 17.7595L97.6366 10.8665L101.797 13.1391L101.392 13.8796L98.0667 12.0629L96.7944 14.392L99.9043 16.091L99.4998 16.8314L96.3898 15.1325L95.1101 17.475L98.4893 19.3211L98.0848 20.0615L93.8709 17.7595Z" fill="#DB1D1D"/>
<path d="M93.8709 17.7595L93.4321 17.5198L93.1924 17.9586L93.6312 18.1983L93.8709 17.7595ZM97.6366 10.8665L97.8763 10.4277L97.4375 10.188L97.1978 10.6268L97.6366 10.8665ZM101.797 13.1391L102.235 13.3788L102.475 12.94L102.036 12.7003L101.797 13.1391ZM101.392 13.8796L101.152 14.3184L101.591 14.5581L101.831 14.1193L101.392 13.8796ZM98.0667 12.0629L98.3065 11.6241L97.8677 11.3844L97.6279 11.8232L98.0667 12.0629ZM96.7944 14.392L96.3556 14.1523L96.1159 14.5911L96.5546 14.8308L96.7944 14.392ZM99.9043 16.091L100.343 16.3307L100.583 15.8919L100.144 15.6522L99.9043 16.091ZM99.4998 16.8314L99.2601 17.2702L99.6989 17.5099L99.9386 17.0711L99.4998 16.8314ZM96.3898 15.1325L96.6296 14.6937L96.1908 14.454L95.9511 14.8928L96.3898 15.1325ZM95.1101 17.475L94.6713 17.2353L94.4316 17.6741L94.8704 17.9138L95.1101 17.475ZM98.4893 19.3211L98.9281 19.5608L99.1678 19.122L98.729 18.8823L98.4893 19.3211ZM98.0848 20.0615L97.8451 20.5003L98.2839 20.74L98.5236 20.3012L98.0848 20.0615ZM94.3097 17.9992L98.0753 11.1062L97.1978 10.6268L93.4321 17.5198L94.3097 17.9992ZM97.3968 11.3053L101.557 13.5779L102.036 12.7003L97.8763 10.4277L97.3968 11.3053ZM101.358 12.8994L100.953 13.6399L101.831 14.1193L102.235 13.3788L101.358 12.8994ZM101.632 13.4408L98.3065 11.6241L97.827 12.5017L101.152 14.3184L101.632 13.4408ZM97.6279 11.8232L96.3556 14.1523L97.2331 14.6317L98.5055 12.3026L97.6279 11.8232ZM96.5546 14.8308L99.6646 16.5298L100.144 15.6522L97.0341 13.9532L96.5546 14.8308ZM99.4655 15.8513L99.061 16.5917L99.9386 17.0711L100.343 16.3307L99.4655 15.8513ZM99.7395 16.3926L96.6296 14.6937L96.1501 15.5713L99.2601 17.2702L99.7395 16.3926ZM95.9511 14.8928L94.6713 17.2353L95.5489 17.7147L96.8286 15.3722L95.9511 14.8928ZM94.8704 17.9138L98.2496 19.7599L98.729 18.8823L95.3498 17.0362L94.8704 17.9138ZM98.0505 19.0814L97.646 19.8218L98.5236 20.3012L98.9281 19.5608L98.0505 19.0814ZM98.3245 19.6227L94.1106 17.3207L93.6312 18.1983L97.8451 20.5003L98.3245 19.6227Z" fill="#DB1D1D"/>
<path d="M107.989 18.1645L108.512 17.5026L113.133 21.1562L112.61 21.8181L110.672 20.2862L106.324 25.7857L105.578 25.1958L109.926 19.6963L107.989 18.1645Z" fill="#DB1D1D"/>
<path d="M107.989 18.1645L107.597 17.8544L107.286 18.2466L107.679 18.5567L107.989 18.1645ZM108.512 17.5026L108.822 17.1104L108.43 16.8003L108.12 17.1925L108.512 17.5026ZM113.133 21.1562L113.525 21.4663L113.835 21.0741L113.443 20.764L113.133 21.1562ZM112.61 21.8181L112.3 22.2103L112.692 22.5204L113.002 22.1282L112.61 21.8181ZM110.672 20.2862L110.982 19.894L110.59 19.5839L110.28 19.9761L110.672 20.2862ZM106.324 25.7857L106.014 26.1779L106.406 26.488L106.716 26.0958L106.324 25.7857ZM105.578 25.1958L105.186 24.8857L104.876 25.2779L105.268 25.588L105.578 25.1958ZM109.926 19.6963L110.318 20.0064L110.629 19.6142L110.236 19.3041L109.926 19.6963ZM108.381 18.4746L108.904 17.8127L108.12 17.1925L107.597 17.8544L108.381 18.4746ZM108.202 17.8948L112.823 21.5484L113.443 20.764L108.822 17.1104L108.202 17.8948ZM112.741 20.8461L112.218 21.508L113.002 22.1282L113.525 21.4663L112.741 20.8461ZM112.92 21.4259L110.982 19.894L110.362 20.6784L112.3 22.2103L112.92 21.4259ZM110.28 19.9761L105.932 25.4756L106.716 26.0958L111.065 20.5963L110.28 19.9761ZM106.634 25.3935L105.888 24.8036L105.268 25.588L106.014 26.1779L106.634 25.3935ZM105.97 25.5059L110.318 20.0064L109.534 19.3862L105.186 24.8857L105.97 25.5059ZM110.236 19.3041L108.299 17.7722L107.679 18.5567L109.616 20.0885L110.236 19.3041Z" fill="#DB1D1D"/>
<path d="M120.154 30.9657C120.412 30.6715 120.512 30.331 120.453 29.944C120.393 29.5571 120.205 29.1869 119.886 28.8334C119.654 28.5749 119.408 28.3863 119.15 28.2677C118.894 28.151 118.644 28.1044 118.4 28.1277C118.158 28.153 117.944 28.2494 117.758 28.4171C117.602 28.5573 117.501 28.7149 117.456 28.89C117.414 29.0652 117.409 29.2451 117.441 29.4296C117.475 29.6124 117.526 29.7898 117.595 29.9618C117.665 30.1321 117.735 30.2843 117.804 30.4183L118.178 31.1549C118.275 31.3429 118.372 31.5616 118.469 31.8111C118.568 32.0626 118.634 32.3285 118.666 32.6091C118.702 32.8898 118.677 33.1708 118.589 33.4523C118.502 33.7337 118.322 33.9976 118.048 34.2439C117.733 34.5278 117.373 34.7017 116.97 34.7655C116.568 34.8313 116.15 34.7739 115.716 34.5936C115.284 34.4151 114.866 34.1016 114.462 33.6531C114.086 33.2349 113.827 32.8122 113.687 32.3848C113.548 31.9592 113.521 31.5504 113.605 31.1584C113.691 30.7682 113.883 30.4181 114.182 30.1079L114.838 30.8377C114.635 31.0551 114.519 31.2935 114.491 31.5527C114.467 31.8121 114.509 32.0732 114.618 32.3361C114.731 32.5991 114.892 32.8465 115.1 33.0784C115.343 33.3483 115.605 33.5513 115.886 33.6873C116.168 33.8217 116.445 33.8806 116.716 33.8641C116.988 33.8459 117.231 33.741 117.444 33.5494C117.638 33.375 117.747 33.1789 117.771 32.9611C117.795 32.7433 117.765 32.5118 117.682 32.2666C117.599 32.0215 117.494 31.7706 117.366 31.514L116.925 30.6109C116.646 30.0368 116.508 29.5072 116.512 29.0222C116.516 28.5372 116.714 28.1177 117.108 27.7636C117.435 27.4695 117.799 27.3013 118.201 27.2591C118.607 27.2171 119.013 27.2856 119.418 27.4644C119.827 27.6435 120.199 27.9193 120.534 28.2918C120.873 28.6681 121.106 29.0633 121.235 29.4774C121.365 29.8898 121.391 30.2859 121.313 30.6656C121.237 31.0472 121.056 31.3753 120.77 31.6499L120.154 30.9657Z" fill="#DB1D1D"/>
<path d="M120.154 30.9657L119.778 30.6359L119.485 30.9699L119.783 31.3002L120.154 30.9657ZM120.453 29.944L119.958 30.0197L119.958 30.0197L120.453 29.944ZM119.15 28.2677L119.359 27.8134L119.358 27.8127L119.15 28.2677ZM118.4 28.1277L118.352 27.63L118.348 27.6304L118.4 28.1277ZM117.456 28.89L116.972 28.7643L116.969 28.7739L117.456 28.89ZM117.441 29.4296L116.948 29.5148L116.949 29.5206L117.441 29.4296ZM117.595 29.9618L117.13 30.1475L117.133 30.1535L117.595 29.9618ZM117.804 30.4183L118.25 30.1919L118.249 30.1894L117.804 30.4183ZM118.178 31.1549L117.732 31.3812L117.734 31.384L118.178 31.1549ZM118.469 31.8111L118.004 31.9928L118.004 31.9943L118.469 31.8111ZM118.666 32.6091L118.17 32.6662L118.17 32.6725L118.666 32.6091ZM118.589 33.4523L119.067 33.6003L119.067 33.6003L118.589 33.4523ZM116.97 34.7655L116.891 34.2717L116.889 34.2721L116.97 34.7655ZM115.716 34.5936L115.908 34.1319L115.907 34.1314L115.716 34.5936ZM113.687 32.3848L113.211 32.5397L113.212 32.5408L113.687 32.3848ZM113.605 31.1584L113.116 31.0511L113.116 31.0536L113.605 31.1584ZM114.182 30.1079L114.553 29.7735L114.194 29.3743L113.821 29.761L114.182 30.1079ZM114.838 30.8377L115.203 31.1793L115.517 30.8443L115.21 30.5033L114.838 30.8377ZM114.491 31.5527L113.994 31.4987L113.993 31.5056L114.491 31.5527ZM114.618 32.3361L114.156 32.528L114.159 32.5332L114.618 32.3361ZM115.886 33.6873L115.668 34.1373L115.671 34.1389L115.886 33.6873ZM116.716 33.8641L116.746 34.3632L116.749 34.363L116.716 33.8641ZM117.771 32.9611L118.268 33.0162L118.268 33.0162L117.771 32.9611ZM117.682 32.2666L117.209 32.427L117.209 32.427L117.682 32.2666ZM117.366 31.514L116.917 31.7335L116.919 31.7368L117.366 31.514ZM116.925 30.6109L116.475 30.8297L116.476 30.8304L116.925 30.6109ZM116.512 29.0222L116.012 29.0183L116.012 29.0183L116.512 29.0222ZM118.201 27.2591L118.15 26.7618L118.149 26.7618L118.201 27.2591ZM119.418 27.4644L119.216 27.9219L119.218 27.9224L119.418 27.4644ZM121.235 29.4774L120.757 29.6255L120.758 29.6281L121.235 29.4774ZM121.313 30.6656L120.824 30.565L120.823 30.5676L121.313 30.6656ZM120.77 31.6499L120.398 31.9844L120.744 32.3682L121.116 32.0106L120.77 31.6499ZM120.53 31.2954C120.886 30.8902 121.028 30.4012 120.947 29.8683L119.958 30.0197C119.995 30.2607 119.939 30.4528 119.778 30.6359L120.53 31.2954ZM120.947 29.8683C120.87 29.366 120.627 28.9091 120.258 28.4989L119.515 29.1678C119.782 29.4646 119.917 29.7481 119.958 30.0197L120.947 29.8683ZM120.258 28.4989C119.99 28.2009 119.691 27.9661 119.359 27.8134L118.942 28.7221C119.126 28.8066 119.318 28.9489 119.515 29.1678L120.258 28.4989ZM119.358 27.8127C119.034 27.6652 118.696 27.5971 118.352 27.63L118.448 28.6255C118.592 28.6116 118.755 28.6369 118.943 28.7228L119.358 27.8127ZM118.348 27.6304C117.998 27.667 117.685 27.8093 117.423 28.0454L118.092 28.7887C118.202 28.6896 118.318 28.639 118.452 28.625L118.348 27.6304ZM117.423 28.0454C117.206 28.2405 117.045 28.48 116.972 28.7644L117.94 29.0156C117.957 28.9499 117.997 28.8741 118.092 28.7887L117.423 28.0454ZM116.969 28.7739C116.911 29.0177 116.905 29.2662 116.948 29.5148L117.933 29.3444C117.913 29.224 117.917 29.1127 117.942 29.006L116.969 28.7739ZM116.949 29.5206C116.989 29.7357 117.049 29.9448 117.13 30.1475L118.059 29.7762C118.002 29.6349 117.96 29.4892 117.932 29.3387L116.949 29.5206ZM117.133 30.1535C117.208 30.3338 117.283 30.4987 117.36 30.6471L118.249 30.1894C118.187 30.0699 118.123 29.9305 118.056 29.7701L117.133 30.1535ZM117.358 30.6446L117.732 31.3812L118.624 30.9285L118.25 30.1919L117.358 30.6446ZM117.734 31.384C117.821 31.5531 117.911 31.7554 118.004 31.9928L118.935 31.6295C118.833 31.3678 118.729 31.1326 118.623 30.9257L117.734 31.384ZM118.004 31.9943C118.087 32.2035 118.142 32.427 118.17 32.6662L119.163 32.5519C119.126 32.2301 119.05 31.9216 118.935 31.6279L118.004 31.9943ZM118.17 32.6725C118.197 32.8793 118.179 33.0883 118.112 33.3042L119.067 33.6003C119.175 33.2534 119.208 32.9003 119.162 32.5456L118.17 32.6725ZM118.112 33.3042C118.057 33.4806 117.937 33.6713 117.714 33.8722L118.383 34.6156C118.707 34.3239 118.947 33.9869 119.067 33.6003L118.112 33.3042ZM117.714 33.8722C117.467 34.0942 117.196 34.2235 116.891 34.2717L117.048 35.2594C117.551 35.1798 117.998 34.9615 118.383 34.6156L117.714 33.8722ZM116.889 34.2721C116.593 34.3206 116.269 34.2821 115.908 34.1319L115.524 35.0553C116.031 35.2658 116.543 35.342 117.05 35.259L116.889 34.2721ZM115.907 34.1314C115.56 33.9885 115.201 33.7271 114.834 33.3186L114.09 33.9875C114.53 34.4761 115.007 34.8417 115.525 35.0557L115.907 34.1314ZM114.834 33.3186C114.492 32.9396 114.276 32.5758 114.162 32.2287L113.212 32.5408C113.379 33.0486 113.679 33.5303 114.09 33.9875L114.834 33.3186ZM114.162 32.2298C114.048 31.8782 114.03 31.5592 114.094 31.2632L113.116 31.0536C113.011 31.5416 113.049 32.0403 113.211 32.5397L114.162 32.2298ZM114.093 31.2657C114.158 30.9727 114.302 30.7039 114.542 30.4548L113.821 29.761C113.464 30.1323 113.224 30.5637 113.116 31.0511L114.093 31.2657ZM113.81 30.4424L114.467 31.1722L115.21 30.5033L114.553 29.7735L113.81 30.4424ZM114.473 30.4962C114.207 30.7809 114.035 31.117 113.994 31.4987L114.988 31.6066C115.003 31.4699 115.063 31.3293 115.203 31.1793L114.473 30.4962ZM113.993 31.5056C113.96 31.8538 114.019 32.1968 114.156 32.528L115.08 32.1441C114.999 31.9497 114.973 31.7704 114.989 31.5997L113.993 31.5056ZM114.159 32.5332C114.295 32.8508 114.487 33.144 114.729 33.4129L115.472 32.7439C115.297 32.5491 115.167 32.3473 115.078 32.1389L114.159 32.5332ZM114.729 33.4129C115.008 33.723 115.32 33.9687 115.668 34.1373L116.104 33.2374C115.89 33.1338 115.679 32.9735 115.472 32.7439L114.729 33.4129ZM115.671 34.1389C116.018 34.3039 116.379 34.3856 116.746 34.3632L116.685 33.3651C116.511 33.3757 116.319 33.3395 116.101 33.2358L115.671 34.1389ZM116.749 34.363C117.139 34.3369 117.486 34.1837 117.778 33.9211L117.109 33.1778C116.975 33.2983 116.837 33.3549 116.682 33.3652L116.749 34.363ZM117.778 33.9211C118.045 33.6811 118.228 33.3782 118.268 33.0162L117.274 32.906C117.266 32.9795 117.23 33.0689 117.109 33.1778L117.778 33.9211ZM118.268 33.0162C118.301 32.7137 118.258 32.4082 118.156 32.1062L117.209 32.427C117.273 32.6154 117.289 32.7729 117.274 32.906L118.268 33.0162ZM118.156 32.1062C118.065 31.8376 117.951 31.5659 117.814 31.2913L116.919 31.7368C117.037 31.9753 117.134 32.2054 117.209 32.427L118.156 32.1062ZM117.816 31.2945L117.374 30.3914L116.476 30.8304L116.917 31.7335L117.816 31.2945ZM117.375 30.3922C117.119 29.8663 117.009 29.4136 117.012 29.0261L116.012 29.0183C116.007 29.6008 116.173 30.2072 116.475 30.8297L117.375 30.3922ZM117.012 29.0261C117.014 28.6952 117.142 28.405 117.442 28.1353L116.773 27.392C116.286 27.8304 116.017 28.3792 116.012 29.0183L117.012 29.0261ZM117.442 28.1353C117.698 27.9053 117.966 27.7866 118.254 27.7564L118.149 26.7618C117.633 26.816 117.171 27.0337 116.773 27.392L117.442 28.1353ZM118.253 27.7565C118.565 27.7242 118.884 27.775 119.216 27.9218L119.62 27.007C119.142 26.7961 118.65 26.7101 118.15 26.7618L118.253 27.7565ZM119.218 27.9224C119.554 28.0696 119.869 28.3001 120.162 28.6262L120.906 27.9573C120.529 27.5384 120.1 27.2173 119.619 27.0064L119.218 27.9224ZM120.162 28.6262C120.461 28.9577 120.653 29.2911 120.757 29.6255L121.712 29.3293C121.559 28.8355 121.285 28.3784 120.906 27.9573L120.162 28.6262ZM120.758 29.6281C120.866 29.9688 120.883 30.2782 120.824 30.565L121.803 30.7661C121.9 30.2936 121.865 29.8108 121.712 29.3267L120.758 29.6281ZM120.823 30.5676C120.767 30.847 120.638 31.084 120.424 31.2892L121.116 32.0106C121.475 31.6666 121.707 31.2474 121.804 30.7635L120.823 30.5676ZM121.142 31.3154L120.526 30.6312L119.783 31.3002L120.398 31.9844L121.142 31.3154Z" fill="#DB1D1D"/>
</svg>
