<svg width="85" height="28" viewBox="0 0 85 28" fill="none" xmlns="http://www.w3.org/2000/svg">
<path d="M7.64961 25.1501L2.17709 19.5158L5.57748 16.2131L6.16535 16.8183L3.44724 19.4584L5.29635 21.3622L7.83839 18.8931L8.42626 19.4984L5.88422 21.9674L7.74402 23.8822L10.5061 21.1994L11.094 21.8046L7.64961 25.1501Z" fill="#DB1D1D"/>
<path d="M7.64961 25.1501L7.29095 25.4985L7.63931 25.8572L7.99798 25.5088L7.64961 25.1501ZM2.17709 19.5158L1.82873 19.1572L1.47006 19.5055L1.81843 19.8642L2.17709 19.5158ZM5.57748 16.2131L5.93615 15.8647L5.58778 15.5061L5.22911 15.8544L5.57748 16.2131ZM6.16535 16.8183L6.51371 17.177L6.87238 16.8286L6.52401 16.47L6.16535 16.8183ZM3.44724 19.4584L3.09887 19.0997L2.74021 19.4481L3.08857 19.8068L3.44724 19.4584ZM5.29635 21.3622L4.93769 21.7105L5.28605 22.0692L5.64472 21.7208L5.29635 21.3622ZM7.83839 18.8931L8.19705 18.5448L7.84869 18.1861L7.49002 18.5345L7.83839 18.8931ZM8.42626 19.4984L8.77462 19.857L9.13329 19.5087L8.78492 19.15L8.42626 19.4984ZM5.88422 21.9674L5.53585 21.6088L5.17719 21.9571L5.52555 22.3158L5.88422 21.9674ZM7.74402 23.8822L7.38536 24.2306L7.73372 24.5892L8.09239 24.2409L7.74402 23.8822ZM10.5061 21.1994L10.8648 20.851L10.5164 20.4924L10.1578 20.8407L10.5061 21.1994ZM11.094 21.8046L11.4424 22.1633L11.801 21.8149L11.4527 21.4563L11.094 21.8046ZM8.00828 24.8018L2.53576 19.1675L1.81843 19.8642L7.29095 25.4985L8.00828 24.8018ZM2.52546 19.8745L5.92585 16.5718L5.22911 15.8544L1.82873 19.1572L2.52546 19.8745ZM5.21881 16.5615L5.80668 17.1667L6.52401 16.47L5.93615 15.8647L5.21881 16.5615ZM5.81698 16.4597L3.09887 19.0997L3.79561 19.8171L6.51371 17.177L5.81698 16.4597ZM3.08857 19.8068L4.93769 21.7105L5.65502 21.0138L3.8059 19.11L3.08857 19.8068ZM5.64472 21.7208L8.18676 19.2518L7.49002 18.5345L4.94799 21.0035L5.64472 21.7208ZM7.47972 19.2415L8.06759 19.8467L8.78492 19.15L8.19705 18.5448L7.47972 19.2415ZM8.07789 19.1397L5.53585 21.6088L6.23259 22.3261L8.77462 19.857L8.07789 19.1397ZM5.52555 22.3158L7.38536 24.2306L8.10269 23.5338L6.24289 21.6191L5.52555 22.3158ZM8.09239 24.2409L10.8545 21.5581L10.1578 20.8407L7.39565 23.5235L8.09239 24.2409ZM10.1475 21.5478L10.7354 22.153L11.4527 21.4563L10.8648 20.851L10.1475 21.5478ZM10.7456 21.446L7.30124 24.7915L7.99798 25.5088L11.4424 22.1633L10.7456 21.446Z" fill="#DB1D1D"/>
<path d="M13.1369 10.532L16.5193 12.3587L16.5726 12.3282L16.7031 8.48618L17.6745 7.92892L17.4863 12.5645L21.5829 14.742L20.6115 15.2992L17.2596 13.5258L17.2064 13.5563L17.0453 17.3451L16.0739 17.9023L16.3153 13.2362L12.1655 11.0893L13.1369 10.532Z" fill="#DB1D1D"/>
<path d="M13.1369 10.532L13.3745 10.0921L13.1295 9.95979L12.8881 10.0983L13.1369 10.532ZM16.5193 12.3587L16.2817 12.7986L16.5267 12.9309L16.7681 12.7924L16.5193 12.3587ZM16.5726 12.3282L16.8214 12.7619L17.0628 12.6234L17.0723 12.3451L16.5726 12.3282ZM16.7031 8.48618L16.4543 8.05248L16.2128 8.191L16.2034 8.46921L16.7031 8.48618ZM17.6745 7.92892L18.1741 7.9492L18.2108 7.04483L17.4257 7.49522L17.6745 7.92892ZM17.4863 12.5645L16.9867 12.5442L16.974 12.8584L17.2516 13.006L17.4863 12.5645ZM21.5829 14.742L21.8317 15.1757L22.6168 14.7253L21.8176 14.3005L21.5829 14.742ZM20.6115 15.2992L20.3777 15.7412L20.6213 15.8701L20.8603 15.7329L20.6115 15.2992ZM17.2596 13.5258L17.4934 13.0838L17.2498 12.9549L17.0108 13.0921L17.2596 13.5258ZM17.2064 13.5563L16.9576 13.1226L16.7185 13.2597L16.7068 13.5351L17.2064 13.5563ZM17.0453 17.3451L17.2941 17.7788L17.5332 17.6416L17.5449 17.3663L17.0453 17.3451ZM16.0739 17.9023L15.5746 17.8765L15.5272 18.7924L16.3227 18.336L16.0739 17.9023ZM16.3153 13.2362L16.8146 13.2621L16.8313 12.9402L16.5451 12.7922L16.3153 13.2362ZM12.1655 11.0893L11.9167 10.6556L11.1212 11.1119L11.9357 11.5334L12.1655 11.0893ZM12.8993 10.972L16.2817 12.7986L16.7569 11.9188L13.3745 10.0921L12.8993 10.972ZM16.7681 12.7924L16.8214 12.7619L16.3238 11.8945L16.2705 11.925L16.7681 12.7924ZM17.0723 12.3451L17.2028 8.50316L16.2034 8.46921L16.0729 12.3112L17.0723 12.3451ZM16.9519 8.91988L17.9233 8.36263L17.4257 7.49522L16.4543 8.05248L16.9519 8.91988ZM17.1749 7.90864L16.9867 12.5442L17.9859 12.5848L18.1741 7.9492L17.1749 7.90864ZM17.2516 13.006L21.3482 15.1835L21.8176 14.3005L17.721 12.123L17.2516 13.006ZM21.3341 14.3083L20.3627 14.8655L20.8603 15.7329L21.8317 15.1757L21.3341 14.3083ZM20.8454 14.8573L17.4934 13.0838L17.0258 13.9677L20.3777 15.7412L20.8454 14.8573ZM17.0108 13.0921L16.9576 13.1226L17.4552 13.99L17.5084 13.9595L17.0108 13.0921ZM16.7068 13.5351L16.5458 17.3238L17.5449 17.3663L17.7059 13.5775L16.7068 13.5351ZM16.7965 16.9114L15.8251 17.4686L16.3227 18.336L17.2941 17.7788L16.7965 16.9114ZM16.5733 17.9282L16.8146 13.2621L15.816 13.2104L15.5746 17.8765L16.5733 17.9282ZM16.5451 12.7922L12.3952 10.6452L11.9357 11.5334L16.0856 13.6803L16.5451 12.7922ZM12.4143 11.523L13.3857 10.9657L12.8881 10.0983L11.9167 10.6556L12.4143 11.523Z" fill="#DB1D1D"/>
<path d="M27.2373 12.4593L25.1359 4.89107L27.6932 4.18104C28.2869 4.01619 28.802 3.9886 29.2384 4.09828C29.6766 4.20481 30.0372 4.41384 30.3201 4.72537C30.6029 5.0369 30.8062 5.41563 30.9301 5.86154C31.0539 6.30746 31.0752 6.73803 30.9942 7.15326C30.9156 7.56781 30.7179 7.93582 30.4012 8.25727C30.0837 8.57627 29.6306 8.8175 29.0418 8.98099L27.2089 9.48991L26.9832 8.67692L28.7865 8.1762C29.193 8.06334 29.4999 7.90249 29.7073 7.69366C29.9147 7.48483 30.0406 7.24554 30.0851 6.97579C30.1314 6.70289 30.1125 6.41492 30.0284 6.1119C29.9442 5.80888 29.8123 5.55361 29.6327 5.34611C29.4554 5.13792 29.2236 5.00062 28.9372 4.93421C28.65 4.86533 28.3008 4.88801 27.8893 5.00224L26.2781 5.4496L28.1538 12.2048L27.2373 12.4593Z" fill="#DB1D1D"/>
<path d="M27.2373 12.4593L26.7555 12.5931L26.8893 13.0748L27.3711 12.9411L27.2373 12.4593ZM25.1359 4.89107L25.0022 4.4093L24.5204 4.54307L24.6542 5.02484L25.1359 4.89107ZM29.2384 4.09828L29.1166 4.58322L29.1203 4.58413L29.2384 4.09828ZM30.3201 4.72537L29.9499 5.06148L29.9499 5.06148L30.3201 4.72537ZM30.9942 7.15326L30.5034 7.05745L30.5029 7.06012L30.9942 7.15326ZM30.4012 8.25727L30.7556 8.60996L30.7573 8.6082L30.4012 8.25727ZM27.2089 9.48991L26.7271 9.62368L26.8609 10.1055L27.3427 9.97169L27.2089 9.48991ZM26.9832 8.67692L26.8494 8.19514L26.3676 8.32891L26.5014 8.81069L26.9832 8.67692ZM29.7073 7.69366L29.3525 7.34135L29.3525 7.34135L29.7073 7.69366ZM30.0851 6.97579L29.5922 6.89217L29.5918 6.89438L30.0851 6.97579ZM29.6327 5.34611L29.2519 5.67021L29.2547 5.6734L29.6327 5.34611ZM28.9372 4.93421L28.8205 5.42043L28.8242 5.42129L28.9372 4.93421ZM26.2781 5.4496L26.1444 4.96783L25.6626 5.1016L25.7964 5.58337L26.2781 5.4496ZM28.1538 12.2048L28.2875 12.6866L28.7693 12.5528L28.6355 12.0711L28.1538 12.2048ZM27.7191 12.3255L25.6177 4.7573L24.6542 5.02484L26.7555 12.5931L27.7191 12.3255ZM25.2697 5.37285L27.8269 4.66282L27.5594 3.69927L25.0022 4.4093L25.2697 5.37285ZM27.8269 4.66282C28.3667 4.51296 28.7896 4.50103 29.1166 4.5832L29.3603 3.61336C28.8144 3.47618 28.2071 3.51942 27.5594 3.69927L27.8269 4.66282ZM29.1203 4.58413C29.4688 4.66883 29.7391 4.82932 29.9499 5.06148L30.6902 4.38926C30.3353 3.99836 29.8845 3.74078 29.3565 3.61243L29.1203 4.58413ZM29.9499 5.06148C30.1752 5.30961 30.3432 5.617 30.4483 5.99531L31.4118 5.72778C31.2693 5.21425 31.0307 4.76419 30.6902 4.38926L29.9499 5.06148ZM30.4483 5.99531C30.5533 6.37357 30.5683 6.72536 30.5034 7.05745L31.4849 7.24908C31.5822 6.7507 31.5544 6.24134 31.4118 5.72778L30.4483 5.99531ZM30.5029 7.06012C30.4441 7.37036 30.2972 7.65036 30.045 7.90634L30.7573 8.6082C31.1386 8.22128 31.387 7.76527 31.4854 7.24641L30.5029 7.06012ZM30.0467 7.90459C29.8085 8.14404 29.442 8.35095 28.908 8.49921L29.1756 9.46276C29.8192 9.28406 30.359 9.00849 30.7556 8.60995L30.0467 7.90459ZM28.908 8.49921L27.0751 9.00814L27.3427 9.97169L29.1756 9.46276L28.908 8.49921ZM27.6907 9.35614L27.4649 8.54315L26.5014 8.81069L26.7271 9.62368L27.6907 9.35614ZM27.1169 9.15869L28.9203 8.65798L28.6528 7.69443L26.8494 8.19514L27.1169 9.15869ZM28.9203 8.65798C29.3763 8.53136 29.7727 8.33744 30.0621 8.04597L29.3525 7.34135C29.2272 7.46754 29.0097 7.59532 28.6528 7.69443L28.9203 8.65798ZM30.0621 8.04597C30.3368 7.76937 30.5157 7.43742 30.5785 7.05719L29.5918 6.89438C29.5655 7.05366 29.4926 7.20029 29.3525 7.34135L30.0621 8.04597ZM30.5781 7.05941C30.6382 6.70483 30.6113 6.34227 30.5101 5.97813L29.5466 6.24567C29.6138 6.48758 29.6246 6.70094 29.5922 6.89217L30.5781 7.05941ZM30.5101 5.97813C30.4091 5.61411 30.2454 5.28996 30.0106 5.01881L29.2547 5.6734C29.3792 5.81726 29.4794 6.00364 29.5466 6.24567L30.5101 5.97813ZM30.0134 5.02201C29.7613 4.72588 29.4326 4.53581 29.0501 4.44712L28.8242 5.42129C29.0146 5.46542 29.1496 5.54995 29.2519 5.6702L30.0134 5.02201ZM29.0538 4.448C28.6555 4.35246 28.2146 4.39301 27.7556 4.52047L28.0231 5.48402C28.3869 5.38301 28.6446 5.3782 28.8205 5.42041L29.0538 4.448ZM27.7556 4.52047L26.1444 4.96783L26.4119 5.93138L28.0231 5.48402L27.7556 4.52047ZM25.7964 5.58337L27.672 12.3386L28.6355 12.0711L26.7599 5.31584L25.7964 5.58337ZM28.02 11.7231L27.1035 11.9775L27.3711 12.9411L28.2875 12.6866L28.02 11.7231Z" fill="#DB1D1D"/>
<path d="M38.7646 10.1238L38.601 2.271L39.5519 2.25118L39.698 9.26045L43.3483 9.18439L43.3659 10.028L38.7646 10.1238Z" fill="#DB1D1D"/>
<path d="M38.7646 10.1238L38.2647 10.1342L38.2751 10.6341L38.775 10.6237L38.7646 10.1238ZM38.601 2.271L38.5906 1.7711L38.0907 1.78152L38.1011 2.28141L38.601 2.271ZM39.5519 2.25118L40.0518 2.24077L40.0414 1.74087L39.5415 1.75129L39.5519 2.25118ZM39.698 9.26045L39.1981 9.27086L39.2085 9.77076L39.7084 9.76034L39.698 9.26045ZM43.3483 9.18439L43.8482 9.17397L43.8378 8.67408L43.3379 8.6845L43.3483 9.18439ZM43.3659 10.028L43.3763 10.5278L43.8762 10.5174L43.8658 10.0175L43.3659 10.028ZM39.2645 10.1134L39.1009 2.26058L38.1011 2.28141L38.2647 10.1342L39.2645 10.1134ZM38.6114 2.77089L39.5623 2.75107L39.5415 1.75129L38.5906 1.7711L38.6114 2.77089ZM39.052 2.2616L39.1981 9.27086L40.1979 9.25003L40.0518 2.24077L39.052 2.2616ZM39.7084 9.76034L43.3587 9.68428L43.3379 8.6845L39.6876 8.76056L39.7084 9.76034ZM42.8484 9.19481L42.866 10.0384L43.8658 10.0175L43.8482 9.17397L42.8484 9.19481ZM43.3555 9.52806L38.7542 9.62394L38.775 10.6237L43.3763 10.5278L43.3555 9.52806Z" fill="#DB1D1D"/>
<path d="M57.9012 8.48116C57.6962 9.28382 57.3742 9.94046 56.9351 10.4511C56.4959 10.9617 55.9832 11.3111 55.3968 11.4991C54.8105 11.6872 54.1928 11.6984 53.5437 11.5326C52.8947 11.3669 52.3579 11.061 51.9335 10.6148C51.5091 10.1687 51.2266 9.61627 51.0861 8.95761C50.9455 8.29895 50.9777 7.5683 51.1827 6.76564C51.3876 5.96299 51.7097 5.30634 52.1488 4.7957C52.5879 4.28506 53.1007 3.93571 53.687 3.74766C54.2733 3.5596 54.8911 3.54844 55.5401 3.71417C56.1892 3.87991 56.7259 4.18584 57.1503 4.63198C57.5747 5.07813 57.8572 5.63053 57.9978 6.28919C58.1383 6.94785 58.1061 7.67851 57.9012 8.48116ZM57.0093 8.25344C57.1776 7.59447 57.2094 7.01016 57.1047 6.50051C57.0024 5.99149 56.794 5.57279 56.4794 5.2444C56.1672 4.91665 55.7808 4.69394 55.32 4.57628C54.8592 4.45863 54.412 4.46847 53.9785 4.60583C53.5474 4.74381 53.1638 5.01133 52.8275 5.40838C52.4938 5.80607 52.2428 6.3344 52.0745 6.99337C51.9062 7.65233 51.8732 8.23633 51.9755 8.74535C52.0802 9.255 52.2886 9.6737 52.6008 10.0015C52.9154 10.3298 53.3031 10.5529 53.7639 10.6705C54.2246 10.7882 54.6706 10.778 55.1016 10.64C55.5352 10.5027 55.9188 10.2352 56.2526 9.83747C56.5888 9.44042 56.8411 8.91241 57.0093 8.25344Z" fill="#DB1D1D"/>
<path d="M56.9351 10.4511L56.556 10.1251L56.556 10.1251L56.9351 10.4511ZM55.3968 11.4991L55.5495 11.9753L55.5495 11.9753L55.3968 11.4991ZM51.9335 10.6148L51.5713 10.9594L51.5713 10.9594L51.9335 10.6148ZM51.0861 8.95761L51.5751 8.85326L51.5751 8.85326L51.0861 8.95761ZM57.1503 4.63198L57.5126 4.28737L57.5126 4.28737L57.1503 4.63198ZM57.9978 6.28919L57.5088 6.39354L57.5088 6.39354L57.9978 6.28919ZM57.1047 6.50051L56.6144 6.59898L56.6149 6.60115L57.1047 6.50051ZM56.4794 5.2444L56.1173 5.58923L56.1183 5.5903L56.4794 5.2444ZM53.9785 4.60583L53.8275 4.12917L53.8261 4.12963L53.9785 4.60583ZM52.8275 5.40838L52.446 5.08525L52.4446 5.08695L52.8275 5.40838ZM51.9755 8.74535L51.4853 8.84381L51.4857 8.84598L51.9755 8.74535ZM52.6008 10.0015L52.2387 10.3463L52.2397 10.3474L52.6008 10.0015ZM55.1016 10.64L54.9506 10.1634L54.9492 10.1638L55.1016 10.64ZM56.2526 9.83747L55.871 9.51434L55.8696 9.51604L56.2526 9.83747ZM57.4167 8.35746C57.2265 9.10231 56.9346 9.68476 56.556 10.1251L57.3142 10.7771C57.8138 10.1962 58.1659 9.46532 58.3856 8.60486L57.4167 8.35746ZM56.556 10.1251C56.1712 10.5726 55.7345 10.8658 55.2441 11.023L55.5495 11.9753C56.2319 11.7564 56.8207 11.3509 57.3142 10.7771L56.556 10.1251ZM55.2441 11.023C54.7551 11.1799 54.2337 11.1928 53.6674 11.0482L53.42 12.0171C54.1519 12.204 54.8658 12.1945 55.5495 11.9753L55.2441 11.023ZM53.6674 11.0482C53.1011 10.9036 52.6497 10.6423 52.2958 10.2702L51.5713 10.9594C52.0661 11.4797 52.6882 11.8302 53.42 12.0171L53.6674 11.0482ZM52.2958 10.2702C51.9409 9.89712 51.6982 9.43043 51.5751 8.85326L50.5971 9.06197C50.755 9.80212 51.0774 10.4402 51.5713 10.9594L52.2958 10.2702ZM51.5751 8.85326C51.4539 8.2853 51.4769 7.6342 51.6671 6.88934L50.6982 6.64194C50.4785 7.50239 50.4372 8.31261 50.5971 9.06197L51.5751 8.85326ZM51.6671 6.88934C51.8573 6.14449 52.1492 5.56204 52.5279 5.12171L51.7697 4.46969C51.2701 5.05064 50.9179 5.78148 50.6982 6.64194L51.6671 6.88934ZM52.5279 5.12171C52.9127 4.67425 53.3494 4.38103 53.8397 4.22377L53.5343 3.27155C52.8519 3.4904 52.2632 3.89587 51.7697 4.46969L52.5279 5.12171ZM53.8397 4.22377C54.3287 4.06694 54.8501 4.05403 55.4164 4.19863L55.6638 3.22972C54.932 3.04285 54.218 3.05227 53.5343 3.27155L53.8397 4.22377ZM55.4164 4.19863C55.9827 4.34323 56.4341 4.60453 56.788 4.9766L57.5126 4.28737C57.0177 3.76715 56.3956 3.41659 55.6638 3.22972L55.4164 4.19863ZM56.788 4.9766C57.143 5.34969 57.3856 5.81638 57.5088 6.39354L58.4868 6.18484C58.3288 5.44468 58.0065 4.80657 57.5126 4.28737L56.788 4.9766ZM57.5088 6.39354C57.63 6.96151 57.6069 7.6126 57.4167 8.35746L58.3856 8.60486C58.6053 7.74441 58.6467 6.93419 58.4868 6.18483L57.5088 6.39354ZM57.4938 8.37714C57.6753 7.66642 57.7183 7.0029 57.5944 6.39987L56.6149 6.60115C56.7004 7.01741 56.6799 7.52251 56.5249 8.12974L57.4938 8.37714ZM57.5949 6.40204C57.4766 5.81347 57.2296 5.30475 56.8404 4.8985L56.1183 5.5903C56.3583 5.84083 56.5282 6.16951 56.6144 6.59898L57.5949 6.40204ZM56.8414 4.89958C56.4612 4.50029 55.9906 4.23148 55.4437 4.09183L55.1963 5.06074C55.5709 5.1564 55.8733 5.333 56.1173 5.58922L56.8414 4.89958ZM55.4437 4.09183C54.8967 3.95217 54.3542 3.96229 53.8275 4.12918L54.1295 5.08248C54.4698 4.97466 54.8217 4.96508 55.1963 5.06074L55.4437 4.09183ZM53.8261 4.12963C53.2931 4.30024 52.8335 4.62765 52.446 5.08526L53.2091 5.73151C53.4941 5.39501 53.8018 5.18738 54.1309 5.08202L53.8261 4.12963ZM52.4446 5.08695C52.05 5.55704 51.7713 6.15962 51.59 6.86966L52.559 7.11707C52.7142 6.50917 52.9375 6.0551 53.2105 5.72981L52.4446 5.08695ZM51.59 6.86966C51.4087 7.57971 51.3644 8.24213 51.4853 8.84381L52.4657 8.64688C52.3821 8.23053 52.4037 7.72496 52.559 7.11707L51.59 6.86966ZM51.4857 8.84598C51.6064 9.43337 51.8528 9.94103 52.2387 10.3463L52.9628 9.65663C52.7245 9.40637 52.554 9.07663 52.4652 8.64471L51.4857 8.84598ZM52.2397 10.3474C52.622 10.7464 53.0932 11.0153 53.6402 11.155L53.8876 10.1861C53.5129 10.0904 53.2088 9.91333 52.9618 9.65555L52.2397 10.3474ZM53.6402 11.155C54.1871 11.2946 54.7289 11.2843 55.2541 11.1162L54.9492 10.1638C54.6122 10.2717 54.2622 10.2817 53.8876 10.1861L53.6402 11.155ZM55.2526 11.1167C55.789 10.9468 56.2496 10.6187 56.6356 10.1589L55.8696 9.51604C55.588 9.85157 55.2814 10.0586 54.9506 10.1634L55.2526 11.1167ZM56.6341 10.1606C57.032 9.69079 57.3123 9.08786 57.4938 8.37714L56.5249 8.12974C56.3698 8.73696 56.1457 9.19005 55.871 9.51435L56.6341 10.1606Z" fill="#DB1D1D"/>
<path d="M63.5203 15.0374L67.4288 8.22435L69.7308 9.54497C70.2631 9.85032 70.6478 10.1919 70.8851 10.5697C71.1235 10.9453 71.2345 11.3376 71.218 11.7467C71.2014 12.1557 71.078 12.561 70.8477 12.9624C70.6174 13.3638 70.3312 13.6727 69.9889 13.889C69.6467 14.1054 69.255 14.2049 68.8139 14.1877C68.3741 14.1682 67.8903 14.0071 67.3624 13.7043L65.4995 12.6356L65.927 11.8904L67.7633 12.9439C68.127 13.1525 68.4503 13.2672 68.7331 13.288C69.0182 13.3101 69.2666 13.2521 69.4784 13.1142C69.6936 12.9754 69.8795 12.7695 70.036 12.4967C70.1925 12.224 70.2783 11.9563 70.2933 11.6937C70.3083 11.4312 70.2356 11.1802 70.0753 10.9408C69.9161 10.6992 69.6525 10.4728 69.2844 10.2616L67.8339 9.42951L64.3453 15.5107L63.5203 15.0374ZM68.483 13.8166L68.4039 17.839L67.4458 17.2893L67.5515 13.2822L68.483 13.8166Z" fill="#DB1D1D"/>
<path d="M63.5203 15.0374L63.0866 14.7886L62.8378 15.2223L63.2715 15.4711L63.5203 15.0374ZM67.4288 8.22435L67.6776 7.79065L67.2439 7.54184L66.9951 7.97555L67.4288 8.22435ZM70.8851 10.5697L70.4616 10.8356L70.463 10.8377L70.8851 10.5697ZM71.218 11.7467L70.7184 11.7264L70.7184 11.7264L71.218 11.7467ZM69.9889 13.889L69.7218 13.4664L69.7218 13.4664L69.9889 13.889ZM68.8139 14.1877L68.7918 14.6872L68.7944 14.6873L68.8139 14.1877ZM65.4995 12.6356L65.0658 12.3868L64.817 12.8205L65.2507 13.0693L65.4995 12.6356ZM65.927 11.8904L66.1758 11.4567L65.7421 11.2079L65.4933 11.6416L65.927 11.8904ZM68.7331 13.288L68.7717 12.7895L68.7698 12.7894L68.7331 13.288ZM69.4784 13.1142L69.2073 12.694L69.2055 12.6952L69.4784 13.1142ZM70.0753 10.9408L69.6577 11.2158L69.6599 11.2191L70.0753 10.9408ZM67.8339 9.42951L68.0827 8.99581L67.649 8.747L67.4002 9.18071L67.8339 9.42951ZM64.3453 15.5107L64.0965 15.9444L64.5302 16.1932L64.779 15.7595L64.3453 15.5107ZM68.483 13.8166L68.9829 13.8264L68.9887 13.5303L68.7318 13.3829L68.483 13.8166ZM68.4039 17.839L68.1551 18.2727L68.8872 18.6927L68.9038 17.8488L68.4039 17.839ZM67.4458 17.2893L66.946 17.2762L66.9381 17.5745L67.197 17.723L67.4458 17.2893ZM67.5515 13.2822L67.8003 12.8485L67.0738 12.4317L67.0517 13.269L67.5515 13.2822ZM63.954 15.2862L67.8625 8.47315L66.9951 7.97555L63.0866 14.7886L63.954 15.2862ZM67.18 8.65805L69.482 9.97868L69.9796 9.11127L67.6776 7.79065L67.18 8.65805ZM69.482 9.97868C69.9686 10.2578 70.2812 10.5483 70.4616 10.8356L71.3085 10.3038C71.0144 9.83546 70.5576 9.44285 69.9796 9.11127L69.482 9.97868ZM70.463 10.8377C70.6518 11.1351 70.7304 11.428 70.7184 11.7264L71.7176 11.7669C71.7386 11.2472 71.5952 10.7554 71.3071 10.3017L70.463 10.8377ZM70.7184 11.7264C70.7055 12.0452 70.6095 12.3728 70.414 12.7136L71.2814 13.2112C71.5465 12.7492 71.6974 12.2663 71.7176 11.7669L70.7184 11.7264ZM70.414 12.7136C70.2184 13.0546 69.9859 13.2995 69.7218 13.4664L70.2561 14.3117C70.6765 14.0459 71.0165 13.6731 71.2814 13.2112L70.414 12.7136ZM69.7218 13.4664C69.4729 13.6238 69.183 13.7017 68.8334 13.6881L68.7944 14.6873C69.3271 14.7081 69.8206 14.587 70.2561 14.3117L69.7218 13.4664ZM68.836 13.6882C68.5005 13.6733 68.0949 13.5481 67.6112 13.2706L67.1136 14.138C67.6857 14.4662 68.2477 14.6631 68.7918 14.6872L68.836 13.6882ZM67.6112 13.2706L65.7483 12.2019L65.2507 13.0693L67.1136 14.138L67.6112 13.2706ZM65.9332 12.8844L66.3607 12.1392L65.4933 11.6416L65.0658 12.3868L65.9332 12.8844ZM65.6782 12.3241L67.5145 13.3776L68.0121 12.5102L66.1758 11.4567L65.6782 12.3241ZM67.5145 13.3776C67.9146 13.6071 68.3119 13.7584 68.6965 13.7867L68.7698 12.7894C68.5887 12.7761 68.3394 12.6979 68.0121 12.5102L67.5145 13.3776ZM68.6946 13.7865C69.0743 13.8159 69.4353 13.739 69.7513 13.5332L69.2055 12.6952C69.0979 12.7653 68.9622 12.8042 68.7717 12.7895L68.6946 13.7865ZM69.7494 13.5344C70.0454 13.3434 70.2824 13.0721 70.4697 12.7455L69.6023 12.2479C69.4766 12.467 69.3419 12.6073 69.2073 12.6941L69.7494 13.5344ZM70.4697 12.7455C70.6573 12.4185 70.7722 12.0761 70.7925 11.7223L69.7941 11.6651C69.7843 11.8365 69.7277 12.0294 69.6023 12.2479L70.4697 12.7455ZM70.7925 11.7223C70.8143 11.3405 70.7055 10.9832 70.4906 10.6625L69.6599 11.2191C69.7658 11.3772 69.8023 11.5218 69.7941 11.6651L70.7925 11.7223ZM70.4928 10.6658C70.2753 10.3355 69.9399 10.0612 69.5332 9.82788L69.0356 10.6953C69.3651 10.8843 69.557 11.0629 69.6577 11.2158L70.4928 10.6658ZM69.5332 9.82788L68.0827 8.99581L67.5851 9.86321L69.0356 10.6953L69.5332 9.82788ZM67.4002 9.18071L63.9116 15.2619L64.779 15.7595L68.2676 9.67831L67.4002 9.18071ZM64.5941 15.077L63.7691 14.6037L63.2715 15.4711L64.0965 15.9444L64.5941 15.077ZM67.9831 13.8067L67.904 17.8291L68.9038 17.8488L68.9829 13.8264L67.9831 13.8067ZM68.6527 17.4053L67.6946 16.8556L67.197 17.723L68.1551 18.2727L68.6527 17.4053ZM67.9456 17.3025L68.0513 13.2954L67.0517 13.269L66.946 17.2762L67.9456 17.3025ZM67.3027 13.7159L68.2342 14.2503L68.7318 13.3829L67.8003 12.8485L67.3027 13.7159Z" fill="#DB1D1D"/>
<path d="M73.2819 21.5984L78.7544 15.9641L82.1548 19.2668L81.5669 19.8721L78.8488 17.232L76.9997 19.1358L79.5418 21.6048L78.9539 22.2101L76.4118 19.741L74.552 21.6558L77.3142 24.3386L76.7263 24.9439L73.2819 21.5984Z" fill="#DB1D1D"/>
<path d="M73.2819 21.5984L72.9232 21.25L72.5749 21.6087L72.9335 21.957L73.2819 21.5984ZM78.7544 15.9641L79.1028 15.6054L78.7441 15.2571L78.3958 15.6157L78.7544 15.9641ZM82.1548 19.2668L82.5135 19.6152L82.8618 19.2565L82.5032 18.9082L82.1548 19.2668ZM81.5669 19.8721L81.2186 20.2307L81.5772 20.5791L81.9256 20.2204L81.5669 19.8721ZM78.8488 17.232L79.1972 16.8734L78.8385 16.525L78.4902 16.8837L78.8488 17.232ZM76.9997 19.1358L76.6411 18.7874L76.2927 19.1461L76.6514 19.4945L76.9997 19.1358ZM79.5418 21.6048L79.9004 21.9532L80.2488 21.5945L79.8901 21.2462L79.5418 21.6048ZM78.9539 22.2101L78.6055 22.5688L78.9642 22.9171L79.3126 22.5585L78.9539 22.2101ZM76.4118 19.741L76.7602 19.3824L76.4016 19.034L76.0532 19.3927L76.4118 19.741ZM74.552 21.6558L74.1934 21.3075L73.845 21.6661L74.2037 22.0145L74.552 21.6558ZM77.3142 24.3386L77.6728 24.687L78.0212 24.3283L77.6625 23.98L77.3142 24.3386ZM76.7263 24.9439L76.3779 25.3026L76.7366 25.6509L77.085 25.2923L76.7263 24.9439ZM73.6406 21.9467L79.1131 16.3124L78.3958 15.6157L72.9232 21.25L73.6406 21.9467ZM78.4061 16.3227L81.8064 19.6255L82.5032 18.9082L79.1028 15.6054L78.4061 16.3227ZM81.7961 18.9185L81.2083 19.5237L81.9256 20.2204L82.5135 19.6152L81.7961 18.9185ZM81.9153 19.5134L79.1972 16.8734L78.5005 17.5907L81.2186 20.2307L81.9153 19.5134ZM78.4902 16.8837L76.6411 18.7874L77.3584 19.4842L79.2075 17.5804L78.4902 16.8837ZM76.6514 19.4945L79.1934 21.9635L79.8901 21.2462L77.3481 18.7771L76.6514 19.4945ZM79.1831 21.2565L78.5952 21.8617L79.3126 22.5585L79.9004 21.9532L79.1831 21.2565ZM79.3023 21.8514L76.7602 19.3824L76.0635 20.0997L78.6055 22.5688L79.3023 21.8514ZM76.0532 19.3927L74.1934 21.3075L74.9107 22.0042L76.7705 20.0894L76.0532 19.3927ZM74.2037 22.0145L76.9658 24.6973L77.6625 23.98L74.9004 21.2972L74.2037 22.0145ZM76.9555 23.9903L76.3676 24.5955L77.085 25.2923L77.6728 24.687L76.9555 23.9903ZM77.0747 24.5852L73.6303 21.2397L72.9335 21.957L76.3779 25.3026L77.0747 24.5852Z" fill="#DB1D1D"/>
</svg>
