<svg width="91" height="30" viewBox="0 0 91 30" fill="none" xmlns="http://www.w3.org/2000/svg">
<path d="M2.78703 7.83462L8.31489 2.2546L10.2003 4.12241C10.6381 4.55607 10.9176 4.98958 11.039 5.42292C11.164 5.85624 11.1614 6.27299 11.0313 6.67316C10.9012 7.07333 10.6733 7.4378 10.3476 7.76657C10.0219 8.09534 9.6587 8.32756 9.25797 8.46323C8.85905 8.6007 8.44147 8.61171 8.00521 8.49624C7.57074 8.37895 7.13645 8.10528 6.70233 7.67521L5.35092 6.33644L5.94473 5.73702L7.27434 7.0542C7.57405 7.35111 7.86601 7.53777 8.15022 7.61417C8.43443 7.69058 8.70468 7.68118 8.96096 7.58596C9.22086 7.49072 9.46147 7.3314 9.6828 7.10798C9.90413 6.88456 10.0603 6.64337 10.1513 6.3844C10.2441 6.12724 10.2482 5.85783 10.1638 5.57618C10.0811 5.29272 9.88805 5.00074 9.58471 4.70023L8.39678 3.52341L3.46274 8.50401L2.78703 7.83462Z" fill="#EFDBC0"/>
<path d="M2.78703 7.83462L2.43182 7.48273L2.07993 7.83794L2.43514 8.18983L2.78703 7.83462ZM8.31489 2.2546L8.66677 1.89939L8.31156 1.5475L7.95968 1.90271L8.31489 2.2546ZM11.039 5.42292L10.5575 5.55776L10.5586 5.56148L11.039 5.42292ZM11.0313 6.67316L10.5558 6.51857L10.5558 6.51857L11.0313 6.67316ZM9.25797 8.46323L9.09763 7.98963L9.09506 7.99052L9.25797 8.46323ZM8.00521 8.49624L7.87489 8.97896L7.87727 8.97959L8.00521 8.49624ZM5.35092 6.33644L4.99571 5.98455L4.64382 6.33976L4.99903 6.69165L5.35092 6.33644ZM5.94473 5.73702L6.29662 5.38181L5.94141 5.02992L5.58952 5.38513L5.94473 5.73702ZM8.15022 7.61417L8.28003 7.13132L8.28003 7.13132L8.15022 7.61417ZM8.96096 7.58596L8.78893 7.11648L8.78682 7.11726L8.96096 7.58596ZM10.1513 6.3844L9.68095 6.21467L9.67955 6.21866L10.1513 6.3844ZM10.1638 5.57618L9.68375 5.71621L9.68484 5.71985L10.1638 5.57618ZM8.39678 3.52341L8.74867 3.1682L8.39346 2.81631L8.04157 3.17152L8.39678 3.52341ZM3.46274 8.50401L3.11085 8.85922L3.46606 9.21111L3.81795 8.8559L3.46274 8.50401ZM3.14224 8.18651L8.6701 2.60649L7.95968 1.90271L2.43182 7.48273L3.14224 8.18651ZM7.963 2.60981L9.84843 4.47762L10.5522 3.7672L8.66677 1.89939L7.963 2.60981ZM9.84843 4.47762C10.2464 4.87184 10.4666 5.23308 10.5575 5.55776L11.5205 5.28808C11.3687 4.74608 11.0298 4.24031 10.5522 3.7672L9.84843 4.47762ZM10.5586 5.56148C10.658 5.90603 10.6528 6.22035 10.5558 6.51857L11.5068 6.82775C11.6701 6.32563 11.67 5.80646 11.5194 5.28436L10.5586 5.56148ZM10.5558 6.51857C10.4522 6.8373 10.2687 7.13576 9.9924 7.41468L10.7028 8.11846C11.0779 7.73984 11.3502 7.30936 11.5068 6.82775L10.5558 6.51857ZM9.9924 7.41468C9.71612 7.69357 9.41812 7.88113 9.09763 7.98964L9.41831 8.93683C9.89927 8.77399 10.3277 8.49711 10.7028 8.11846L9.9924 7.41468ZM9.09506 7.99052C8.79652 8.0934 8.48055 8.10483 8.13314 8.01288L7.87727 8.97959C8.40239 9.11858 8.92159 9.10801 9.42087 8.93595L9.09506 7.99052ZM8.13552 8.01352C7.80939 7.92548 7.44792 7.71002 7.05422 7.32L6.35044 8.03042C6.82499 8.50053 7.3321 8.83243 7.87489 8.97896L8.13552 8.01352ZM7.05422 7.32L5.70281 5.98123L4.99903 6.69165L6.35044 8.03042L7.05422 7.32ZM5.70613 6.68833L6.29994 6.08891L5.58952 5.38513L4.99571 5.98455L5.70613 6.68833ZM5.59284 6.09223L6.92246 7.40941L7.62623 6.69899L6.29662 5.38181L5.59284 6.09223ZM6.92246 7.40941C7.25869 7.74251 7.62374 7.99039 8.02041 8.09703L8.28003 7.13132C8.10828 7.08515 7.88941 6.95971 7.62623 6.69899L6.92246 7.40941ZM8.02041 8.09703C8.39685 8.19823 8.77385 8.18887 9.13509 8.05466L8.78682 7.11726C8.6355 7.17348 8.47201 7.18293 8.28003 7.13132L8.02041 8.09703ZM9.13299 8.05543C9.47067 7.9317 9.77205 7.72834 10.038 7.45987L9.32759 6.75609C9.1509 6.93445 8.97105 7.04975 8.78893 7.11648L9.13299 8.05543ZM10.038 7.45987C10.3039 7.19148 10.5041 6.88855 10.623 6.55015L9.67955 6.21866C9.61647 6.39819 9.50437 6.57764 9.32759 6.75609L10.038 7.45987ZM10.6216 6.55413C10.7536 6.18833 10.7555 5.80862 10.6427 5.43252L9.68484 5.71985C9.74099 5.90704 9.73458 6.06614 9.68097 6.21468L10.6216 6.55413ZM10.6438 5.43616C10.529 5.04296 10.2751 4.68031 9.9366 4.34502L9.23282 5.05544C9.50105 5.32116 9.63309 5.54249 9.68376 5.71621L10.6438 5.43616ZM9.9366 4.34502L8.74867 3.1682L8.04489 3.87862L9.23282 5.05544L9.9366 4.34502ZM8.04157 3.17152L3.10753 8.15212L3.81795 8.8559L8.75199 3.8753L8.04157 3.17152ZM3.81463 8.1488L3.13892 7.47941L2.43514 8.18983L3.11085 8.85922L3.81463 8.1488Z" fill="#EFDBC0"/>
<path d="M11.9477 15.8599L16.1874 9.2479L16.9881 9.76131L13.2038 15.663L16.2773 17.6338L15.8219 18.3441L11.9477 15.8599Z" fill="#EFDBC0"/>
<path d="M11.9477 15.8599L11.5268 15.59L11.2569 16.0109L11.6778 16.2808L11.9477 15.8599ZM16.1874 9.2479L16.4573 8.827L16.0364 8.55711L15.7665 8.97801L16.1874 9.2479ZM16.9881 9.76131L17.409 10.0312L17.6789 9.61029L17.258 9.3404L16.9881 9.76131ZM13.2038 15.663L12.7829 15.3931L12.513 15.814L12.9339 16.0839L13.2038 15.663ZM16.2773 17.6338L16.6982 17.9037L16.9681 17.4828L16.5472 17.2129L16.2773 17.6338ZM15.8219 18.3441L15.552 18.765L15.9729 19.0349L16.2428 18.614L15.8219 18.3441ZM12.3686 16.1298L16.6083 9.51779L15.7665 8.97801L11.5268 15.59L12.3686 16.1298ZM15.9175 9.66881L16.7182 10.1822L17.258 9.3404L16.4573 8.827L15.9175 9.66881ZM16.5672 9.49142L12.7829 15.3931L13.6247 15.9329L17.409 10.0312L16.5672 9.49142ZM12.9339 16.0839L16.0074 18.0547L16.5472 17.2129L13.4737 15.2421L12.9339 16.0839ZM15.8564 17.364L15.401 18.0742L16.2428 18.614L16.6982 17.9037L15.8564 17.364ZM16.0918 17.9232L12.2176 15.439L11.6778 16.2808L15.552 18.765L16.0918 17.9232Z" fill="#EFDBC0"/>
<path d="M22.8845 21.9302L21.9481 21.5874L27.3562 15.2028L28.2782 15.5402L28.2868 23.9075L27.3504 23.5648L27.4189 16.5489L27.3613 16.5278L22.8845 21.9302ZM24.2849 19.1755L28.0593 20.557L27.7693 21.3493L23.9948 19.9678L24.2849 19.1755Z" fill="#EFDBC0"/>
<path d="M22.8845 21.9302L22.7126 22.3997L23.0442 22.521L23.2695 22.2492L22.8845 21.9302ZM21.9481 21.5874L21.5666 21.2642L21.1036 21.8108L21.7762 22.0569L21.9481 21.5874ZM27.3562 15.2028L27.5281 14.7332L27.2003 14.6132L26.9747 14.8796L27.3562 15.2028ZM28.2782 15.5402L28.7782 15.5397L28.7779 15.1907L28.4501 15.0707L28.2782 15.5402ZM28.2868 23.9075L28.115 24.3771L28.7876 24.6232L28.7868 23.907L28.2868 23.9075ZM27.3504 23.5648L26.8504 23.5599L26.847 23.913L27.1786 24.0343L27.3504 23.5648ZM27.4189 16.5489L27.9189 16.5538L27.9224 16.2008L27.5908 16.0794L27.4189 16.5489ZM27.3613 16.5278L27.5332 16.0583L27.2016 15.937L26.9763 16.2088L27.3613 16.5278ZM24.2849 19.1755L24.4567 18.7059L23.9872 18.5341L23.8153 19.0036L24.2849 19.1755ZM28.0593 20.557L28.5288 20.7288L28.7007 20.2593L28.2311 20.0875L28.0593 20.557ZM27.7693 21.3493L27.5974 21.8189L28.0669 21.9907L28.2388 21.5212L27.7693 21.3493ZM23.9948 19.9678L23.5253 19.7959L23.3534 20.2655L23.823 20.4373L23.9948 19.9678ZM23.0564 21.4606L22.12 21.1179L21.7762 22.0569L22.7126 22.3997L23.0564 21.4606ZM22.3296 21.9106L27.7378 15.5259L26.9747 14.8796L21.5666 21.2642L22.3296 21.9106ZM27.1844 15.6723L28.1064 16.0098L28.4501 15.0707L27.5281 14.7332L27.1844 15.6723ZM27.7782 15.5407L27.7868 23.908L28.7868 23.907L28.7782 15.5397L27.7782 15.5407ZM28.4587 23.438L27.5223 23.0952L27.1786 24.0343L28.115 24.3771L28.4587 23.438ZM27.8504 23.5697L27.9189 16.5538L26.919 16.5441L26.8504 23.5599L27.8504 23.5697ZM27.5908 16.0794L27.5332 16.0583L27.1895 16.9974L27.2471 17.0185L27.5908 16.0794ZM26.9763 16.2088L22.4995 21.6111L23.2695 22.2492L27.7463 16.8469L26.9763 16.2088ZM24.113 19.645L27.8874 21.0265L28.2311 20.0875L24.4567 18.7059L24.113 19.645ZM27.5897 20.3851L27.2997 21.1775L28.2388 21.5212L28.5288 20.7288L27.5897 20.3851ZM27.9411 20.8798L24.1667 19.4983L23.823 20.4373L27.5974 21.8189L27.9411 20.8798ZM24.4644 20.1397L24.7544 19.3473L23.8153 19.0036L23.5253 19.7959L24.4644 20.1397Z" fill="#EFDBC0"/>
<path d="M42.3141 18.5205L41.4204 26.324L40.5059 26.2193L36.9553 19.6052L36.8791 19.5965L36.1774 25.7235L35.2324 25.6153L36.1262 17.8117L37.0406 17.9165L40.6047 24.5475L40.6809 24.5562L41.3844 18.414L42.3141 18.5205Z" fill="#EFDBC0"/>
<path d="M42.3141 18.5205L42.8109 18.5774L42.8678 18.0806L42.371 18.0237L42.3141 18.5205ZM41.4204 26.324L41.3635 26.8207L41.8602 26.8776L41.9171 26.3809L41.4204 26.324ZM40.5059 26.2193L40.0653 26.4557L40.1891 26.6862L40.449 26.716L40.5059 26.2193ZM36.9553 19.6052L37.3958 19.3687L37.2721 19.1383L37.0122 19.1085L36.9553 19.6052ZM36.8791 19.5965L36.936 19.0998L36.4392 19.0429L36.3823 19.5396L36.8791 19.5965ZM36.1774 25.7235L36.1205 26.2202L36.6172 26.2771L36.6741 25.7804L36.1774 25.7235ZM35.2324 25.6153L34.7356 25.5584L34.6788 26.0551L35.1755 26.112L35.2324 25.6153ZM36.1262 17.8117L36.183 17.315L35.6863 17.2581L35.6294 17.7549L36.1262 17.8117ZM37.0406 17.9165L37.481 17.6798L37.3573 17.4495L37.0975 17.4197L37.0406 17.9165ZM40.6047 24.5475L40.1643 24.7842L40.2881 25.0145L40.5478 25.0442L40.6047 24.5475ZM40.6809 24.5562L40.624 25.053L41.1208 25.1099L41.1777 24.6131L40.6809 24.5562ZM41.3844 18.414L41.4413 17.9172L40.9445 17.8603L40.8876 18.3571L41.3844 18.414ZM41.8174 18.4636L40.9236 26.2671L41.9171 26.3809L42.8109 18.5774L41.8174 18.4636ZM41.4772 25.8272L40.5628 25.7225L40.449 26.716L41.3635 26.8207L41.4772 25.8272ZM40.9464 25.9828L37.3958 19.3687L36.5148 19.8417L40.0653 26.4557L40.9464 25.9828ZM37.0122 19.1085L36.936 19.0998L36.8222 20.0933L36.8984 20.102L37.0122 19.1085ZM36.3823 19.5396L35.6806 25.6666L36.6741 25.7804L37.3758 19.6534L36.3823 19.5396ZM36.2343 25.2267L35.2893 25.1185L35.1755 26.112L36.1205 26.2202L36.2343 25.2267ZM35.7292 25.6722L36.6229 17.8686L35.6294 17.7549L34.7356 25.5584L35.7292 25.6722ZM36.0693 18.3085L36.9837 18.4132L37.0975 17.4197L36.183 17.315L36.0693 18.3085ZM36.6002 18.1532L40.1643 24.7842L41.0451 24.3108L37.481 17.6798L36.6002 18.1532ZM40.5478 25.0442L40.624 25.053L40.7378 24.0595L40.6616 24.0507L40.5478 25.0442ZM41.1777 24.6131L41.8811 18.4709L40.8876 18.3571L40.1842 24.4993L41.1777 24.6131ZM41.3275 18.9107L42.2572 19.0172L42.371 18.0237L41.4413 17.9172L41.3275 18.9107Z" fill="#EFDBC0"/>
<path d="M54.5689 17.7565L55.5994 25.5431L54.6869 25.6639L49.6347 20.1117L49.5586 20.1218L50.3677 26.2355L49.4248 26.3603L48.3943 18.5736L49.3068 18.4529L54.3763 24.0182L54.4523 24.0082L53.6412 17.8792L54.5689 17.7565Z" fill="#EFDBC0"/>
<path d="M54.5689 17.7565L55.0646 17.6909L54.999 17.1952L54.5033 17.2608L54.5689 17.7565ZM55.5994 25.5431L55.665 26.0388L56.1607 25.9732L56.0951 25.4775L55.5994 25.5431ZM54.6869 25.6639L54.3171 26.0004L54.4932 26.1939L54.7525 26.1596L54.6869 25.6639ZM49.6347 20.1117L50.0045 19.7752L49.8284 19.5817L49.5691 19.616L49.6347 20.1117ZM49.5586 20.1218L49.493 19.6261L48.9974 19.6917L49.063 20.1874L49.5586 20.1218ZM50.3677 26.2355L50.4333 26.7312L50.929 26.6656L50.8634 26.1699L50.3677 26.2355ZM49.4248 26.3603L48.9292 26.4259L48.9948 26.9216L49.4904 26.856L49.4248 26.3603ZM48.3943 18.5736L48.3287 18.078L47.833 18.1436L47.8986 18.6392L48.3943 18.5736ZM49.3068 18.4529L49.6765 18.1162L49.5004 17.9229L49.2412 17.9572L49.3068 18.4529ZM54.3763 24.0182L54.0066 24.3549L54.1827 24.5482L54.4419 24.5139L54.3763 24.0182ZM54.4523 24.0082L54.5179 24.5039L55.0136 24.4383L54.948 23.9426L54.4523 24.0082ZM53.6412 17.8792L53.5756 17.3836L53.0799 17.4492L53.1455 17.9448L53.6412 17.8792ZM54.0732 17.8221L55.1037 25.6087L56.0951 25.4775L55.0646 17.6909L54.0732 17.8221ZM55.5338 25.0474L54.6213 25.1682L54.7525 26.1596L55.665 26.0388L55.5338 25.0474ZM55.0567 25.3274L50.0045 19.7752L49.2649 20.4482L54.3171 26.0004L55.0567 25.3274ZM49.5691 19.616L49.493 19.6261L49.6242 20.6174L49.7003 20.6074L49.5691 19.616ZM49.063 20.1874L49.8721 26.3011L50.8634 26.1699L50.0543 20.0562L49.063 20.1874ZM50.3021 25.7398L49.3592 25.8646L49.4904 26.856L50.4333 26.7312L50.3021 25.7398ZM49.9205 26.2947L48.89 18.508L47.8986 18.6392L48.9292 26.4259L49.9205 26.2947ZM48.4599 19.0693L49.3724 18.9485L49.2412 17.9572L48.3287 18.078L48.4599 19.0693ZM48.9372 18.7896L54.0066 24.3549L54.7459 23.6815L49.6765 18.1162L48.9372 18.7896ZM54.4419 24.5139L54.5179 24.5039L54.3867 23.5125L54.3107 23.5226L54.4419 24.5139ZM54.948 23.9426L54.1369 17.8136L53.1455 17.9448L53.9566 24.0738L54.948 23.9426ZM53.7068 18.3749L54.6345 18.2521L54.5033 17.2608L53.5756 17.3836L53.7068 18.3749Z" fill="#EFDBC0"/>
<path d="M61.687 15.7995L64.1917 23.2439L63.2903 23.5472L60.7855 16.1028L61.687 15.7995Z" fill="#EFDBC0"/>
<path d="M61.687 15.7995L62.1609 15.64L62.0014 15.1661L61.5275 15.3256L61.687 15.7995ZM64.1917 23.2439L64.3512 23.7178L64.8251 23.5584L64.6656 23.0845L64.1917 23.2439ZM63.2903 23.5472L62.8164 23.7067L62.9758 24.1806L63.4497 24.0211L63.2903 23.5472ZM60.7855 16.1028L60.6261 15.6289L60.1522 15.7883L60.3116 16.2622L60.7855 16.1028ZM61.2131 15.9589L63.7179 23.4034L64.6656 23.0845L62.1609 15.64L61.2131 15.9589ZM64.0323 22.77L63.1308 23.0734L63.4497 24.0211L64.3512 23.7178L64.0323 22.77ZM63.7642 23.3878L61.2594 15.9433L60.3116 16.2622L62.8164 23.7067L63.7642 23.3878ZM60.945 16.5767L61.8464 16.2734L61.5275 15.3256L60.6261 15.6289L60.945 16.5767Z" fill="#EFDBC0"/>
<path d="M72.435 10.6608L76.321 17.4867L75.5211 17.9421L68.7504 14.7003L68.6838 14.7382L71.7349 20.0976L70.9083 20.5682L67.0223 13.7423L67.8222 13.2869L74.6138 16.5345L74.6805 16.4965L71.6218 11.1238L72.435 10.6608Z" fill="#EFDBC0"/>
<path d="M72.435 10.6608L72.8695 10.4134L72.6222 9.97893L72.1876 10.2263L72.435 10.6608ZM76.321 17.4867L76.5684 17.9212L77.0029 17.6738L76.7556 17.2393L76.321 17.4867ZM75.5211 17.9421L75.3052 18.3931L75.5412 18.506L75.7685 18.3766L75.5211 17.9421ZM68.7504 14.7003L68.9664 14.2493L68.7304 14.1363L68.5031 14.2658L68.7504 14.7003ZM68.6838 14.7382L68.4364 14.3037L68.0019 14.5511L68.2492 14.9856L68.6838 14.7382ZM71.7349 20.0976L71.9823 20.5321L72.4168 20.2848L72.1694 19.8502L71.7349 20.0976ZM70.9083 20.5682L70.4738 20.8156L70.7212 21.2501L71.1557 21.0027L70.9083 20.5682ZM67.0223 13.7423L66.7749 13.3078L66.3404 13.5552L66.5878 13.9897L67.0223 13.7423ZM67.8222 13.2869L68.0379 12.8358L67.802 12.723L67.5748 12.8524L67.8222 13.2869ZM74.6138 16.5345L74.3981 16.9855L74.634 17.0983L74.8612 16.969L74.6138 16.5345ZM74.6805 16.4965L74.9279 16.931L75.3624 16.6837L75.115 16.2491L74.6805 16.4965ZM71.6218 11.1238L71.3744 10.6893L70.9399 10.9367L71.1873 11.3712L71.6218 11.1238ZM72.0005 10.9082L75.8865 17.7341L76.7556 17.2393L72.8695 10.4134L72.0005 10.9082ZM76.0737 17.0522L75.2738 17.5076L75.7685 18.3766L76.5684 17.9212L76.0737 17.0522ZM75.7371 17.4911L68.9664 14.2493L68.5345 15.1513L75.3052 18.3931L75.7371 17.4911ZM68.5031 14.2658L68.4364 14.3037L68.9311 15.1727L68.9978 15.1348L68.5031 14.2658ZM68.2492 14.9856L71.3004 20.345L72.1694 19.8502L69.1183 14.4909L68.2492 14.9856ZM71.4875 19.6631L70.6609 20.1337L71.1557 21.0027L71.9823 20.5321L71.4875 19.6631ZM71.3428 20.3208L67.4568 13.4949L66.5878 13.9897L70.4738 20.8156L71.3428 20.3208ZM67.2697 14.1768L68.0696 13.7214L67.5748 12.8524L66.7749 13.3078L67.2697 14.1768ZM67.6065 13.738L74.3981 16.9855L74.8295 16.0834L68.0379 12.8358L67.6065 13.738ZM74.8612 16.969L74.9279 16.931L74.4331 16.062L74.3665 16.0999L74.8612 16.969ZM75.115 16.2491L72.0563 10.8764L71.1873 11.3712L74.246 16.7439L75.115 16.2491ZM71.8692 11.5583L72.6824 11.0953L72.1876 10.2263L71.3744 10.6893L71.8692 11.5583Z" fill="#EFDBC0"/>
<path d="M82.9505 5.17634C82.711 5.04805 82.4707 4.95771 82.2295 4.90532C81.9884 4.84933 81.7492 4.83406 81.5117 4.85952C81.2761 4.88321 81.0459 4.94952 80.821 5.05845C80.5961 5.16737 80.3812 5.31992 80.1761 5.51609C79.8398 5.83774 79.6171 6.21707 79.5079 6.65408C79.3987 7.09109 79.4245 7.55642 79.5853 8.05007C79.7462 8.54372 80.0616 9.03629 80.5317 9.52778C81.0018 10.0193 81.4808 10.3554 81.9686 10.5363C82.4565 10.7171 82.9239 10.7601 83.3709 10.6651C83.8179 10.5702 84.2169 10.3548 84.568 10.019C84.8931 9.70798 85.1133 9.36476 85.2283 8.98936C85.3434 8.61035 85.3483 8.22709 85.243 7.83956C85.1378 7.44841 84.9191 7.07916 84.5868 6.73179L84.8399 6.57466L83.1326 8.20764L82.5494 7.5979L84.7112 5.53017L85.2944 6.13991C85.7415 6.60738 86.0306 7.1093 86.1615 7.64569C86.2943 8.18031 86.2771 8.70979 86.1099 9.23412C85.9428 9.75483 85.6338 10.2308 85.183 10.662C84.6804 11.1427 84.1257 11.4469 83.5188 11.5744C82.9139 11.7002 82.2966 11.6467 81.667 11.4139C81.0393 11.1793 80.4391 10.7627 79.8665 10.164C79.4371 9.71501 79.111 9.25385 78.8882 8.78052C78.6656 8.30358 78.544 7.8325 78.5236 7.36729C78.5032 6.90208 78.58 6.45712 78.7541 6.0324C78.9281 5.60768 79.1971 5.22125 79.5611 4.87309C79.8604 4.58679 80.1827 4.3652 80.528 4.20832C80.8733 4.04782 81.2263 3.95259 81.5868 3.92263C81.9474 3.88906 82.3048 3.92052 82.6589 4.01701C83.0112 4.11165 83.3449 4.27188 83.66 4.4977L82.9505 5.17634Z" fill="#EFDBC0"/>
<path d="M82.9505 5.17634L82.7143 5.61708L83.034 5.78833L83.2961 5.53767L82.9505 5.17634ZM82.2295 4.90532L82.1164 5.39241L82.1234 5.39393L82.2295 4.90532ZM81.5117 4.85952L81.5617 5.35702L81.565 5.35667L81.5117 4.85952ZM80.821 5.05845L80.603 4.60847L80.603 4.60847L80.821 5.05845ZM79.5853 8.05007L80.0607 7.89519L80.0607 7.89519L79.5853 8.05007ZM81.9686 10.5363L81.7949 11.0051L81.7949 11.0051L81.9686 10.5363ZM85.2283 8.98936L85.7064 9.13587L85.7067 9.13468L85.2283 8.98936ZM85.243 7.83956L84.7602 7.96945L84.7605 7.97067L85.243 7.83956ZM84.5868 6.73179L84.3231 6.30701L83.7996 6.63207L84.2255 7.07739L84.5868 6.73179ZM84.8399 6.57466L85.1855 6.93599L84.5761 6.14989L84.8399 6.57466ZM83.1326 8.20764L82.7713 8.55324L83.1169 8.91457L83.4782 8.56897L83.1326 8.20764ZM82.5494 7.5979L82.2038 7.23657L81.8425 7.58217L82.1881 7.9435L82.5494 7.5979ZM84.7112 5.53017L85.0725 5.18456L84.7269 4.82324L84.3656 5.16884L84.7112 5.53017ZM86.1615 7.64569L85.6758 7.76426L85.6762 7.76621L86.1615 7.64569ZM86.1099 9.23412L86.586 9.3869L86.5863 9.38601L86.1099 9.23412ZM83.5188 11.5744L83.6206 12.0639L83.6217 12.0637L83.5188 11.5744ZM81.667 11.4139L81.492 11.8822L81.4936 11.8828L81.667 11.4139ZM78.8882 8.78052L78.4352 8.99204L78.4358 8.99343L78.8882 8.78052ZM78.5236 7.36729L79.0231 7.34539L79.0231 7.34539L78.5236 7.36729ZM80.528 4.20832L80.7348 4.66355L80.7387 4.66174L80.528 4.20832ZM81.5868 3.92263L81.6282 4.42094L81.6331 4.42048L81.5868 3.92263ZM82.6589 4.01701L82.5274 4.49942L82.5292 4.49989L82.6589 4.01701ZM83.66 4.4977L84.0056 4.85903L84.4411 4.44243L83.9513 4.09131L83.66 4.4977ZM83.1866 4.73561C82.9103 4.58759 82.6265 4.47988 82.3357 4.41672L82.1234 5.39393C82.3149 5.43553 82.5117 5.5085 82.7143 5.61708L83.1866 4.73561ZM82.3427 4.41829C82.0491 4.35009 81.7535 4.33072 81.4584 4.36237L81.565 5.35667C81.7448 5.33739 81.9278 5.34856 82.1164 5.39236L82.3427 4.41829ZM81.4617 4.36203C81.1646 4.3919 80.8777 4.4754 80.603 4.60847L81.039 5.50843C81.214 5.42364 81.3876 5.37452 81.5617 5.35701L81.4617 4.36203ZM80.603 4.60847C80.3254 4.74296 80.0682 4.92739 79.8305 5.15476L80.5217 5.87742C80.6942 5.71245 80.8669 5.59178 81.039 5.50843L80.603 4.60847ZM79.8305 5.15476C79.4283 5.5394 79.1556 6.00112 79.0228 6.53288L79.993 6.77527C80.0785 6.43301 80.2513 6.13607 80.5217 5.87742L79.8305 5.15476ZM79.0228 6.53288C78.8875 7.07422 78.9246 7.63592 79.1099 8.20494L80.0607 7.89519C79.9245 7.47692 79.9099 7.10795 79.993 6.77527L79.0228 6.53288ZM79.1099 8.20494C79.3 8.78846 79.6638 9.3438 80.1704 9.87338L80.893 9.18217C80.4594 8.72878 80.1923 8.29897 80.0607 7.89519L79.1099 8.20494ZM80.1704 9.87338C80.6774 10.4035 81.2176 10.7911 81.7949 11.0051L82.1424 10.0674C81.744 9.91974 81.3262 9.63506 80.893 9.18217L80.1704 9.87338ZM81.7949 11.0051C82.3589 11.2142 82.9229 11.2714 83.4748 11.1542L83.267 10.176C82.925 10.2487 82.5541 10.2201 82.1424 10.0674L81.7949 11.0051ZM83.4748 11.1542C84.0184 11.0387 84.4998 10.7761 84.9136 10.3803L84.2224 9.65769C83.934 9.93349 83.6173 10.1016 83.267 10.176L83.4748 11.1542ZM84.9136 10.3803C85.2914 10.0189 85.5628 9.60432 85.7064 9.13587L84.7503 8.84286C84.6637 9.1252 84.4949 9.39701 84.2224 9.65769L84.9136 10.3803ZM85.7067 9.13468C85.8496 8.66444 85.8551 8.18534 85.7255 7.70844L84.7605 7.97067C84.8416 8.26883 84.8373 8.55627 84.7499 8.84404L85.7067 9.13468ZM85.7259 7.70966C85.5951 7.22369 85.3275 6.78282 84.9482 6.38618L84.2255 7.07739C84.5106 7.37549 84.6805 7.67313 84.7602 7.96945L85.7259 7.70966ZM84.8506 7.15656L85.1036 6.99944L84.5761 6.14989L84.3231 6.30701L84.8506 7.15656ZM84.4943 6.21333L82.787 7.84631L83.4782 8.56897L85.1855 6.93599L84.4943 6.21333ZM83.4939 7.86203L82.9107 7.25229L82.1881 7.9435L82.7713 8.55324L83.4939 7.86203ZM82.895 7.95922L85.0568 5.8915L84.3656 5.16884L82.2038 7.23657L82.895 7.95922ZM84.3499 5.87577L84.9331 6.48551L85.6557 5.79431L85.0725 5.18456L84.3499 5.87577ZM84.9331 6.48551C85.33 6.90051 85.569 7.3268 85.6758 7.76426L86.6472 7.52712C86.4922 6.89181 86.153 6.31424 85.6557 5.79431L84.9331 6.48551ZM85.6762 7.76621C85.7867 8.21105 85.7725 8.64621 85.6335 9.08223L86.5863 9.38601C86.7816 8.77336 86.8018 8.14958 86.6468 7.52517L85.6762 7.76621ZM85.6338 9.08134C85.4955 9.51218 85.2366 9.91884 84.8374 10.3007L85.5286 11.0233C86.031 10.5428 86.39 9.99748 86.586 9.3869L85.6338 9.08134ZM84.8374 10.3007C84.3938 10.725 83.9208 10.979 83.416 11.0851L83.6217 12.0637C84.3306 11.9147 84.967 11.5605 85.5286 11.0233L84.8374 10.3007ZM83.4171 11.0849C82.9118 11.1899 82.3899 11.1481 81.8404 10.9449L81.4936 11.8828C82.2033 12.1453 82.9159 12.2105 83.6206 12.0639L83.4171 11.0849ZM81.842 10.9455C81.2995 10.7428 80.7604 10.3752 80.2279 9.8184L79.5052 10.5096C80.1178 11.1501 80.779 11.6158 81.492 11.8822L81.842 10.9455ZM80.2279 9.8184C79.8289 9.40131 79.5365 8.9839 79.3406 8.56761L78.4358 8.99343C78.6854 9.5238 79.0452 10.0287 79.5052 10.5096L80.2279 9.8184ZM79.3413 8.569C79.1428 8.14387 79.0403 7.73694 79.0231 7.34539L78.0241 7.38919C78.0477 7.92807 78.1883 8.46329 78.4352 8.99204L79.3413 8.569ZM79.0231 7.34539C79.0059 6.95142 79.0706 6.57869 79.2167 6.22196L78.2914 5.84284C78.0895 6.33554 78.0006 6.85274 78.0241 7.38919L79.0231 7.34539ZM79.2167 6.22196C79.3617 5.86815 79.5883 5.53891 79.9067 5.23442L79.2155 4.51176C78.8058 4.90358 78.4944 5.34722 78.2914 5.84284L79.2167 6.22196ZM79.9067 5.23442C80.1691 4.98342 80.4452 4.7951 80.7348 4.66353L80.3211 3.7531C79.9201 3.9353 79.5517 4.19016 79.2155 4.51176L79.9067 5.23442ZM80.7387 4.66174C81.0335 4.52472 81.3293 4.44575 81.6282 4.42092L81.5454 3.42435C81.1232 3.45943 80.7131 3.57091 80.3172 3.75489L80.7387 4.66174ZM81.6331 4.42048C81.9332 4.39254 82.2304 4.41848 82.5274 4.49942L82.7903 3.5346C82.3792 3.42256 81.9616 3.38558 81.5405 3.42479L81.6331 4.42048ZM82.5292 4.49989C82.82 4.578 83.0994 4.71106 83.3687 4.90409L83.9513 4.09131C83.5905 3.8327 83.2025 3.6453 82.7886 3.53412L82.5292 4.49989ZM83.3144 4.13638L82.6049 4.81501L83.2961 5.53767L84.0056 4.85903L83.3144 4.13638Z" fill="#EFDBC0"/>
</svg>
