<svg width="98" height="35" viewBox="0 0 98 35" fill="none" xmlns="http://www.w3.org/2000/svg">
<path d="M8.57455 31.7769L2.28744 27.0688L3.87825 24.9444C4.2476 24.4512 4.63855 24.1147 5.05109 23.9349C5.46311 23.7515 5.87625 23.6968 6.29051 23.7706C6.70477 23.8445 7.09711 24.0201 7.46755 24.2975C7.83798 24.5749 8.11794 24.9027 8.30742 25.281C8.49844 25.6572 8.56675 26.0693 8.51237 26.5173C8.45594 26.9638 8.24458 27.4316 7.87829 27.9207L6.73806 29.4434L6.06268 28.9376L7.18453 27.4395C7.4374 27.1018 7.58214 26.787 7.61874 26.4949C7.65535 26.2029 7.60887 25.9365 7.47932 25.6958C7.34925 25.4515 7.15835 25.235 6.90662 25.0465C6.65489 24.858 6.39452 24.7365 6.1255 24.682C5.85802 24.6254 5.5906 24.6584 5.32325 24.7808C5.05385 24.9016 4.79118 25.133 4.53524 25.4748L3.53293 26.8132L9.14467 31.0156L8.57455 31.7769Z" fill="#D8293A"/>
<path d="M16.1055 23.007L11.0555 16.9911L11.784 16.3795L16.2915 21.7493L19.088 19.4018L19.6304 20.0481L16.1055 23.007Z" fill="#D8293A"/>
<path d="M24.9616 16.5107L24.0679 16.9529L23.17 8.63387L24.05 8.1985L30.118 13.9597L29.2242 14.4019L24.1885 9.51634L24.1335 9.54355L24.9616 16.5107ZM23.9311 13.5974L27.5337 11.8151L27.9078 12.5714L24.3053 14.3536L23.9311 13.5974Z" fill="#D8293A"/>
<path d="M33.868 4.35298L34.933 4.1245L37.832 7.25245L37.922 7.23314L39.2829 3.19129L40.3479 2.96281L38.5415 8.07301L39.2205 11.2379L38.2906 11.4374L37.6116 8.27253L33.868 4.35298Z" fill="#D8293A"/>
<path d="M57.0066 10.8421L56.7038 2.70483L57.6449 2.92489L57.7866 9.52776L57.8613 9.54523L60.9461 3.69686L61.9918 3.94137L62.1634 10.5512L62.2381 10.5687L65.2931 4.71334L66.2342 4.9334L62.3544 12.0926L61.3984 11.869L61.1356 5.37964L61.0758 5.36567L57.9627 11.0656L57.0066 10.8421Z" fill="#D8293A"/>
<path d="M74.4328 8.51695L70.8853 15.5247L70.0367 15.0952L73.5842 8.08737L74.4328 8.51695Z" fill="#D8293A"/>
<path d="M80.9692 13.3439L81.4937 12.683L86.1083 16.3446L85.5839 17.0056L83.6491 15.4703L79.2913 20.9623L78.5462 20.371L82.904 14.8791L80.9692 13.3439Z" fill="#D8293A"/>
<path d="M85.5358 26.8384L91.7794 22.0727L92.3565 22.8288L89.5761 24.951L92.1172 28.2801L94.8975 26.1579L95.4746 26.914L89.231 31.6796L88.6539 30.9236L91.4465 28.792L88.9054 25.4629L86.1129 27.5945L85.5358 26.8384Z" fill="#D8293A"/>
</svg>
