<svg width="19" height="19" viewBox="0 0 19 19" fill="none" xmlns="http://www.w3.org/2000/svg">
<path d="M9.59957 0.690014C9.33505 0.689717 9.08128 0.794664 8.89424 0.981706C8.70719 1.16875 8.60225 1.42252 8.60255 1.68703L8.59547 8.59547L1.67997 8.59547C1.41545 8.59517 1.16168 8.70012 0.974641 8.88716C0.787599 9.0742 0.682652 9.32797 0.68295 9.59249C0.68295 10.144 1.12843 10.5895 1.67997 10.5895L8.59547 10.5895L8.59547 17.505C8.59547 18.0566 9.04095 18.502 9.59249 18.502C10.144 18.502 10.5895 18.0566 10.5895 17.505L10.5895 10.5895L17.505 10.5895C18.0566 10.5895 18.502 10.144 18.502 9.59249C18.502 9.04095 18.0566 8.59547 17.505 8.59547H10.5895L10.5895 1.67996C10.5895 1.14256 10.137 0.690014 9.59957 0.690014Z" fill="#DB1D1D"/>
</svg>
