<svg width="51" height="18" viewBox="0 0 51 18" fill="none" xmlns="http://www.w3.org/2000/svg">
<path d="M7.869 6.45471C7.93959 6.05281 7.84369 5.69554 7.58127 5.38291C7.31886 5.07028 6.9502 4.84266 6.47528 4.70003C6.12803 4.59574 5.80732 4.56067 5.51314 4.5948C5.22152 4.6297 4.97342 4.72359 4.76883 4.87649C4.56681 5.03015 4.42822 5.2321 4.35307 5.48232C4.29019 5.69169 4.28592 5.88665 4.34026 6.0672C4.39792 6.24597 4.49094 6.40891 4.61934 6.55603C4.74851 6.7006 4.89032 6.83087 5.04478 6.94685C5.2 7.06027 5.34463 7.15798 5.47866 7.23999L6.21088 7.69371C6.39904 7.80868 6.60405 7.95097 6.8259 8.12059C7.05031 8.29097 7.25287 8.49238 7.43359 8.7248C7.61764 8.95544 7.74702 9.21977 7.82175 9.51779C7.89648 9.81581 7.87864 10.1487 7.76822 10.5163C7.64093 10.9402 7.41484 11.2898 7.08995 11.5653C6.76761 11.8415 6.36423 12.0168 5.8798 12.0912C5.39793 12.1664 4.8557 12.1135 4.25312 11.9325C3.6914 11.7638 3.23221 11.5271 2.87557 11.2224C2.52149 10.9184 2.27568 10.569 2.13817 10.1742C2.0032 9.78012 1.98481 9.36402 2.08299 8.92586L3.06346 9.22031C3.00005 9.52416 3.02601 9.79919 3.14136 10.0454C3.26003 10.2898 3.43922 10.4995 3.67895 10.6745C3.92199 10.8477 4.19927 10.9811 4.51077 11.0746C4.87334 11.1835 5.21652 11.2225 5.54032 11.1917C5.86488 11.1584 6.14325 11.061 6.37541 10.8997C6.60834 10.7359 6.76775 10.5109 6.85363 10.225C6.93184 9.96452 6.92272 9.73075 6.82626 9.52363C6.72979 9.31651 6.57817 9.12622 6.37139 8.95278C6.1646 8.77933 5.93483 8.6129 5.68208 8.45349L4.79974 7.88788C4.23986 7.52767 3.83026 7.13047 3.57095 6.6963C3.31164 6.26212 3.26135 5.78076 3.42008 5.25223C3.55197 4.81306 3.78572 4.46572 4.12133 4.21021C4.46026 3.95291 4.85865 3.7942 5.31652 3.73407C5.77771 3.67216 6.25852 3.71635 6.75897 3.86664C7.26453 4.01847 7.68669 4.24407 8.02545 4.54344C8.36498 4.84026 8.60287 5.17893 8.73912 5.55945C8.87792 5.94073 8.89428 6.33117 8.78819 6.73077L7.869 6.45471Z" fill="#D8293A"/>
<path d="M18.3296 10.5256C18.1999 11.3795 17.9336 12.0941 17.5308 12.6693C17.1279 13.2445 16.632 13.66 16.0431 13.9157C15.4541 14.1714 14.8144 14.2468 14.1238 14.1419C13.4333 14.037 12.8448 13.775 12.3583 13.356C11.8719 12.9369 11.5217 12.393 11.3078 11.7241C11.0939 11.0552 11.0518 10.2938 11.1815 9.43984C11.3112 8.58586 11.5775 7.87128 11.9804 7.29608C12.3832 6.72089 12.8791 6.30544 13.4681 6.04974C14.057 5.79403 14.6967 5.71862 15.3873 5.82351C16.0779 5.9284 16.6664 6.19037 17.1528 6.60941C17.6393 7.02846 17.9894 7.57241 18.2033 8.24129C18.4172 8.91016 18.4593 9.67159 18.3296 10.5256ZM17.3808 10.3814C17.4872 9.68034 17.4598 9.0708 17.2985 8.55283C17.1398 8.03526 16.8803 7.62237 16.5199 7.31416C16.1622 7.00635 15.7382 6.81521 15.248 6.74075C14.7577 6.66629 14.2948 6.72271 13.8592 6.91002C13.4262 7.09772 13.0558 7.41493 12.7479 7.86164C12.4427 8.30875 12.2369 8.88286 12.1304 9.58396C12.0239 10.2851 12.05 10.8944 12.2087 11.412C12.37 11.9299 12.6295 12.3428 12.9872 12.6506C13.3476 12.9589 13.7729 13.1502 14.2631 13.2247C14.7534 13.2991 15.215 13.2425 15.648 13.0548C16.0836 12.8675 16.4541 12.5503 16.7593 12.1032C17.0671 11.6565 17.2743 11.0825 17.3808 10.3814Z" fill="#D8293A"/>
<path d="M26.972 6.67816L27.9638 6.68057L27.9506 12.1031C27.9492 12.663 27.8161 13.1625 27.5511 13.6018C27.2887 14.0384 26.9187 14.3827 26.4408 14.6348C25.963 14.8842 25.4029 15.0082 24.7604 15.0066C24.1179 15.0051 23.5583 14.8784 23.0817 14.6266C22.6051 14.3722 22.2354 14.0261 21.9725 13.5882C21.7123 13.1477 21.5829 12.6475 21.5843 12.0877L21.5975 6.6651L22.5892 6.66751L22.5762 12.0101C22.5753 12.41 22.6624 12.7661 22.8376 13.0784C23.0128 13.3881 23.2628 13.6327 23.5876 13.8121C23.9151 13.9888 24.3067 14.0778 24.7626 14.0789C25.2185 14.08 25.6106 13.993 25.939 13.8178C26.2673 13.64 26.5185 13.3966 26.6925 13.0878C26.8692 12.7763 26.9581 12.4206 26.9591 12.0207L26.972 6.67816Z" fill="#D8293A"/>
<path d="M37.2631 5.56138L38.4338 13.6671L37.484 13.8043L32.1477 8.07802L32.0686 8.08945L32.9878 14.4537L32.0063 14.5955L30.8355 6.48976L31.7854 6.35256L37.1397 12.0924L37.2189 12.081L36.2974 5.70087L37.2631 5.56138Z" fill="#D8293A"/>
<path d="M44.7049 12.1014L42.2808 12.8165L39.9634 4.96139L42.4948 4.21455C43.2568 3.98975 43.9552 3.95464 44.5901 4.10922C45.2242 4.26124 45.7721 4.58741 46.2338 5.08772C46.6948 5.58547 47.0452 6.24091 47.2851 7.05404C47.5265 7.87228 47.5886 8.61973 47.4713 9.2964C47.3533 9.97051 47.0624 10.5483 46.5985 11.0299C46.1339 11.5088 45.5027 11.866 44.7049 12.1014ZM42.9831 11.6921L44.3946 11.2757C45.0441 11.084 45.5453 10.7999 45.8984 10.4234C46.2515 10.0468 46.4646 9.59619 46.5378 9.07151C46.6109 8.54683 46.5532 7.96487 46.3646 7.32562C46.1775 6.69148 45.9129 6.17611 45.5707 5.77951C45.2278 5.38036 44.8143 5.11877 44.3302 4.99475C43.8453 4.86818 43.2961 4.89542 42.6824 5.07647L41.1635 5.52457L42.9831 11.6921Z" fill="#D8293A"/>
</svg>
