<svg width="63" height="23" viewBox="0 0 63 23" fill="none" xmlns="http://www.w3.org/2000/svg">
<path d="M6.65996 12.3881C6.3744 12.1205 6.03728 12.01 5.64861 12.0565C5.25993 12.1031 4.88373 12.2796 4.52 12.5859C4.25404 12.81 4.05757 13.049 3.93057 13.303C3.80554 13.5554 3.7507 13.8039 3.76606 14.0483C3.78338 14.2912 3.87275 14.5084 4.03417 14.7C4.16924 14.8604 4.32349 14.9661 4.49694 15.0173C4.6707 15.0648 4.85032 15.0757 5.0358 15.0498C5.21964 15.022 5.39864 14.9765 5.57279 14.9134C5.7453 14.8483 5.89964 14.7835 6.03582 14.719L6.78431 14.3693C6.97535 14.2786 7.19716 14.1887 7.44975 14.0997C7.70429 14.009 7.97228 13.9521 8.25369 13.929C8.53542 13.9023 8.81551 13.9372 9.09395 14.0336C9.3724 14.13 9.63021 14.319 9.8674 14.6006C10.1408 14.9252 10.3028 15.2902 10.3534 15.6956C10.406 16.0993 10.335 16.5151 10.1405 16.943C9.94794 17.3692 9.62091 17.7767 9.1594 18.1655C8.72917 18.5278 8.29816 18.7722 7.86637 18.8985C7.43654 19.0232 7.02707 19.0372 6.63797 18.9404C6.25082 18.8419 5.90716 18.6383 5.60697 18.3295L6.35791 17.697C6.56853 17.9074 6.80292 18.0309 7.06109 18.0675C7.31956 18.1005 7.58193 18.0667 7.84821 17.9661C8.11479 17.8619 8.36738 17.7094 8.60595 17.5084C8.88364 17.2745 9.09509 17.0195 9.2403 16.7434C9.38387 16.4654 9.45182 16.1909 9.44418 15.9198C9.43489 15.6469 9.338 15.4009 9.15352 15.1818C8.98551 14.9824 8.79306 14.867 8.57618 14.8357C8.35929 14.8045 8.12698 14.8263 7.87922 14.9013C7.63147 14.9762 7.37729 15.0733 7.11667 15.1926L6.19958 15.604C5.61659 15.8644 5.08279 15.9847 4.59818 15.965C4.11356 15.9453 3.70078 15.733 3.35982 15.3282C3.07651 14.9919 2.92037 14.6219 2.8914 14.2184C2.86274 13.8113 2.94443 13.4082 3.13646 13.0091C3.3288 12.6065 3.61661 12.2437 3.9999 11.9208C4.38711 11.5947 4.78976 11.3742 5.20786 11.2594C5.62432 11.1426 6.02102 11.1294 6.39797 11.2198C6.77688 11.3084 7.09888 11.5002 7.36396 11.7951L6.65996 12.3881Z" fill="#EFDBC0"/>
<path d="M6.65996 12.3881L6.31808 12.7529L6.64227 13.0567L6.98207 12.7705L6.65996 12.3881ZM5.64861 12.0565L5.70809 12.553L5.70809 12.553L5.64861 12.0565ZM3.93057 13.303L3.48333 13.0795L3.48253 13.0811L3.93057 13.303ZM3.76606 14.0483L3.26703 14.0797L3.26733 14.0839L3.76606 14.0483ZM4.49694 15.0173L4.35551 15.497L4.365 15.4996L4.49694 15.0173ZM5.0358 15.0498L5.10484 15.5451L5.11059 15.5442L5.0358 15.0498ZM5.57279 14.9134L5.74317 15.3835L5.74926 15.3812L5.57279 14.9134ZM6.03582 14.719L5.8242 14.266L5.82164 14.2672L6.03582 14.719ZM6.78431 14.3693L6.99593 14.8224L6.99877 14.821L6.78431 14.3693ZM7.44975 14.0997L7.61602 14.5712L7.61759 14.5707L7.44975 14.0997ZM8.25369 13.929L8.29458 14.4273L8.30085 14.4268L8.25369 13.929ZM9.09395 14.0336L9.25756 13.5611L9.25756 13.5611L9.09395 14.0336ZM10.3534 15.6956L9.85726 15.7575L9.8576 15.7601L10.3534 15.6956ZM10.1405 16.943L9.68529 16.7361L9.68481 16.7372L10.1405 16.943ZM7.86637 18.8985L8.00568 19.3788L8.00679 19.3784L7.86637 18.8985ZM6.63797 18.9404L6.51472 19.4249L6.51724 19.4256L6.63797 18.9404ZM5.60697 18.3295L5.28486 17.9471L4.87415 18.293L5.24847 18.6781L5.60697 18.3295ZM6.35791 17.697L6.71125 17.3432L6.38667 17.0191L6.0358 17.3146L6.35791 17.697ZM7.06109 18.0675L6.99086 18.5626L6.99774 18.5635L7.06109 18.0675ZM7.84821 17.9661L8.02492 18.4339L8.03023 18.4318L7.84821 17.9661ZM9.2403 16.7434L9.68284 16.9762L9.68458 16.9728L9.2403 16.7434ZM9.44418 15.9198L9.94399 15.9057L9.94389 15.9028L9.44418 15.9198ZM8.57618 14.8357L8.64753 14.3409L8.64753 14.3409L8.57618 14.8357ZM7.87922 14.9013L8.02402 15.3799L8.02402 15.3799L7.87922 14.9013ZM7.11667 15.1926L7.32133 15.6488L7.32468 15.6472L7.11667 15.1926ZM6.19958 15.604L6.40348 16.0605L6.40423 16.0602L6.19958 15.604ZM4.59818 15.965L4.57786 16.4646L4.57786 16.4646L4.59818 15.965ZM2.8914 14.2184L2.39264 14.2535L2.39269 14.2542L2.8914 14.2184ZM3.13646 13.0091L3.58702 13.2259L3.58764 13.2246L3.13646 13.0091ZM5.20786 11.2594L5.34027 11.7416L5.34285 11.7408L5.20786 11.2594ZM6.39797 11.2198L6.28145 11.706L6.28402 11.7066L6.39797 11.2198ZM7.36396 11.7951L7.68607 12.1775L8.08103 11.8449L7.7358 11.4608L7.36396 11.7951ZM7.00185 12.0232C6.60847 11.6546 6.12441 11.496 5.58912 11.5601L5.70809 12.553C5.95014 12.524 6.14032 12.5864 6.31808 12.7529L7.00185 12.0232ZM5.58913 11.5601C5.08462 11.6205 4.62001 11.848 4.19789 12.2035L4.8421 12.9684C5.14745 12.7112 5.43525 12.5857 5.70809 12.553L5.58913 11.5601ZM4.19789 12.2035C3.89122 12.4618 3.6468 12.7525 3.48333 13.0795L4.37781 13.5266C4.46833 13.3455 4.61686 13.1581 4.8421 12.9684L4.19789 12.2035ZM3.48253 13.0811C3.32452 13.4001 3.24541 13.7354 3.26705 14.0797L4.26508 14.017C4.25599 13.8724 4.28655 13.7108 4.37861 13.525L3.48253 13.0811ZM3.26733 14.0839C3.2924 14.4354 3.42439 14.7522 3.65175 15.0222L4.41659 14.3779C4.32111 14.2646 4.27436 14.1469 4.26479 14.0128L3.26733 14.0839ZM3.65175 15.0222C3.83966 15.2452 4.07378 15.4138 4.35554 15.4969L4.63834 14.5377C4.57321 14.5185 4.49881 14.4756 4.41659 14.3779L3.65175 15.0222ZM4.365 15.4996C4.60677 15.5657 4.85489 15.5799 5.10483 15.545L4.96677 14.5546C4.84574 14.5715 4.73462 14.5639 4.62888 14.535L4.365 15.4996ZM5.11059 15.5442C5.32689 15.5115 5.5379 15.4579 5.74316 15.3835L5.40243 14.4433C5.25937 14.4952 5.11239 14.5325 4.96101 14.5554L5.11059 15.5442ZM5.74926 15.3812C5.93185 15.3124 6.09912 15.2423 6.25 15.1708L5.82164 14.2672C5.70017 14.3248 5.55875 14.3843 5.39632 14.4456L5.74926 15.3812ZM6.24743 15.172L6.99593 14.8223L6.5727 13.9163L5.8242 14.266L6.24743 15.172ZM6.99877 14.821C7.17062 14.7394 7.37574 14.6559 7.61602 14.5712L7.28348 13.6281C7.01858 13.7215 6.78008 13.8178 6.56986 13.9177L6.99877 14.821ZM7.61759 14.5707C7.82938 14.4952 8.05454 14.447 8.29458 14.4273L8.21281 13.4307C7.89001 13.4571 7.5792 13.5227 7.2819 13.6287L7.61759 14.5707ZM8.30085 14.4268C8.50837 14.4071 8.71667 14.4321 8.93034 14.506L9.25756 13.5611C8.91434 13.4422 8.56247 13.3975 8.20654 13.4312L8.30085 14.4268ZM8.93034 14.506C9.10479 14.5665 9.29149 14.693 9.48498 14.9227L10.2498 14.2785C9.96893 13.945 9.64 13.6935 9.25756 13.5611L8.93034 14.506ZM9.48498 14.9227C9.69871 15.1765 9.81913 15.4519 9.85727 15.7575L10.8496 15.6336C10.7865 15.1285 10.5829 14.674 10.2498 14.2785L9.48498 14.9227ZM9.8576 15.7601C9.89633 16.0577 9.84728 16.3797 9.68529 16.7361L10.5957 17.1499C10.8227 16.6504 10.9156 16.1408 10.8492 15.631L9.8576 15.7601ZM9.68481 16.7372C9.53061 17.0785 9.25762 17.429 8.83729 17.7831L9.4815 18.5479C9.98419 18.1245 10.3653 17.66 10.5962 17.1488L9.68481 16.7372ZM8.83729 17.7831C8.44731 18.1115 8.0766 18.3161 7.72596 18.4187L8.00679 19.3784C8.51973 19.2283 9.01103 18.9442 9.4815 18.5479L8.83729 17.7831ZM7.72706 18.4183C7.37187 18.5214 7.05256 18.5283 6.7587 18.4552L6.51724 19.4256C7.00158 19.5461 7.5012 19.5251 8.00568 19.3787L7.72706 18.4183ZM6.76121 18.4558C6.47053 18.3819 6.20652 18.2289 5.96547 17.981L5.24847 18.6781C5.6078 19.0477 6.03112 19.3019 6.51472 19.4249L6.76121 18.4558ZM5.92908 18.7119L6.68002 18.0794L6.0358 17.3146L5.28486 17.9471L5.92908 18.7119ZM6.00456 18.0508C6.28045 18.3263 6.61068 18.5086 6.99087 18.5625L7.1313 17.5725C6.99516 17.5531 6.85661 17.4884 6.71125 17.3432L6.00456 18.0508ZM6.99774 18.5635C7.34466 18.6078 7.68935 18.5606 8.02491 18.4339L7.67151 17.4984C7.47451 17.5728 7.29445 17.5932 7.12444 17.5715L6.99774 18.5635ZM8.03023 18.4318C8.35212 18.306 8.6514 18.1239 8.92806 17.8908L8.28385 17.126C8.08335 17.2949 7.87747 17.4179 7.66619 17.5004L8.03023 18.4318ZM8.92806 17.8908C9.24719 17.622 9.50302 17.318 9.68283 16.9762L8.79778 16.5107C8.68717 16.721 8.52009 16.927 8.28385 17.126L8.92806 17.8908ZM9.68458 16.9728C9.86091 16.6313 9.95436 16.2736 9.94398 15.9057L8.94438 15.9339C8.94929 16.1082 8.90682 16.2995 8.79603 16.514L9.68458 16.9728ZM9.94389 15.9028C9.93059 15.5122 9.78883 15.16 9.53594 14.8597L8.7711 15.504C8.88716 15.6417 8.93918 15.7815 8.94447 15.9369L9.94389 15.9028ZM9.53594 14.8597C9.30478 14.5853 9.0081 14.3928 8.64753 14.3409L8.50483 15.3306C8.57803 15.3412 8.66624 15.3795 8.7711 15.504L9.53594 14.8597ZM8.64753 14.3409C8.34632 14.2974 8.03961 14.3304 7.73442 14.4227L8.02402 15.3799C8.21435 15.3223 8.37227 15.3115 8.50483 15.3306L8.64753 14.3409ZM7.73442 14.4227C7.46294 14.5048 7.18764 14.6103 6.90867 14.7379L7.32468 15.6472C7.56693 15.5364 7.8 15.4476 8.02402 15.3799L7.73442 14.4227ZM6.91201 14.7364L5.99492 15.1478L6.40423 16.0602L7.32133 15.6488L6.91201 14.7364ZM5.99567 15.1474C5.46172 15.3859 5.00564 15.4811 4.6185 15.4654L4.57786 16.4646C5.15994 16.4882 5.77146 16.3428 6.40348 16.0605L5.99567 15.1474ZM4.6185 15.4654C4.28783 15.4519 4.00198 15.3145 3.74224 15.0061L2.9774 15.6503C3.39957 16.1515 3.93929 16.4386 4.57786 16.4646L4.6185 15.4654ZM3.74224 15.0061C3.5207 14.7431 3.41086 14.4715 3.39012 14.1826L2.39269 14.2542C2.42988 14.7723 2.63231 15.2406 2.9774 15.6503L3.74224 15.0061ZM3.39017 14.1833C3.36813 13.8703 3.42937 13.5536 3.58702 13.2259L2.6859 12.7924C2.45948 13.2629 2.35736 13.7524 2.39264 14.2535L3.39017 14.1833ZM3.58764 13.2246C3.74575 12.8936 3.98642 12.5859 4.32201 12.3033L3.6778 11.5384C3.24681 11.9014 2.91185 12.3193 2.68528 12.7937L3.58764 13.2246ZM4.32201 12.3033C4.66313 12.0159 5.00259 11.8343 5.34027 11.7416L5.07546 10.7773C4.57692 10.9142 4.11108 11.1735 3.6778 11.5384L4.32201 12.3033ZM5.34285 11.7408C5.68694 11.6444 5.99664 11.6377 6.28145 11.706L6.5145 10.7335C6.0454 10.6211 5.56169 10.6409 5.07287 10.778L5.34285 11.7408ZM6.28402 11.7066C6.5614 11.7715 6.794 11.909 6.99213 12.1294L7.7358 11.4608C7.40375 11.0915 6.99237 10.8454 6.51193 10.7329L6.28402 11.7066ZM7.04186 11.4127L6.33785 12.0057L6.98207 12.7705L7.68607 12.1775L7.04186 11.4127Z" fill="#EFDBC0"/>
<path d="M13.9242 6.62459L13.6292 5.83408L19.1484 3.77463L19.4434 4.56514L17.1294 5.42861L19.5803 11.997L18.6892 12.3295L16.2382 5.76112L13.9242 6.62459Z" fill="#EFDBC0"/>
<path d="M13.9242 6.62459L13.4558 6.79939L13.6306 7.26784L14.099 7.09304L13.9242 6.62459ZM13.6292 5.83408L13.4544 5.36563L12.986 5.54043L13.1608 6.00888L13.6292 5.83408ZM19.1484 3.77463L19.6169 3.59983L19.4421 3.13138L18.9736 3.30618L19.1484 3.77463ZM19.4434 4.56514L19.6182 5.03359L20.0866 4.85879L19.9118 4.39034L19.4434 4.56514ZM17.1294 5.42861L16.9546 4.96016L16.4861 5.13496L16.6609 5.60341L17.1294 5.42861ZM19.5803 11.997L19.7551 12.4655L20.2236 12.2907L20.0488 11.8222L19.5803 11.997ZM18.6892 12.3295L18.2208 12.5043L18.3956 12.9728L18.864 12.798L18.6892 12.3295ZM16.2382 5.76112L16.7067 5.58632L16.5319 5.11787L16.0634 5.29267L16.2382 5.76112ZM14.3927 6.44979L14.0977 5.65928L13.1608 6.00888L13.4558 6.79939L14.3927 6.44979ZM13.804 6.30253L19.3232 4.24308L18.9736 3.30618L13.4544 5.36563L13.804 6.30253ZM18.68 3.94943L18.9749 4.73994L19.9118 4.39034L19.6169 3.59983L18.68 3.94943ZM19.2686 4.09669L16.9546 4.96016L17.3042 5.89706L19.6182 5.03359L19.2686 4.09669ZM16.6609 5.60341L19.1119 12.1718L20.0488 11.8222L17.5978 5.25381L16.6609 5.60341ZM19.4055 11.5286L18.5144 11.8611L18.864 12.798L19.7551 12.4655L19.4055 11.5286ZM19.1577 12.1547L16.7067 5.58632L15.7698 5.93592L18.2208 12.5043L19.1577 12.1547ZM16.0634 5.29267L13.7494 6.15614L14.099 7.09304L16.413 6.22957L16.0634 5.29267Z" fill="#EFDBC0"/>
<path d="M28.3602 10H27.3631L30.2472 2.14546H31.229L34.1131 10H33.1159L30.7688 3.38807H30.7074L28.3602 10ZM28.7284 6.93182H32.7477V7.77557H28.7284V6.93182Z" fill="#EFDBC0"/>
<path d="M28.3602 10V10.5H28.7133L28.8314 10.1673L28.3602 10ZM27.3631 10L26.8937 9.82766L26.6468 10.5H27.3631V10ZM30.2472 2.14546V1.64546H29.8981L29.7778 1.97312L30.2472 2.14546ZM31.229 2.14546L31.6983 1.97312L31.578 1.64546H31.229V2.14546ZM34.1131 10V10.5H34.8293L34.5824 9.82766L34.1131 10ZM33.1159 10L32.6447 10.1673L32.7628 10.5H33.1159V10ZM30.7688 3.38807L31.24 3.22081L31.1218 2.88807H30.7688V3.38807ZM30.7074 3.38807V2.88807H30.3543L30.2362 3.22081L30.7074 3.38807ZM28.7284 6.93182V6.43182H28.2284V6.93182H28.7284ZM32.7477 6.93182H33.2477V6.43182H32.7477V6.93182ZM32.7477 7.77557V8.27557H33.2477V7.77557H32.7477ZM28.7284 7.77557H28.2284V8.27557H28.7284V7.77557ZM28.3602 9.5H27.3631V10.5H28.3602V9.5ZM27.8324 10.1723L30.7165 2.3178L29.7778 1.97312L26.8937 9.82766L27.8324 10.1723ZM30.2472 2.64546H31.229V1.64546H30.2472V2.64546ZM30.7596 2.3178L33.6437 10.1723L34.5824 9.82766L31.6983 1.97312L30.7596 2.3178ZM34.1131 9.5H33.1159V10.5H34.1131V9.5ZM33.5871 9.83273L31.24 3.22081L30.2976 3.55534L32.6447 10.1673L33.5871 9.83273ZM30.7688 2.88807H30.7074V3.88807H30.7688V2.88807ZM30.2362 3.22081L27.889 9.83273L28.8314 10.1673L31.1786 3.55534L30.2362 3.22081ZM28.7284 7.43182H32.7477V6.43182H28.7284V7.43182ZM32.2477 6.93182V7.77557H33.2477V6.93182H32.2477ZM32.7477 7.27557H28.7284V8.27557H32.7477V7.27557ZM29.2284 7.77557V6.93182H28.2284V7.77557H29.2284Z" fill="#EFDBC0"/>
<path d="M40.6202 11.2607L43.3662 3.90174L45.8527 4.82957C46.4276 5.04409 46.8628 5.3184 47.1585 5.65248C47.455 5.98417 47.6284 6.35317 47.6787 6.75947C47.7291 7.16577 47.6733 7.58572 47.5115 8.0193C47.3497 8.45288 47.1177 8.80428 46.8152 9.0735C46.5128 9.34273 46.1426 9.50478 45.7046 9.55965C45.2675 9.61214 44.7639 9.53201 44.1937 9.31927L42.1815 8.56843L42.4819 7.76355L44.4653 8.50366C44.8582 8.65025 45.1958 8.71075 45.4783 8.68515C45.7631 8.66045 45.9988 8.56281 46.1853 8.39223C46.375 8.22015 46.5248 7.98679 46.6348 7.69215C46.7447 7.3975 46.7857 7.11943 46.7578 6.85793C46.7298 6.59643 46.6172 6.36065 46.42 6.15059C46.2236 5.93815 45.9266 5.75773 45.529 5.60935L43.9623 5.02477L41.5113 11.5932L40.6202 11.2607ZM45.3176 9.24741L45.8951 13.2289L44.8602 12.8428L44.3115 8.87199L45.3176 9.24741Z" fill="#EFDBC0"/>
<path d="M40.6202 11.2607L40.1518 11.0859L39.977 11.5543L40.4454 11.7291L40.6202 11.2607ZM43.3662 3.90174L43.541 3.43329L43.0725 3.25849L42.8977 3.72694L43.3662 3.90174ZM47.1585 5.65248L46.784 5.98382L46.7857 5.98571L47.1585 5.65248ZM47.6787 6.75947L47.1825 6.82095L47.1825 6.82095L47.6787 6.75947ZM46.8152 9.0735L46.4828 8.70005L46.4828 8.70005L46.8152 9.0735ZM45.7046 9.55965L45.7642 10.0561L45.7668 10.0558L45.7046 9.55965ZM42.1815 8.56843L41.7131 8.39363L41.5383 8.86208L42.0067 9.03688L42.1815 8.56843ZM42.4819 7.76355L42.6567 7.2951L42.1882 7.1203L42.0134 7.58875L42.4819 7.76355ZM45.4783 8.68515L45.4351 8.18702L45.4332 8.1872L45.4783 8.68515ZM46.1853 8.39223L45.8494 8.02186L45.8478 8.02332L46.1853 8.39223ZM46.42 6.15059L46.0528 6.48998L46.0555 6.49287L46.42 6.15059ZM43.9623 5.02477L44.1371 4.55632L43.6687 4.38152L43.4939 4.84997L43.9623 5.02477ZM41.5113 11.5932L41.3365 12.0616L41.805 12.2364L41.9798 11.768L41.5113 11.5932ZM45.3176 9.24741L45.8124 9.17565L45.7699 8.88252L45.4924 8.77896L45.3176 9.24741ZM45.8951 13.2289L45.7203 13.6974L46.511 13.9925L46.3899 13.1572L45.8951 13.2289ZM44.8602 12.8428L44.3649 12.9112L44.4058 13.2069L44.6854 13.3112L44.8602 12.8428ZM44.3115 8.87199L44.4863 8.40354L43.7016 8.11072L43.8162 8.94044L44.3115 8.87199ZM41.0887 11.4355L43.8346 4.07654L42.8977 3.72694L40.1518 11.0859L41.0887 11.4355ZM43.1914 4.37019L45.6779 5.29802L46.0275 4.36112L43.541 3.43329L43.1914 4.37019ZM45.6779 5.29802C46.2034 5.49411 46.5592 5.7298 46.784 5.98381L47.5329 5.32115C47.1665 4.907 46.6518 4.59407 46.0275 4.36112L45.6779 5.29802ZM46.7857 5.98571C47.0205 6.2484 47.1458 6.5245 47.1825 6.82095L48.1749 6.698C48.111 6.18184 47.8894 5.71994 47.5312 5.31926L46.7857 5.98571ZM47.1825 6.82095C47.2217 7.13751 47.1805 7.47636 47.0431 7.8445L47.98 8.1941C48.1662 7.69507 48.2364 7.19404 48.1749 6.698L47.1825 6.82095ZM47.0431 7.8445C46.9057 8.21278 46.7161 8.49229 46.4828 8.70005L47.1477 9.44695C47.5192 9.11627 47.7938 8.69298 47.98 8.1941L47.0431 7.8445ZM46.4828 8.70005C46.2628 8.89587 45.9895 9.02005 45.6425 9.06353L45.7668 10.0558C46.2957 9.9895 46.7629 9.78958 47.1477 9.44695L46.4828 8.70005ZM45.645 9.06322C45.3115 9.10326 44.8909 9.04574 44.3685 8.85082L44.0189 9.78772C44.6368 10.0183 45.2234 10.121 45.7642 10.0561L45.645 9.06322ZM44.3685 8.85082L42.3563 8.09998L42.0067 9.03688L44.0189 9.78772L44.3685 8.85082ZM42.65 8.74323L42.9503 7.93834L42.0134 7.58875L41.7131 8.39363L42.65 8.74323ZM42.3071 8.23199L44.2905 8.97211L44.6401 8.03521L42.6567 7.2951L42.3071 8.23199ZM44.2905 8.97211C44.7227 9.13338 45.1394 9.21792 45.5234 9.18311L45.4332 8.1872C45.2523 8.20359 44.9936 8.16712 44.6401 8.03521L44.2905 8.97211ZM45.5215 9.18329C45.9009 9.15038 46.2446 9.01565 46.5228 8.76114L45.8478 8.02332C45.753 8.10997 45.6254 8.17052 45.4351 8.18702L45.5215 9.18329ZM46.5211 8.76261C46.7821 8.52599 46.9716 8.21965 47.1032 7.86695L46.1663 7.51735C46.0781 7.75393 45.968 7.91431 45.8494 8.02186L46.5211 8.76261ZM47.1032 7.86695C47.2351 7.51369 47.2926 7.15716 47.2549 6.80478L46.2606 6.91108C46.2788 7.0817 46.2544 7.28132 46.1663 7.51735L47.1032 7.86695ZM47.2549 6.80478C47.2143 6.42456 47.0487 6.08971 46.7844 5.80832L46.0555 6.49287C46.1857 6.63159 46.2453 6.76829 46.2606 6.91108L47.2549 6.80478ZM46.7871 5.81122C46.5187 5.52075 46.1431 5.30484 45.7038 5.1409L45.3542 6.0778C45.7101 6.21062 45.9285 6.35554 46.0528 6.48997L46.7871 5.81122ZM45.7038 5.1409L44.1371 4.55632L43.7875 5.49321L45.3542 6.0778L45.7038 5.1409ZM43.4939 4.84997L41.0429 11.4184L41.9798 11.768L44.4308 5.19956L43.4939 4.84997ZM41.6861 11.1247L40.795 10.7922L40.4454 11.7291L41.3365 12.0616L41.6861 11.1247ZM44.8228 9.31918L45.4003 13.3007L46.3899 13.1572L45.8124 9.17565L44.8228 9.31918ZM46.0699 12.7605L45.035 12.3743L44.6854 13.3112L45.7203 13.6974L46.0699 12.7605ZM45.3555 12.7743L44.8068 8.80355L43.8162 8.94044L44.3649 12.9112L45.3555 12.7743ZM44.1367 9.34044L45.1428 9.71586L45.4924 8.77896L44.4863 8.40354L44.1367 9.34044Z" fill="#EFDBC0"/>
<path d="M55.2932 10.738L55.8368 10.0926L60.3424 13.8877L59.7989 14.533L57.9098 12.9419L53.3933 18.304L52.6658 17.6913L57.1823 12.3291L55.2932 10.738Z" fill="#EFDBC0"/>
<path d="M55.2932 10.738L54.9108 10.4159L54.5887 10.7983L54.9711 11.1204L55.2932 10.738ZM55.8368 10.0926L56.1589 9.71023L55.7765 9.38812L55.4544 9.77054L55.8368 10.0926ZM60.3424 13.8877L60.7248 14.2098L61.0469 13.8274L60.6645 13.5053L60.3424 13.8877ZM59.7989 14.533L59.4767 14.9154L59.8592 15.2375L60.1813 14.8551L59.7989 14.533ZM57.9098 12.9419L58.2319 12.5594L57.8495 12.2373L57.5274 12.6198L57.9098 12.9419ZM53.3933 18.304L53.0712 18.6864L53.4536 19.0085L53.7757 18.6261L53.3933 18.304ZM52.6658 17.6913L52.2834 17.3692L51.9613 17.7516L52.3437 18.0737L52.6658 17.6913ZM57.1823 12.3291L57.5647 12.6512L57.8868 12.2688L57.5044 11.9467L57.1823 12.3291ZM55.6757 11.0601L56.2192 10.4148L55.4544 9.77054L54.9108 10.4159L55.6757 11.0601ZM55.5147 10.4751L60.0203 14.2701L60.6645 13.5053L56.1589 9.71023L55.5147 10.4751ZM59.96 13.5656L59.4164 14.2109L60.1813 14.8551L60.7248 14.2098L59.96 13.5656ZM60.121 14.1506L58.2319 12.5594L57.5877 13.3243L59.4767 14.9154L60.121 14.1506ZM57.5274 12.6198L53.0109 17.9819L53.7757 18.6261L58.2922 13.264L57.5274 12.6198ZM53.7154 17.9216L52.9879 17.3089L52.3437 18.0737L53.0712 18.6864L53.7154 17.9216ZM53.0483 18.0134L57.5647 12.6512L56.7999 12.007L52.2834 17.3692L53.0483 18.0134ZM57.5044 11.9467L55.6153 10.3556L54.9711 11.1204L56.8602 12.7115L57.5044 11.9467Z" fill="#EFDBC0"/>
</svg>
